<svg width="715" height="1175" viewBox="0 0 715 1175" fill="none" xmlns="http://www.w3.org/2000/svg">
<path d="M104.997 0H-105.301H-263.756V6.75085C-208.896 20.2323 -188.21 62.0331 -188.21 62.0331H-105.301H104.997H187.896C187.896 62.0331 208.582 20.2323 263.443 6.75085V0H104.997ZM118.94 71.9316H-119.244H-173.811V96.6476H-119.244H118.94H173.507V71.9316H118.94ZM107.245 104.289H-107.559H-172.92C-186.529 104.289 -197.657 115.413 -197.657 129.016C-197.657 142.619 -186.529 153.742 -172.92 153.742H-110.151C-116.875 156.221 -123.639 158.863 -130.403 161.839H-173.811C-166.642 168.741 -167.513 180.462 -175.623 186.251C-177.932 187.901 -179.745 189.186 -180.372 189.631C-191.075 197.192 -202.284 203.983 -214.465 208.811C-240.002 218.912 -281.78 228.811 -319.802 207.698C-319.802 207.698 -434.585 152.638 -499.966 220.177C-499.966 220.177 -499.784 220.177 -499.663 220.167L-499.673 220.177L-707.875 487.722C-707.875 487.722 -690.874 531.739 -643.821 553.753C-643.821 553.753 -675.848 534.745 -689.862 492.722L-497.364 220.107C-494.134 220.026 -488.018 219.965 -480.019 220.218L-285.618 517.62C-301.292 559.047 -340.286 582.71 -340.286 582.71C-292.402 562.579 -267.412 513.339 -267.412 513.339L-477.325 220.299C-459.859 220.977 -434.788 223.234 -411.195 229.944C-390.083 235.946 -371.3 248.062 -355.454 263.243C-332.205 285.52 -260.496 340.225 -138.3 313.09C-138.3 313.09 -192.189 304.609 -228.631 247.474C-228.631 247.474 -168.303 297.848 -81.2224 291.745C-81.2224 291.745 -103.246 301.755 -127.263 296.745C-127.263 296.745 9.86725 366.45 55.2401 759.984C55.2401 759.984 0.248047 469.747 -111.579 362.442C-111.579 362.442 -76.0078 458.674 -60.8194 590.868C-35.1713 658.994 -8.30804 746.016 6.1817 840.235C6.1817 840.235 -17.6236 766.056 -54.3997 681.605C-52.5265 755.581 -59.1689 835.498 -81.6983 913.391H128.154C41.6718 669.611 104.623 315.762 104.623 315.762C76.5951 351.784 23.2129 394.465 23.2129 394.465C51.2405 362.442 71.2587 291.745 71.2587 291.745C170.024 297.079 228.327 247.474 228.327 247.474C191.885 304.609 137.987 313.09 137.987 313.09C265.933 341.511 338.544 280.176 358.117 260.328C366.774 251.533 376.505 243.699 387.673 238.466C416.663 224.884 453.935 221.19 477.325 220.289L267.412 513.339C267.412 513.339 292.392 562.579 340.276 582.71C340.276 582.71 301.282 559.047 285.607 517.62L480.019 220.208C488.17 219.965 494.286 220.036 497.364 220.107L689.851 492.722C675.838 534.745 643.81 553.753 643.81 553.753C690.854 531.739 707.875 487.722 707.875 487.722L499.662 220.177C497.526 217.961 495.319 215.896 493.071 213.943L492.878 213.761L492.919 213.821C426.687 156.282 319.488 207.698 319.488 207.698C281.466 228.811 239.688 218.912 214.161 208.811C201.98 203.983 190.771 197.192 180.068 189.631C179.441 189.186 177.486 187.901 174.975 186.261C166.419 180.664 165.67 168.407 173.507 161.839H131.344C124.904 158.863 118.515 156.221 112.176 153.742H172.606C186.215 153.742 197.343 142.619 197.343 129.016C197.343 115.413 186.215 104.289 172.606 104.289H107.245ZM613.545 568.146C613.545 568.146 637.3 555.302 659.211 530.879C466.035 621.606 303.823 523.066 303.823 523.066C328.104 569.239 366.541 592.831 366.541 592.831C309.028 591.05 253.773 533.744 253.773 533.744C261.741 548.237 273.345 567.984 281.922 579.957C366.774 698.274 533.593 721.351 645.248 628.873C715.449 570.737 715.074 504.655 714.993 500.677C700.554 521.568 673.397 554.047 613.545 568.146ZM-645.258 628.873C-533.593 721.351 -366.774 698.274 -281.922 579.957C-273.345 567.984 -261.752 548.237 -253.783 533.744C-253.783 533.744 -309.038 591.05 -366.541 592.831C-366.541 592.831 -328.105 569.239 -303.834 523.066C-303.834 523.066 -466.046 621.606 -659.222 530.879C-637.3 555.302 -613.555 568.146 -613.555 568.146C-673.397 554.047 -700.554 521.568 -714.993 500.677C-715.074 504.655 -715.459 570.737 -645.258 628.873ZM385.74 795.347C390.843 761.056 411.62 741.026 411.62 741.026C336.863 781.4 312.329 883.766 312.329 883.766C306.487 854.607 315.316 832.452 315.316 832.452C283.714 862.269 266.106 958.34 266.106 958.34C266.166 944.554 259.301 931.67 259.301 931.67C255.139 955.88 227.871 1016.82 227.871 1016.82C325.026 950.445 399.196 826.116 399.196 826.116C380.849 881.327 345.257 929.14 307.752 967.428C267.938 1008.1 220.459 1040.2 169.862 1066.29C156.658 1073.09 148.598 1078.76 148.598 1078.76C160.161 1058.67 176.717 1050.22 176.717 1050.22C142.877 1051.48 83.207 1098.73 83.207 1098.73C90.3253 1090.69 92.9175 1079.61 92.9175 1079.61C78.043 1091.67 27.4353 1113.39 27.4353 1113.39C118.464 1124.35 229.127 1089.55 229.127 1089.55C174.084 1121.85 106.536 1126.07 54.592 1126.51C24.8431 1126.42 24.8431 1126.42 -5.90826 1127.02C-61.1028 1125.69 -127.253 1123.02 -183.319 1090.14C-183.319 1090.14 -72.7575 1124.94 18.2615 1113.96C18.2615 1113.96 -32.2449 1092.25 -47.1093 1080.2C-47.1093 1080.2 -44.5172 1091.27 -37.3989 1099.32C-37.3989 1099.32 -97.0791 1052.06 -130.909 1050.8C-130.909 1050.8 -114.353 1059.26 -102.8 1079.34C-102.8 1079.34 -110.85 1073.68 -124.054 1066.87C-174.641 1040.79 -222.12 1008.67 -261.944 968.005C-299.449 929.727 -335.041 881.914 -353.388 826.703C-353.388 826.703 -279.218 951.032 -182.073 1017.4C-182.073 1017.4 -209.342 956.457 -213.493 932.257C-213.493 932.257 -220.379 945.141 -220.308 958.916C-220.308 958.916 -237.916 862.856 -269.508 833.029C-269.508 833.029 -260.678 855.194 -266.521 884.353C-266.521 884.353 -291.055 781.977 -365.822 741.603C-365.822 741.603 -345.045 761.633 -339.941 795.934C-339.941 795.934 -395.409 694.003 -502.781 741.826C-502.781 741.826 -494.579 741.563 -483.107 744.832C-464.83 750.044 -449.055 761.684 -438.079 777.2C-422.252 799.588 -376.545 862.593 -345.44 888.554C-345.44 888.554 -383.198 882.906 -394.346 857.977C-394.346 857.977 -393.455 939.18 -296.057 975.768C-296.057 975.768 -336.61 980.039 -351.697 963.552C-351.697 963.552 -319.437 1030.96 -211.448 1043.91C-219.022 1044.1 -226.687 1044.91 -234.321 1046.65C-234.321 1046.65 -211.853 1047.72 -191.247 1065.2C-191.247 1065.2 -276.12 1033.94 -314.476 1117.08C-314.476 1117.08 -302.73 1106.08 -282.894 1103.11C-274.743 1101.9 -266.399 1102.67 -258.38 1104.59C-237.612 1109.59 -178.458 1123.05 -146.887 1122.31C-146.887 1122.31 -171.907 1138.38 -191.257 1129.49C-191.257 1129.49 -149.023 1176.61 -73.1422 1148.08C-73.1422 1148.08 -94.7098 1171.39 -112.025 1169.48C-112.025 1169.48 -52.3746 1195.11 23.304 1135.94C98.5878 1194.29 157.823 1168.89 157.823 1168.89C140.518 1170.8 118.95 1147.5 118.95 1147.5C194.821 1176.05 237.055 1128.9 237.055 1128.9C217.715 1137.8 192.695 1121.73 192.695 1121.73C224.257 1122.48 283.41 1109.01 304.188 1104.01C318.587 1100.55 333.805 1101.83 347.201 1108.16C355.616 1112.13 360.273 1116.49 360.273 1116.49C321.928 1033.35 237.045 1064.62 237.045 1064.62C257.661 1047.14 280.119 1046.07 280.119 1046.07C272.485 1044.33 264.83 1043.52 257.246 1043.34C365.245 1030.36 397.495 962.975 397.495 962.975C382.408 979.452 341.865 975.191 341.865 975.191C439.263 938.593 440.144 857.39 440.144 857.39C428.996 882.319 391.238 887.967 391.238 887.967C422.354 862.006 468.06 799.011 483.877 776.623C494.853 761.097 510.639 749.468 528.905 744.255C540.388 740.976 548.589 741.249 548.589 741.249C528.186 732.16 509.656 728.476 493.02 728.476C422.131 728.466 385.74 795.347 385.74 795.347ZM-106.86 970.354H24.2053V970.161H155.271C147.606 957.621 138.867 943.674 132.772 928.381L-85.6879 928.371C-91.7633 943.664 -99.2156 957.813 -106.86 970.354ZM56.8906 990.12C69.7805 999.857 78.2353 1015.06 78.5694 1032.37H204.319C204.319 1032.37 187.197 1016.56 168.262 990.12H56.8906ZM-120.348 990.313C-139.283 1016.75 -156.405 1032.57 -156.405 1032.57H-30.1895C-29.9161 1015.29 -21.5321 1000.09 -8.73334 990.313H-120.348ZM-0.298645 1009.73C-7.16382 1027.38 -14.0391 1045.04 -20.9043 1062.69C-22.1396 1065.84 -23.2839 1069.04 -24.9141 1072.02C-25.9166 1073.86 -27.0709 1075.65 -28.5796 1077.12C-29.3593 1077.85 -30.23 1078.52 -31.2831 1078.75C-27.648 1078.78 -24.0028 1078.78 -20.3677 1078.77C-18.0591 1078.77 -15.7402 1078.77 -13.4215 1078.77C-12.8646 1078.78 -12.3077 1078.74 -11.7509 1078.7C-13.2393 1078.63 -14.6265 1077.67 -15.2442 1076.31C-15.7808 1075.16 -15.8315 1073.85 -15.6391 1072.62C-15.3556 1070.89 -14.7075 1069.26 -14.1202 1067.62C-13.2089 1065.15 -12.3076 1062.68 -11.3862 1060.21C-2.30353 1060.21 6.78918 1060.22 15.882 1060.21C17.1578 1063.55 18.4133 1066.88 19.679 1070.21C20.3068 1072.01 21.0056 1073.97 20.4486 1075.89C20.3676 1076.22 20.2056 1076.52 20.0334 1076.81C19.4158 1077.64 18.6159 1078.31 17.6135 1078.59C17.4312 1078.63 17.249 1078.7 17.0667 1078.72C18.8994 1078.8 20.7422 1078.79 22.5749 1078.78C23.6077 1078.77 24.6608 1078.77 25.6936 1078.77C27.5162 1078.77 29.3388 1078.77 31.1715 1078.78C34.2598 1078.79 37.3583 1078.8 40.4568 1078.73C39.4746 1078.6 38.6241 1078.02 37.8647 1077.43C36.275 1076.12 35.0598 1074.42 33.9966 1072.68C32.6601 1070.42 31.6475 1068.02 30.6957 1065.58C23.3445 1046.97 15.9832 1028.35 8.63196 1009.73C5.65509 1009.73 2.68835 1009.73 -0.298645 1009.73ZM2.09088 1024.55C5.79688 1034.13 9.49261 1043.7 13.1885 1053.28H-8.80426C-5.16919 1043.7 -1.54419 1034.13 2.09088 1024.55ZM21.1776 1014.07C22.0383 1016.2 22.2206 1018.54 22.2206 1020.83V1022.72V1022.84V1024.62L33.7231 1055.66V1047.36H45.641C47.6357 1047.38 49.7217 1047.54 51.5443 1048.41C52.5569 1048.87 53.4277 1049.69 53.8124 1050.75C53.7922 1046.04 53.7922 1041.32 53.8124 1036.61C53.4378 1037.55 52.6885 1038.31 51.8076 1038.78C49.9141 1039.8 47.7371 1039.99 45.6512 1040.02C41.6719 1040.02 37.7025 1040.02 33.7231 1040.02C33.7131 1032.36 33.7233 1024.69 33.7131 1017.04C38.2798 1017.03 42.8566 1017.04 47.4232 1017.04C48.9319 1017.04 50.4609 1017.1 51.9392 1017.42C53.9238 1017.8 55.8882 1018.69 57.2451 1020.24C58.5107 1021.65 59.2094 1023.45 59.817 1025.22C59.8068 1020.08 59.8168 1014.94 59.8068 1009.8C45.4284 1009.8 31.0501 1009.82 16.6516 1009.79C18.8083 1010.28 20.408 1012.06 21.1776 1014.07ZM60.9105 1067.44C59.5334 1068.98 57.6703 1070.07 55.6857 1070.6C52.9315 1071.38 50.076 1071.37 47.2612 1071.37C46.927 1071.37 46.6132 1071.37 46.2892 1071.37H42.2996L46.3195 1078.71H61.4673C62.3888 1073.21 63.3406 1067.69 64.2418 1062.17C63.3305 1064.04 62.318 1065.9 60.9105 1067.44Z" fill="#EFF4F8"/>
</svg>
