<svg width="17" height="222" viewBox="0 0 17 222" fill="none" xmlns="http://www.w3.org/2000/svg">
<path d="M0.418608 211.833L3.46512 212.272L3.46512 217.735H6.90698V212.963H9.86047V217.735H13.5349L13.5349 211.903H16.5814V222H0.418609L0.418608 211.833Z" fill="#3C4A56" fill-opacity="0.2"/>
<path d="M3.13302e-06 204.625C3.07948e-06 203.411 0.178298 202.343 0.534887 201.421C0.891476 200.483 1.42636 199.646 2.13954 198.908L4.41861 200.822C3.53489 201.928 3.09303 203.089 3.09303 204.303C3.09303 204.933 3.21706 205.417 3.46512 205.755C3.69768 206.078 4.03101 206.239 4.46512 206.239C4.7752 206.239 5.03101 206.155 5.23256 205.986C5.43411 205.816 5.62791 205.532 5.81396 205.133C6 204.733 6.23256 204.103 6.51163 203.242C7.03876 201.598 7.70543 200.399 8.51163 199.646C9.30233 198.877 10.4031 198.493 11.814 198.493C12.8372 198.493 13.7442 198.754 14.5349 199.277C15.3101 199.8 15.9147 200.56 16.3488 201.559C16.7829 202.543 17 203.703 17 205.04C17 207.592 16.2171 209.674 14.6512 211.288L12.3023 209.19C13.3566 207.914 13.8837 206.585 13.8837 205.202C13.8837 204.479 13.7287 203.918 13.4186 203.519C13.093 203.119 12.6667 202.919 12.1395 202.919C11.7674 202.919 11.4651 202.996 11.2326 203.15C10.9845 203.304 10.7674 203.58 10.5814 203.98C10.3798 204.364 10.1628 204.933 9.93023 205.686C9.35659 207.499 8.66667 208.775 7.86047 209.513C7.05427 210.25 6.03876 210.619 4.81396 210.619C3.85272 210.619 3.00776 210.366 2.27907 209.858C1.55039 209.336 0.992251 208.621 0.604655 207.715C0.201554 206.792 3.18317e-06 205.763 3.13302e-06 204.625Z" fill="#3C4A56" fill-opacity="0.2"/>
<path d="M0.418607 185.824L3.69768 186.262L3.69768 190.043H16.5814V194.308H3.69768V198.319H0.418608L0.418607 185.824Z" fill="#3C4A56" fill-opacity="0.2"/>
<path d="M16.5814 177.362L13.2791 178.077V182.319L16.5814 183.033V187.459L0.418607 182.711L0.418607 177.593L16.5814 172.844V177.362ZM10.2093 181.65V178.745L3.48837 180.198L10.2093 181.65Z" fill="#3C4A56" fill-opacity="0.2"/>
<path d="M8.02326 163.076C8.24031 162 8.63566 161.132 9.2093 160.471C9.78295 159.81 10.6589 159.48 11.8372 159.48C13.5891 159.48 14.8217 160.11 15.5349 161.37C16.2326 162.63 16.5814 164.39 16.5814 166.649V172.044H0.418606L0.418606 167.272C0.418606 164.966 0.744187 163.207 1.39535 161.992C2.03101 160.763 3.09302 160.148 4.5814 160.148C5.52713 160.148 6.28682 160.433 6.86047 161.001C7.4186 161.554 7.8062 162.246 8.02326 163.076ZM3.41861 167.779H6.7907V166.672C6.7907 165.919 6.65116 165.366 6.37209 165.012C6.09302 164.659 5.64341 164.482 5.02326 164.482C4.44961 164.482 4.03876 164.674 3.7907 165.059C3.54264 165.427 3.41861 166.034 3.41861 166.88L3.41861 167.779ZM13.5116 166.626C13.5116 165.719 13.3798 165.035 13.1163 164.574C12.8372 164.113 12.3256 163.883 11.5814 163.883C10.8682 163.883 10.3566 164.098 10.0465 164.528C9.72093 164.959 9.55814 165.581 9.55814 166.396V167.779H13.5116V166.626Z" fill="#3C4A56" fill-opacity="0.2"/>
<path d="M0.418606 153.506H13.2326V147.35L16.5814 147.811L16.5814 157.77H0.418606L0.418606 153.506Z" fill="#3C4A56" fill-opacity="0.2"/>
<path d="M0.418605 141.596H16.5814V145.861H0.418605L0.418605 141.596Z" fill="#3C4A56" fill-opacity="0.2"/>
<path d="M0 133.574C-5.3538e-08 132.36 0.178294 131.292 0.534883 130.37C0.891473 129.432 1.42636 128.595 2.13953 127.857L4.4186 129.771C3.53488 130.877 3.09302 132.038 3.09302 133.252C3.09302 133.882 3.21705 134.366 3.46512 134.704C3.69767 135.027 4.03101 135.188 4.46512 135.188C4.77519 135.188 5.03101 135.104 5.23256 134.935C5.43411 134.765 5.62791 134.481 5.81395 134.082C6 133.682 6.23256 133.052 6.51163 132.191C7.03876 130.547 7.70543 129.348 8.51163 128.595C9.30232 127.826 10.4031 127.442 11.814 127.442C12.8372 127.442 13.7442 127.703 14.5349 128.226C15.3101 128.749 15.9147 129.509 16.3488 130.508C16.7829 131.492 17 132.652 17 133.989C17 136.541 16.2171 138.623 14.6512 140.237L12.3023 138.139C13.3566 136.863 13.8837 135.534 13.8837 134.151C13.8837 133.428 13.7287 132.867 13.4186 132.468C13.093 132.068 12.6667 131.868 12.1395 131.868C11.7674 131.868 11.4651 131.945 11.2326 132.099C10.9845 132.253 10.7674 132.529 10.5814 132.929C10.3798 133.313 10.1628 133.882 9.93023 134.635C9.35659 136.448 8.66667 137.724 7.86046 138.462C7.05426 139.199 6.03876 139.568 4.81395 139.568C3.85271 139.568 3.00775 139.315 2.27907 138.807C1.55039 138.285 0.992248 137.57 0.604652 136.664C0.201551 135.741 5.01495e-08 134.712 0 133.574Z" fill="#3C4A56" fill-opacity="0.2"/>
<path d="M16.5814 117.228H9.86046V121.47H16.5814V125.734H0.418604L0.418604 121.47H6.53488V117.228H0.418604L0.418604 112.963H16.5814V117.228Z" fill="#3C4A56" fill-opacity="0.2"/>
<path d="M0.418603 100.327L3.46512 100.765L3.46512 106.228H6.90697V101.456H9.86046V106.228H13.5349V100.396H16.5814V110.493H0.418604L0.418603 100.327Z" fill="#3C4A56" fill-opacity="0.2"/>
<path d="M0.418603 93.6311C0.418603 91.0953 0.999998 89.0589 2.16279 87.522C3.31008 85.9851 5.4031 85.2167 8.44186 85.2167C13.8682 85.2167 16.5814 87.9139 16.5814 93.3084V98.4262H0.418603L0.418603 93.6311ZM3.48837 94.1614H13.5116V93.0548C13.5116 91.8868 13.1395 91.0261 12.3953 90.4728C11.6512 89.9042 10.3333 89.6199 8.44186 89.6199C7.13953 89.6199 6.13178 89.7582 5.4186 90.0348C4.68992 90.2961 4.18604 90.6803 3.90697 91.1875C3.62791 91.6793 3.48837 92.3094 3.48837 93.0779V94.1614Z" fill="#3C4A56" fill-opacity="0.2"/>
<path d="M0.418602 73.8321H16.5814V78.097H0.418602L0.418602 73.8321Z" fill="#3C4A56" fill-opacity="0.2"/>
<path d="M16.5814 58.6868V64.0583L4.4186 68.1156L4.90697 68.0465C5.97674 67.8928 6.98449 67.7775 7.93023 67.7007C8.86046 67.6085 9.92248 67.5624 11.1163 67.5624H16.5814L16.5814 71.3431H0.418602L0.418602 66.087L12.6279 61.8913C11.4651 62.0757 10.4186 62.2217 9.48837 62.3293C8.55814 62.4215 7.48837 62.4676 6.27907 62.4676H0.418602L0.418601 58.6868H16.5814Z" fill="#3C4A56" fill-opacity="0.2"/>
<path d="M0.465113 46.6354C0.465113 45.452 0.674416 44.4453 1.09302 43.6154C1.49612 42.7701 2.04651 42.1323 2.74418 41.702C3.42635 41.2716 4.18604 41.0565 5.02325 41.0565C5.84496 41.0565 6.6124 41.2102 7.32558 41.5175C8.03875 41.8249 8.87596 42.4013 9.8372 43.2465C10.7984 44.0765 12 45.306 13.4419 46.9351V40.7107L16.5814 41.1487V51.5918H13.6977C11.9147 49.7629 10.5581 48.4182 9.6279 47.5575C8.68217 46.6969 7.90697 46.0975 7.30232 45.7594C6.68217 45.4212 6.06976 45.2522 5.46511 45.2522C4.89147 45.2522 4.44186 45.4136 4.11628 45.7363C3.77519 46.059 3.60465 46.5047 3.60465 47.0734C3.60465 47.6113 3.73643 48.0954 4 48.5257C4.24806 48.9407 4.65116 49.3633 5.2093 49.7937L3.27907 52.1682C2.39535 51.5073 1.70542 50.7158 1.2093 49.7937C0.713175 48.8562 0.465113 47.8034 0.465113 46.6354Z" fill="#3C4A56" fill-opacity="0.2"/>
<path d="M0.465113 33.2774C0.465113 31.3102 1.17829 29.8041 2.60465 28.759C4.031 27.7139 6.06976 27.1914 8.72092 27.1914C11.3721 27.1914 13.4186 27.7139 14.8605 28.759C16.2868 29.8041 17 31.3102 17 33.2774C17 35.2446 16.2868 36.7585 14.8605 37.8189C13.4186 38.864 11.3721 39.3866 8.72092 39.3866C6.05426 39.3866 4.0155 38.864 2.60465 37.8189C1.17829 36.7585 0.465113 35.2446 0.465113 33.2774ZM3.48837 33.2774C3.48837 33.7539 3.65116 34.1304 3.97674 34.407C4.28682 34.6837 4.8217 34.8835 5.58139 35.0064C6.32558 35.1294 7.37209 35.1909 8.72092 35.1909C10.0853 35.1909 11.1473 35.1294 11.907 35.0064C12.6512 34.8835 13.186 34.6837 13.5116 34.407C13.8217 34.1304 13.9767 33.7539 13.9767 33.2774C13.9767 32.801 13.8295 32.4321 13.5349 32.1709C13.2248 31.8942 12.6977 31.6944 11.9535 31.5715C11.1938 31.4485 10.1163 31.3871 8.72092 31.3871C7.32558 31.3871 6.25581 31.4485 5.51162 31.5715C4.75193 31.6944 4.2248 31.8942 3.93023 32.1709C3.63565 32.4321 3.48837 32.801 3.48837 33.2774Z" fill="#3C4A56" fill-opacity="0.2"/>
<path d="M0.465112 19.5895C0.465112 17.6223 1.17829 16.1162 2.60465 15.0711C4.031 14.026 6.06976 13.5035 8.72092 13.5035C11.3721 13.5035 13.4186 14.026 14.8605 15.0711C16.2868 16.1162 17 17.6223 17 19.5895C17 21.5568 16.2868 23.0706 14.8605 24.131C13.4186 25.1761 11.3721 25.6987 8.72092 25.6987C6.05426 25.6987 4.0155 25.1761 2.60465 24.131C1.17829 23.0706 0.465112 21.5568 0.465112 19.5895ZM3.48837 19.5895C3.48837 20.066 3.65116 20.4425 3.97674 20.7192C4.28682 20.9958 4.8217 21.1956 5.58139 21.3185C6.32558 21.4415 7.37209 21.503 8.72092 21.503C10.0853 21.503 11.1473 21.4415 11.907 21.3185C12.6512 21.1956 13.186 20.9958 13.5116 20.7191C13.8217 20.4425 13.9767 20.066 13.9767 19.5895C13.9767 19.1131 13.8294 18.7443 13.5349 18.483C13.2248 18.2063 12.6977 18.0065 11.9535 17.8836C11.1938 17.7606 10.1163 17.6992 8.72092 17.6992C7.32557 17.6992 6.25581 17.7606 5.51162 17.8836C4.75193 18.0065 4.2248 18.2063 3.93023 18.483C3.63565 18.7443 3.48837 19.1131 3.48837 19.5895Z" fill="#3C4A56" fill-opacity="0.2"/>
<path d="M5.90697 4.51845C5.90697 3.64242 6.11627 2.86629 6.53488 2.19006C6.95348 1.49846 7.55813 0.960555 8.34883 0.576333C9.13953 0.192111 10.0853 4.76974e-08 11.186 0C12.2403 -4.5682e-08 13.217 0.238217 14.1163 0.714652C15 1.17572 15.7054 1.85195 16.2325 2.74334C16.7442 3.61937 17 4.65677 17 5.85554C17 7.91497 16.3333 9.45954 15 10.4893C13.6512 11.5036 11.7907 12.0108 9.4186 12.0108C7.63565 12.0108 6.06976 11.7264 4.72092 11.1578C3.37209 10.5738 2.32558 9.75155 1.58139 8.69109C0.837204 7.61527 0.465111 6.35503 0.465111 4.91035C0.465111 3.49642 0.813949 2.28228 1.51162 1.26793L3.95348 2.74334C3.55038 3.41957 3.34883 4.11117 3.34883 4.81814C3.34883 5.61732 3.67441 6.2705 4.32558 6.77767C4.97674 7.28484 5.92247 7.59222 7.16278 7.6998C6.32557 6.80841 5.90697 5.74796 5.90697 4.51845ZM14.093 5.83248C14.093 5.24847 13.845 4.81814 13.3488 4.5415C12.8372 4.24949 12.1318 4.10349 11.2326 4.10349C10.3023 4.10349 9.65116 4.23412 9.27906 4.49539C8.89147 4.75666 8.69767 5.17931 8.69767 5.76332C8.69767 6.08607 8.78294 6.4165 8.95348 6.75462C9.10852 7.09273 9.34108 7.40779 9.65116 7.6998C10.7519 7.6998 11.6279 7.64601 12.2791 7.53843C12.9147 7.41548 13.3798 7.22337 13.6744 6.9621C13.9535 6.68546 14.093 6.30892 14.093 5.83248Z" fill="#3C4A56" fill-opacity="0.2"/>
</svg>
