<svg width="20" height="15" viewBox="0 0 20 15" fill="none" xmlns="http://www.w3.org/2000/svg">
<path d="M13.4678 0.211471C13.402 0.144509 13.3236 0.0913195 13.2371 0.0550103C13.1505 0.0187011 13.0577 0 12.9638 0C12.87 0 12.7771 0.0187011 12.6905 0.0550103C12.604 0.0913195 12.5256 0.144509 12.4598 0.211471C12.3289 0.344525 12.2556 0.523703 12.2556 0.71036C12.2556 0.897016 12.3289 1.07619 12.4598 1.20925L17.5707 6.32008H0.705631C0.612796 6.31966 0.520799 6.33764 0.434957 6.37299C0.349116 6.40834 0.271133 6.46036 0.205518 6.52604C0.139903 6.59171 0.0879565 6.66974 0.0526823 6.75561C0.0174081 6.84149 -0.000494208 6.9335 1.03767e-05 7.02633C1.03767e-05 7.41947 0.31249 7.74212 0.705631 7.74212H17.5707L12.4598 12.8434C12.1874 13.1254 12.1874 13.5795 12.4598 13.8514C12.5256 13.9183 12.604 13.9715 12.6905 14.0078C12.7771 14.0441 12.87 14.0628 12.9638 14.0628C13.0577 14.0628 13.1505 14.0441 13.2371 14.0078C13.3236 13.9715 13.402 13.9183 13.4678 13.8514L19.7885 7.53062C19.8554 7.46589 19.9086 7.38837 19.9449 7.30266C19.9813 7.21696 20 7.12482 20 7.03173C20 6.93864 19.9813 6.84651 19.9449 6.7608C19.9086 6.6751 19.8554 6.59757 19.7885 6.53284L13.4678 0.211471Z" fill="#D99E63"/>
</svg>
