<svg width="20" height="15" viewBox="0 0 20 15" fill="none" xmlns="http://www.w3.org/2000/svg">
<path d="M6.53222 13.8514C6.59796 13.9183 6.67639 13.9715 6.76292 14.0078C6.84945 14.0441 6.94235 14.0628 7.03619 14.0628C7.13003 14.0628 7.22293 14.0441 7.30946 14.0078C7.39599 13.9715 7.47442 13.9183 7.54016 13.8514C7.67107 13.7183 7.74444 13.5391 7.74444 13.3525C7.74444 13.1658 7.67107 12.9866 7.54016 12.8536L2.42933 7.74276L19.2944 7.74276C19.3872 7.74318 19.4792 7.72519 19.565 7.68984C19.6509 7.65449 19.7289 7.60247 19.7945 7.5368C19.8601 7.47113 19.912 7.3931 19.9473 7.30722C19.9826 7.22135 20.0005 7.12934 20 7.0365C20 6.64336 19.6875 6.32072 19.2944 6.32072L2.42933 6.32072L7.54016 1.21942C7.81263 0.937422 7.81263 0.483311 7.54016 0.211479C7.47442 0.144517 7.39599 0.0913262 7.30946 0.0550169C7.22293 0.0187077 7.13003 7.286e-06 7.03619 7.286e-06C6.94235 7.286e-06 6.84945 0.0187077 6.76292 0.0550169C6.67639 0.0913262 6.59796 0.144517 6.53222 0.211479L0.211484 6.53222C0.144585 6.59694 0.0913877 6.67447 0.0550571 6.76017C0.0187264 6.84588 3.78934e-06 6.93802 3.78934e-06 7.0311C3.78934e-06 7.12419 0.0187264 7.21633 0.0550571 7.30203C0.0913877 7.38774 0.144585 7.46526 0.211484 7.52999L6.53222 13.8514Z" fill="white"/>
</svg>
