<svg width="20" height="15" viewBox="0 0 20 15" fill="none" xmlns="http://www.w3.org/2000/svg">
<path d="M6.53222 13.8515C6.59796 13.9185 6.67639 13.9717 6.76292 14.008C6.84945 14.0443 6.94235 14.063 7.03619 14.063C7.13003 14.063 7.22293 14.0443 7.30946 14.008C7.39599 13.9717 7.47442 13.9185 7.54016 13.8515C7.67107 13.7185 7.74443 13.5393 7.74443 13.3526C7.74443 13.166 7.67107 12.9868 7.54016 12.8537L2.42933 7.74291L19.2944 7.74291C19.3872 7.74333 19.4792 7.72535 19.565 7.69C19.6509 7.65464 19.7289 7.60263 19.7945 7.53695C19.8601 7.47128 19.912 7.39325 19.9473 7.30738C19.9826 7.2215 20.0005 7.12949 20 7.03665C20 6.64351 19.6875 6.32087 19.2944 6.32087L2.42933 6.32087L7.54016 1.21957C7.81263 0.937573 7.81263 0.483462 7.54016 0.21163C7.47442 0.144668 7.39599 0.0914771 7.30946 0.0551679C7.22293 0.0188586 7.13003 0.000158197 7.03619 0.000158197C6.94235 0.000158197 6.84945 0.0188586 6.76292 0.0551679C6.67639 0.0914771 6.59796 0.144668 6.53222 0.21163L0.211482 6.53237C0.144583 6.5971 0.0913854 6.67462 0.0550547 6.76032C0.018724 6.84603 1.40515e-06 6.93817 1.40515e-06 7.03126C1.40515e-06 7.12434 0.018724 7.21648 0.0550547 7.30219C0.0913854 7.38789 0.144583 7.46541 0.211482 7.53014L6.53222 13.8515Z" fill="#D99E63"/>
</svg>
