<svg width="53" height="49" viewBox="0 0 53 49" fill="none" xmlns="http://www.w3.org/2000/svg">
<path d="M0.682396 48.7078C0.479953 48.6251 0.306819 48.4837 0.185238 48.302C0.0636569 48.1202 -0.00084003 47.9062 8.26146e-06 47.6875V12.3542C0.00146984 10.8904 0.583613 9.48706 1.61865 8.45202C2.65369 7.41698 4.05707 6.83484 5.52084 6.83337H6.62501V5.72921C6.62647 4.26544 7.20861 2.86206 8.24365 1.82702C9.27869 0.791978 10.6821 0.209836 12.1458 0.208374H47.4792C48.9429 0.209836 50.3463 0.791978 51.3814 1.82702C52.4164 2.86206 52.9985 4.26544 53 5.72921V30.0209C52.9985 31.4846 52.4164 32.888 51.3814 33.9231C50.3463 34.9581 48.9429 35.5402 47.4792 35.5417H46.375V36.6459C46.3735 38.1096 45.7914 39.513 44.7564 40.5481C43.7213 41.5831 42.3179 42.1652 40.8542 42.1667H8.1863L1.88482 48.4682C1.78253 48.571 1.66089 48.6525 1.5269 48.7081C1.3929 48.7636 1.24922 48.792 1.10417 48.7917C0.959382 48.7922 0.815971 48.7637 0.682396 48.7078ZM2.20834 12.3542V45.0221L6.94853 40.283C7.05095 40.1803 7.17261 40.0987 7.30655 40.043C7.4405 39.9873 7.58411 39.9585 7.72917 39.9584H40.8542C41.7327 39.9584 42.5752 39.6094 43.1964 38.9881C43.8177 38.3669 44.1667 37.5244 44.1667 36.6459V12.3542C44.1667 11.4757 43.8177 10.6331 43.1964 10.0119C42.5752 9.39072 41.7327 9.04171 40.8542 9.04171H5.52084C4.64231 9.04171 3.79978 9.39072 3.17856 10.0119C2.55735 10.6331 2.20834 11.4757 2.20834 12.3542ZM7.72917 5.72921V6.83337H40.8542C42.3179 6.83484 43.7213 7.41698 44.7564 8.45202C45.7914 9.48706 46.3735 10.8904 46.375 12.3542V34.4375H47.4792C48.6505 34.4375 49.7739 33.9722 50.6022 33.1439C51.4305 32.3156 51.8958 31.1922 51.8958 30.0209V5.72921C51.8958 4.55783 51.4305 3.43443 50.6022 2.60615C49.7739 1.77786 48.6505 1.31254 47.4792 1.31254H12.1458C10.9745 1.31254 9.85107 1.77786 9.02278 2.60615C8.1945 3.43443 7.72917 4.55783 7.72917 5.72921ZM12.1458 28.9167C11.853 28.9167 11.5722 28.8004 11.3651 28.5933C11.158 28.3862 11.0417 28.1054 11.0417 27.8125C11.0417 27.5197 11.158 27.2389 11.3651 27.0318C11.5722 26.8247 11.853 26.7084 12.1458 26.7084H34.2292C34.522 26.7084 34.8028 26.8247 35.0099 27.0318C35.217 27.2389 35.3333 27.5197 35.3333 27.8125C35.3333 28.1054 35.217 28.3862 35.0099 28.5933C34.8028 28.8004 34.522 28.9167 34.2292 28.9167H12.1458ZM12.1458 22.2917C11.853 22.2917 11.5722 22.1754 11.3651 21.9683C11.158 21.7612 11.0417 21.4804 11.0417 21.1875C11.0417 20.8947 11.158 20.6139 11.3651 20.4068C11.5722 20.1997 11.853 20.0834 12.1458 20.0834H34.2292C34.522 20.0834 34.8028 20.1997 35.0099 20.4068C35.217 20.6139 35.3333 20.8947 35.3333 21.1875C35.3333 21.4804 35.217 21.7612 35.0099 21.9683C34.8028 22.1754 34.522 22.2917 34.2292 22.2917H12.1458Z" fill="white"/>
</svg>
