<svg width="17" height="17" viewBox="0 0 17 17" fill="none" xmlns="http://www.w3.org/2000/svg">
<path d="M2.125 5.6665C2.125 5.00642 2.125 4.67638 2.23284 4.41603C2.37662 4.06891 2.65241 3.79313 2.99953 3.64934C3.25988 3.5415 3.58992 3.5415 4.25 3.5415H12.75C13.4101 3.5415 13.7401 3.5415 14.0005 3.64934C14.3476 3.79313 14.6234 4.06891 14.7672 4.41603C14.875 4.67638 14.875 5.00642 14.875 5.6665V11.3332C14.875 11.9933 14.875 12.3233 14.7672 12.5837C14.6234 12.9307 14.3476 13.2066 14.0005 13.3504C13.7401 13.4582 13.4101 13.4582 12.75 13.4582H4.25C3.58992 13.4582 3.25988 13.4582 2.99953 13.3504C2.65241 13.2066 2.37662 12.9307 2.23284 12.5837C2.125 12.3233 2.125 11.9933 2.125 11.3332V5.6665Z" stroke="#D99E63" stroke-width="1.5" stroke-linejoin="round"/>
<path d="M2.83331 4.25L7.5671 8.39205C8.10119 8.85941 8.89877 8.85941 9.43285 8.39205L14.1666 4.25" stroke="#D99E63" stroke-width="1.5" stroke-linecap="round" stroke-linejoin="round"/>
</svg>
