<svg width="16" height="16" viewBox="0 0 16 16" fill="none" xmlns="http://www.w3.org/2000/svg">
<g clip-path="url(#clip0_61_12)">
<path fill-rule="evenodd" clip-rule="evenodd" d="M11.4201 6.73917L11.1883 8.4313H8.40387V14.3537H6.71174V8.4313H4.17354V6.73917H6.71174V5.18833C6.71174 3.0368 8.03329 1.64586 10.0799 1.64586C10.9564 1.64586 11.503 1.6924 11.8186 1.7347L11.794 3.33715L10.4928 3.33969C10.4573 3.3363 9.60951 3.27031 8.9978 3.8321C8.60354 4.19337 8.40387 4.71285 8.40387 5.37448V6.73918H11.4201V6.73917ZM9.56551 4.45903C9.89886 4.14852 10.4183 4.18237 10.4564 4.18406L12.6274 4.18321L12.6739 1.05193L12.3474 0.971555C12.1375 0.919955 11.4954 0.799805 10.0799 0.799805C7.55949 0.799805 5.86567 2.56385 5.86567 5.18833V5.89311H3.32748V9.27736H5.86567V15.1998H9.24993V9.27736H11.9252L12.3897 5.89311H9.24993V5.37447C9.24993 4.96244 9.35653 4.65447 9.56551 4.45903Z" fill="white"/>
</g>
<defs>
<clipPath id="clip0_61_12">
<rect width="14.4" height="14.4" fill="white" transform="translate(0.799988 0.799805)"/>
</clipPath>
</defs>
</svg>
