<svg width="349" height="740" viewBox="0 0 349 740" fill="none" xmlns="http://www.w3.org/2000/svg">
<g clip-path="url(#clip0_75_12222)">
<path d="M111.442 293.998L117.421 283.651L123.401 293.998L111.442 293.998Z" fill="#EEF3F5"/>
<path d="M117.421 325.556L110.373 313.371L124.463 313.371L117.421 325.556Z" fill="#EEF3F5"/>
<path d="M134.918 334.22L140.728 324.18L146.529 334.22L134.918 334.22Z" fill="#EEF3F5"/>
<path d="M164.034 321.729L160.305 315.286L167.754 315.286L164.034 321.729Z" fill="#EEF3F5"/>
<path d="M161.034 292.282L164.034 287.093L167.028 292.282L161.034 292.282Z" fill="#EEF3F5"/>
<path d="M140.728 281.441L136.969 274.945L144.48 274.945L140.728 281.441Z" fill="#EEF3F5"/>
<path d="M94.1146 285.605L86.7478 272.863L101.476 272.863L94.1146 285.605Z" fill="#EEF3F5"/>
<path d="M84.9888 336.137L94.1147 320.347L103.241 336.137L84.9888 336.137Z" fill="#EEF3F5"/>
<path d="M140.728 365.757L133.788 353.755L147.664 353.755L140.728 365.757Z" fill="#EEF3F5"/>
<path d="M184.223 332.667L187.337 327.285L190.449 332.667L184.223 332.667Z" fill="#EEF3F5"/>
<path d="M187.337 279.731L185.066 275.801L189.609 275.801L187.337 279.731Z" fill="#EEF3F5"/>
<path d="M137.716 251.965L140.728 246.758L143.733 251.965L137.716 251.965Z" fill="#EEF3F5"/>
<path d="M61.2668 296.054L70.8082 279.544L80.3497 296.054L61.2668 296.054Z" fill="#EEF3F5"/>
<path d="M70.8082 329.077L60.7135 311.614L80.9029 311.614L70.8082 329.077Z" fill="#EEF3F5"/>
<path d="M94.1146 369.084L84.2921 352.092L103.934 352.092L94.1146 369.084Z" fill="#EEF3F5"/>
<path d="M108.418 376.387L117.421 360.816L126.418 376.387L108.418 376.387Z" fill="#EEF3F5"/>
<path d="M158.236 374.537L164.034 364.515L169.823 374.537L158.236 374.537Z" fill="#EEF3F5"/>
<path d="M187.337 362.205L183.48 355.53L191.192 355.53L187.337 362.205Z" fill="#EEF3F5"/>
<path d="M210.641 320.241L208.209 316.028L213.076 316.028L210.641 320.241Z" fill="#EEF3F5"/>
<path d="M208.352 291.873L210.641 287.908L212.933 291.873L208.352 291.873Z" fill="#EEF3F5"/>
<path d="M185.23 251.444L187.337 247.798L189.442 251.444L185.23 251.444Z" fill="#EEF3F5"/>
<path d="M164.034 239.218L161.924 235.572L166.135 235.572L164.034 239.218Z" fill="#EEF3F5"/>
<path d="M117.421 241.431L113.397 234.466L121.445 234.466L117.421 241.431Z" fill="#EEF3F5"/>
<path d="M87.6698 253.944L94.1147 242.793L100.557 253.944L87.6698 253.944Z" fill="#EEF3F5"/>
<path d="M36.8451 256.371L47.5018 237.94L58.1584 256.371L36.8451 256.371Z" fill="#EEF3F5"/>
<path d="M47.5018 289.789L36.5086 270.77L58.495 270.77L47.5018 289.789Z" fill="#EEF3F5"/>
<path d="M35.6978 337.681L47.5018 317.259L59.3057 337.681L35.6978 337.681Z" fill="#EEF3F5"/>
<path d="M47.5018 371.707L35.4081 350.779L59.5984 350.779L47.5018 371.707Z" fill="#EEF3F5"/>
<path d="M59.8736 377.505L70.8083 358.585L81.743 377.505L59.8736 377.505Z" fill="#EEF3F5"/>
<path d="M117.421 409.15L107.821 392.544L127.018 392.544L117.421 409.15Z" fill="#EEF3F5"/>
<path d="M131.733 416.705L140.728 401.151L149.716 416.705L131.733 416.705Z" fill="#EEF3F5"/>
<path d="M164.034 406.101L157.077 394.067L170.988 394.067L164.034 406.101Z" fill="#EEF3F5"/>
<path d="M207.345 373.096L210.641 367.397L213.937 373.096L207.345 373.096Z" fill="#EEF3F5"/>
<path d="M233.947 360.831L231.281 356.22L236.614 356.22L233.947 360.831Z" fill="#EEF3F5"/>
<path d="M231.448 332.319L233.947 327.989L236.45 332.319L231.448 332.319Z" fill="#EEF3F5"/>
<path d="M233.947 279.748L231.659 275.79L236.236 275.79L233.947 279.748Z" fill="#EEF3F5"/>
<path d="M231.822 251.456L233.947 247.775L236.075 251.456L231.822 251.456Z" fill="#EEF3F5"/>
<path d="M210.641 239.241L208.519 235.56L212.769 235.56L210.641 239.241Z" fill="#EEF3F5"/>
<path d="M162.184 210.969L164.034 207.773L165.878 210.969L162.184 210.969Z" fill="#EEF3F5"/>
<path d="M140.728 198.797L138.702 195.298L142.75 195.298L140.728 198.797Z" fill="#EEF3F5"/>
<path d="M114.184 211.77L117.421 206.174L120.649 211.77L114.184 211.77Z" fill="#EEF3F5"/>
<path d="M70.8083 246.041L62.7858 232.16L78.8337 232.16L70.8083 246.041Z" fill="#EEF3F5"/>
<path d="M24.1954 251.719L11.2528 229.321L37.1407 229.321L24.1954 251.719Z" fill="#EEF3F5"/>
<path d="M11.0889 298.112L24.1953 275.433L37.3046 298.112L11.0889 298.112Z" fill="#EEF3F5"/>
<path d="M24.1954 332.743L10.925 309.78L37.4686 309.78L24.1954 332.743Z" fill="#EEF3F5"/>
<path d="M10.6646 379.001L24.1953 355.591L37.7261 379.001L10.6646 379.001Z" fill="#EEF3F5"/>
<path d="M70.8083 411.048L59.5633 391.594L82.0532 391.594L70.8083 411.048Z" fill="#EEF3F5"/>
<path d="M83.5956 417.585L94.1146 399.388L104.634 417.585L83.5956 417.585Z" fill="#EEF3F5"/>
<path d="M140.728 449.573L131.04 432.817L150.41 432.817L140.728 449.573Z" fill="#EEF3F5"/>
<path d="M181.428 414.928L187.337 404.704L193.247 414.928L181.428 414.928Z" fill="#EEF3F5"/>
<path d="M210.641 402.715L206.619 395.76L214.662 395.76L210.641 402.715Z" fill="#EEF3F5"/>
<path d="M254.473 372.8L257.254 367.991L260.034 372.8L254.473 372.8Z" fill="#EEF3F5"/>
<path d="M257.254 320.452L254.64 315.926L259.87 315.926L257.254 320.452Z" fill="#EEF3F5"/>
<path d="M254.798 291.966L257.254 287.721L259.707 291.966L254.798 291.966Z" fill="#EEF3F5"/>
<path d="M257.254 239.428L254.965 235.466L259.543 235.466L257.254 239.428Z" fill="#EEF3F5"/>
<path d="M208.677 211.039L210.641 207.639L212.605 211.039L208.677 211.039Z" fill="#EEF3F5"/>
<path d="M187.337 198.538L185.537 195.427L189.137 195.427L187.337 198.538Z" fill="#EEF3F5"/>
<path d="M138.942 170.607L140.728 167.529L142.504 170.607L138.942 170.607Z" fill="#EEF3F5"/>
<path d="M94.1147 201.844L89.4493 193.775L98.7801 193.775L94.1147 201.844Z" fill="#EEF3F5"/>
<path d="M63.5761 214.077L70.8083 201.563L78.0405 214.077L63.5761 214.077Z" fill="#EEF3F5"/>
<path d="M-14.0233 258.829L0.888977 233.025L15.8041 258.829L-14.0233 258.829Z" fill="#EEF3F5"/>
<path d="M0.888955 294.089L-13.8301 268.621L15.611 268.621L0.888955 294.089Z" fill="#EEF3F5"/>
<path d="M-13.7979 339.348L0.888955 313.929L15.5817 339.348L-13.7979 339.348Z" fill="#EEF3F5"/>
<path d="M0.888892 374.555L-13.6722 349.358L15.4557 349.358L0.888892 374.555Z" fill="#EEF3F5"/>
<path d="M24.1954 413.518L10.8109 390.357L37.5827 390.357L24.1954 413.518Z" fill="#EEF3F5"/>
<path d="M35.133 418.655L47.5019 397.251L59.8765 418.655L35.133 418.655Z" fill="#EEF3F5"/>
<path d="M94.1146 450.892L83.2883 432.157L104.941 432.157L94.1146 450.892Z" fill="#EEF3F5"/>
<path d="M107.124 457.78L117.421 439.966L127.715 457.78L107.124 457.78Z" fill="#EEF3F5"/>
<path d="M155.022 457.037L164.034 441.451L173.043 457.037L155.022 457.037Z" fill="#EEF3F5"/>
<path d="M187.337 446.693L180.146 434.256L194.526 434.256L187.337 446.693Z" fill="#EEF3F5"/>
<path d="M230.441 413.542L233.947 407.475L237.454 413.542L230.441 413.542Z" fill="#EEF3F5"/>
<path d="M257.254 401.452L254.33 396.392L260.178 396.392L257.254 401.452Z" fill="#EEF3F5"/>
<path d="M280.557 360.965L277.78 356.153L283.341 356.153L280.557 360.965Z" fill="#EEF3F5"/>
<path d="M277.78 332.48L280.557 327.667L283.341 332.48L277.78 332.48Z" fill="#EEF3F5"/>
<path d="M280.557 279.941L278.105 275.696L283.013 275.696L280.557 279.941Z" fill="#EEF3F5"/>
<path d="M278.105 251.643L280.557 247.398L283.013 251.643L278.105 251.643Z" fill="#EEF3F5"/>
<path d="M255.129 211.133L257.254 207.452L259.379 211.133L255.129 211.133Z" fill="#EEF3F5"/>
<path d="M233.947 198.727L231.983 195.33L235.911 195.33L233.947 198.727Z" fill="#EEF3F5"/>
<path d="M185.537 170.619L187.337 167.508L189.137 170.619L185.537 170.619Z" fill="#EEF3F5"/>
<path d="M164.034 158.03L162.398 155.197L165.667 155.197L164.034 158.03Z" fill="#EEF3F5"/>
<path d="M117.421 158.62L115.27 154.901L119.569 154.901L117.421 158.62Z" fill="#EEF3F5"/>
<path d="M90.2219 171.824L94.1146 165.093L98.0073 171.824L90.2219 171.824Z" fill="#EEF3F5"/>
<path d="M47.5018 207.873L37.612 190.76L57.3916 190.76L47.5018 207.873Z" fill="#EEF3F5"/>
<path d="M11.2704 217.36L24.1954 194.997L37.1203 217.36L11.2704 217.36Z" fill="#EEF3F5"/>
<path d="M-12.5599 419.278L0.88894 396.002L14.3436 419.278L-12.5599 419.278Z" fill="#EEF3F5"/>
<path d="M47.5018 452.728L35.0862 431.239L59.9204 431.239L47.5018 452.728Z" fill="#EEF3F5"/>
<path d="M59.2092 458.534L70.8082 438.466L82.4073 458.534L59.2092 458.534Z" fill="#EEF3F5"/>
<path d="M117.421 490.958L106.817 472.609L128.025 472.609L117.421 490.958Z" fill="#EEF3F5"/>
<path d="M130.346 498.156L140.728 480.19L151.109 498.156L130.346 498.156Z" fill="#EEF3F5"/>
<path d="M164.034 489.809L154.422 473.185L173.643 473.185L164.034 489.809Z" fill="#EEF3F5"/>
<path d="M204.524 455.374L210.641 444.784L216.764 455.374L204.524 455.374Z" fill="#EEF3F5"/>
<path d="M233.947 443.308L229.698 435.949L238.197 435.949L233.947 443.308Z" fill="#EEF3F5"/>
<path d="M277.47 413.302L280.557 407.958L283.651 413.302L277.47 413.302Z" fill="#EEF3F5"/>
<path d="M303.864 401.666L300.758 396.286L306.972 396.286L303.864 401.666Z" fill="#EEF3F5"/>
<path d="M300.919 372.897L303.864 367.804L306.808 372.897L300.919 372.897Z" fill="#EEF3F5"/>
<path d="M303.864 320.642L301.086 315.83L306.647 315.83L303.864 320.642Z" fill="#EEF3F5"/>
<path d="M301.247 292.06L303.864 287.534L306.48 292.06L301.247 292.06Z" fill="#EEF3F5"/>
<path d="M303.864 239.618L301.411 235.373L306.319 235.373L303.864 239.618Z" fill="#EEF3F5"/>
<path d="M301.578 211.226L303.864 207.262L306.156 211.226L301.578 211.226Z" fill="#EEF3F5"/>
<path d="M280.557 198.917L278.432 195.236L282.685 195.236L280.557 198.917Z" fill="#EEF3F5"/>
<path d="M231.983 170.716L233.947 167.318L235.911 170.716L231.983 170.716Z" fill="#EEF3F5"/>
<path d="M210.641 158.217L208.844 155.103L212.441 155.103L210.641 158.217Z" fill="#EEF3F5"/>
<path d="M162.398 130.202L164.034 127.372L165.667 130.202L162.398 130.202Z" fill="#EEF3F5"/>
<path d="M140.728 117.514L139.252 114.97L142.197 114.97L140.728 117.514Z" fill="#EEF3F5"/>
<path d="M115.609 130.302L117.421 127.17L119.233 130.302L115.609 130.302Z" fill="#EEF3F5"/>
<path d="M70.8082 162.898L64.9516 152.764L76.6649 152.764L70.8082 162.898Z" fill="#EEF3F5"/>
<path d="M38.0012 175.063L47.5018 158.62L57.0052 175.063L38.0012 175.063Z" fill="#EEF3F5"/>
<path d="M0.888996 214.349L-14.6145 187.524L16.3983 187.524L0.888996 214.349Z" fill="#EEF3F5"/>
<path d="M0.888957 452.912L-11.6906 431.148L13.4714 431.148L0.888957 452.912Z" fill="#EEF3F5"/>
<path d="M11.5163 459.157L24.1954 437.221L36.8744 459.157L11.5163 459.157Z" fill="#EEF3F5"/>
<path d="M70.8082 492.458L58.9019 471.857L82.7146 471.857L70.8082 492.458Z" fill="#EEF3F5"/>
<path d="M82.5917 498.811L94.1147 478.877L105.632 498.811L82.5917 498.811Z" fill="#EEF3F5"/>
<path d="M140.728 531.527L129.91 512.81L151.542 512.81L140.728 531.527Z" fill="#EEF3F5"/>
<path d="M178.244 497.413L187.337 481.675L196.434 497.413L178.244 497.413Z" fill="#EEF3F5"/>
<path d="M210.641 487.259L203.242 474.457L218.043 474.457L210.641 487.259Z" fill="#EEF3F5"/>
<path d="M253.423 454.055L257.254 447.421L261.088 454.055L253.423 454.055Z" fill="#EEF3F5"/>
<path d="M280.557 442.153L277.309 436.528L283.809 436.528L280.557 442.153Z" fill="#EEF3F5"/>
<path d="M323.901 413.407L327.17 407.747L330.442 413.407L323.901 413.407Z" fill="#EEF3F5"/>
<path d="M327.17 361.149L324.226 356.056L330.115 356.056L327.17 361.149Z" fill="#EEF3F5"/>
<path d="M324.226 332.571L327.17 327.478L330.115 332.571L324.226 332.571Z" fill="#EEF3F5"/>
<path d="M327.17 280.125L324.554 275.603L329.787 275.603L327.17 280.125Z" fill="#EEF3F5"/>
<path d="M324.554 251.737L327.17 247.211L329.787 251.737L324.554 251.737Z" fill="#EEF3F5"/>
<path d="M327.17 199.105L324.884 195.143L329.462 195.143L327.17 199.105Z" fill="#EEF3F5"/>
<path d="M278.432 170.809L280.557 167.131L282.685 170.809L278.432 170.809Z" fill="#EEF3F5"/>
<path d="M257.254 158.407L255.29 155.007L259.218 155.007L257.254 158.407Z" fill="#EEF3F5"/>
<path d="M209.008 130.202L210.641 127.372L212.28 130.202L209.008 130.202Z" fill="#EEF3F5"/>
<path d="M187.337 117.706L185.704 114.876L188.974 114.876L187.337 117.706Z" fill="#EEF3F5"/>
<path d="M139.416 89.6916L140.727 87.4258L142.036 89.6916L139.416 89.6916Z" fill="#EEF3F5"/>
<path d="M94.1146 119.224L91.1585 114.116L97.0678 114.116L94.1146 119.224Z" fill="#EEF3F5"/>
<path d="M65.3408 132.412L70.8082 122.951L76.2784 132.412L65.3408 132.412Z" fill="#EEF3F5"/>
<path d="M24.1954 171.306L11.048 148.557L37.3427 148.557L24.1954 171.306Z" fill="#EEF3F5"/>
<path d="M-15.2409 178.885L0.888948 150.972L17.0275 178.885L-15.2409 178.885Z" fill="#EEF3F5"/>
<path d="M24.1953 492.624L12.1455 471.775L36.2451 471.775L24.1953 492.624Z" fill="#EEF3F5"/>
<path d="M35.2559 499.229L47.5018 478.044L59.7477 499.229L35.2559 499.229Z" fill="#EEF3F5"/>
<path d="M94.1146 533.027L81.9946 512.058L106.232 512.058L94.1146 533.027Z" fill="#EEF3F5"/>
<path d="M105.348 539.453L117.421 518.563L129.494 539.453L105.348 539.453Z" fill="#EEF3F5"/>
<path d="M153.582 538.515L164.034 520.437L174.483 538.515L153.582 538.515Z" fill="#EEF3F5"/>
<path d="M187.337 530.153L177.708 513.497L196.964 513.497L187.337 530.153Z" fill="#EEF3F5"/>
<path d="M227.497 495.884L233.947 484.728L240.398 495.884L227.497 495.884Z" fill="#EEF3F5"/>
<path d="M257.254 483.985L252.697 476.097L261.814 476.097L257.254 483.985Z" fill="#EEF3F5"/>
<path d="M300.594 453.731L303.864 448.07L307.136 453.731L300.594 453.731Z" fill="#EEF3F5"/>
<path d="M327.17 442.173L323.901 436.516L330.442 436.516L327.17 442.173Z" fill="#EEF3F5"/>
<path d="M350.477 401.853L347.207 396.196L353.746 396.196L350.477 401.853Z" fill="#EEF3F5"/>
<path d="M347.368 372.987L350.477 367.614L353.585 372.987L347.368 372.987Z" fill="#EEF3F5"/>
<path d="M350.477 320.829L347.532 315.736L353.421 315.736L350.477 320.829Z" fill="#EEF3F5"/>
<path d="M347.696 292.157L350.477 287.344L353.257 292.157L347.696 292.157Z" fill="#EEF3F5"/>
<path d="M350.477 239.805L347.857 235.279L353.093 235.279L350.477 239.805Z" fill="#EEF3F5"/>
<path d="M348.024 211.32L350.477 207.075L352.929 211.32L348.024 211.32Z" fill="#EEF3F5"/>
<path d="M324.884 170.903L327.17 166.941L329.462 170.903L324.884 170.903Z" fill="#EEF3F5"/>
<path d="M303.864 158.594L301.736 154.916L305.989 154.916L303.864 158.594Z" fill="#EEF3F5"/>
<path d="M255.457 130.296L257.254 127.185L259.051 130.296L255.457 130.296Z" fill="#EEF3F5"/>
<path d="M233.947 117.894L232.15 114.78L235.744 114.78L233.947 117.894Z" fill="#EEF3F5"/>
<path d="M185.865 89.7853L187.337 87.2388L188.807 89.7853L185.865 89.7853Z" fill="#EEF3F5"/>
<path d="M164.034 77.193L162.559 74.6465L165.5 74.6465L164.034 77.193Z" fill="#EEF3F5"/>
<path d="M117.421 77.3977L115.773 74.5442L119.066 74.5442L117.421 77.3977Z" fill="#EEF3F5"/>
<path d="M91.179 90.6302L94.1146 85.5518L97.0473 90.6302L91.179 90.6302Z" fill="#EEF3F5"/>
<path d="M47.5018 126.589L38.1681 110.432L56.8384 110.432L47.5018 126.589Z" fill="#EEF3F5"/>
<path d="M10.6324 137.085L24.1954 113.613L37.7613 137.085L10.6324 137.085Z" fill="#EEF3F5"/>
<path d="M-9.85261 498.364L0.88894 479.775L11.6363 498.364L-9.85261 498.364Z" fill="#EEF3F5"/>
<path d="M47.5018 532.778L35.5983 512.181L59.4081 512.181L47.5018 532.778Z" fill="#EEF3F5"/>
<path d="M58.4481 539.617L70.8082 518.233L83.1683 539.617L58.4481 539.617Z" fill="#EEF3F5"/>
<path d="M117.421 574.376L104.408 551.87L130.431 551.87L117.421 574.376Z" fill="#EEF3F5"/>
<path d="M127.794 580.273L140.728 557.896L153.658 580.273L127.794 580.273Z" fill="#EEF3F5"/>
<path d="M164.034 572.283L152.839 552.917L175.226 552.917L164.034 572.283Z" fill="#EEF3F5"/>
<path d="M201.72 537.634L210.641 522.2L219.562 537.634L201.72 537.634Z" fill="#EEF3F5"/>
<path d="M233.947 527.571L226.56 514.786L241.338 514.786L233.947 527.571Z" fill="#EEF3F5"/>
<path d="M276.492 494.513L280.557 487.476L284.626 494.513L276.492 494.513Z" fill="#EEF3F5"/>
<path d="M303.864 482.853L300.284 476.661L307.446 476.661L303.864 482.853Z" fill="#EEF3F5"/>
<path d="M346.926 453.892L350.477 447.749L354.027 453.892L346.926 453.892Z" fill="#EEF3F5"/>
<path d="M350.477 158.781L348.185 154.82L352.768 154.82L350.477 158.781Z" fill="#EEF3F5"/>
<path d="M301.903 130.392L303.864 126.995L305.831 130.392L301.903 130.392Z" fill="#EEF3F5"/>
<path d="M280.557 117.894L278.763 114.78L282.357 114.78L280.557 117.894Z" fill="#EEF3F5"/>
<path d="M232.314 89.879L233.947 87.0488L235.586 89.879L232.314 89.879Z" fill="#EEF3F5"/>
<path d="M210.641 77.193L209.169 74.6465L212.113 74.6465L210.641 77.193Z" fill="#EEF3F5"/>
<path d="M162.673 49.3946L164.034 47.0498L165.386 49.3946L162.673 49.3946Z" fill="#EEF3F5"/>
<path d="M140.728 37.2176L138.951 34.1506L142.498 34.1506L140.728 37.2176Z" fill="#EEF3F5"/>
<path d="M115.258 49.8595L117.421 46.1201L119.581 49.8595L115.258 49.8595Z" fill="#EEF3F5"/>
<path d="M70.8082 82.4498L64.776 72.0181L76.8405 72.0181L70.8082 82.4498Z" fill="#EEF3F5"/>
<path d="M37.6032 94.6445L47.5018 77.5205L57.4033 94.6445L37.6032 94.6445Z" fill="#EEF3F5"/>
<path d="M0.888928 135.944L-16.558 105.754L18.3417 105.754L0.888928 135.944Z" fill="#EEF3F5"/>
<path d="M0.888928 530.682L-9.19406 513.233L10.9777 513.233L0.888928 530.682Z" fill="#EEF3F5"/>
<path d="M13.4304 538.696L24.1954 520.078L34.9603 538.696L13.4304 538.696Z" fill="#EEF3F5"/>
<path d="M70.8082 573.628L58.4481 552.244L83.1683 552.244L70.8082 573.628Z" fill="#EEF3F5"/>
<path d="M81.0082 580.37L94.1146 557.697L107.218 580.37L81.0082 580.37Z" fill="#EEF3F5"/>
<path d="M140.727 615.892L126.682 591.597L154.768 591.597L140.727 615.892Z" fill="#EEF3F5"/>
<path d="M176.707 578.943L187.337 560.547L197.968 578.943L176.707 578.943Z" fill="#EEF3F5"/>
<path d="M210.641 570.131L201.316 553.992L219.969 553.992L210.641 570.131Z" fill="#EEF3F5"/>
<path d="M250.911 536.149L257.254 525.174L263.596 536.149L250.911 536.149Z" fill="#EEF3F5"/>
<path d="M280.557 524.519L275.819 516.315L285.302 516.315L280.557 524.519Z" fill="#EEF3F5"/>
<path d="M323.573 494.241L327.17 488.017L330.77 494.241L323.573 494.241Z" fill="#EEF3F5"/>
<path d="M350.477 482.877L346.88 476.649L354.074 476.649L350.477 482.877Z" fill="#EEF3F5"/>
<path d="M348.349 130.486L350.477 126.808L352.602 130.486L348.349 130.486Z" fill="#EEF3F5"/>
<path d="M327.17 118.084L325.209 114.686L329.134 114.686L327.17 118.084Z" fill="#EEF3F5"/>
<path d="M278.763 89.9724L280.557 86.8616L282.357 89.9724L278.763 89.9724Z" fill="#EEF3F5"/>
<path d="M257.254 77.3831L255.618 74.553L258.89 74.553L257.254 77.3831Z" fill="#EEF3F5"/>
<path d="M209.169 49.4618L210.641 46.9153L212.113 49.4618L209.169 49.4618Z" fill="#EEF3F5"/>
<path d="M187.337 36.6826L186.029 34.4167L188.646 34.4167L187.337 36.6826Z" fill="#EEF3F5"/>
<path d="M137.886 9.92497L140.728 5.01611L143.561 9.92497L137.886 9.92497Z" fill="#EEF3F5"/>
<path d="M94.1146 40.9013L89.1478 32.3086L99.0815 32.3086L94.1146 40.9013Z" fill="#EEF3F5"/>
<path d="M63.4238 52.8739L70.8082 40.0945L78.1926 52.8739L63.4238 52.8739Z" fill="#EEF3F5"/>
<path d="M24.1954 93.0131L9.00802 66.7351L39.3857 66.7351L24.1954 93.0131Z" fill="#EEF3F5"/>
<path d="M-17.1697 99.3516L0.888933 68.1062L18.9504 99.3516L-17.1697 99.3516Z" fill="#EEF3F5"/>
<path d="M24.1954 571.081L14.0421 553.516L34.3486 553.516L24.1954 571.081Z" fill="#EEF3F5"/>
<path d="M36.5759 579.115L47.5018 560.205L58.4306 579.115L36.5759 579.115Z" fill="#EEF3F5"/>
<path d="M94.1146 614.811L81.0082 592.135L107.218 592.135L94.1146 614.811Z" fill="#EEF3F5"/>
<path d="M103.279 621.29L117.421 596.827L131.561 621.29L103.279 621.29Z" fill="#EEF3F5"/>
<path d="M150.21 621.106L164.034 597.193L177.852 621.106L150.21 621.106Z" fill="#EEF3F5"/>
<path d="M187.337 613.182L175.642 592.947L199.03 592.947L187.337 613.182Z" fill="#EEF3F5"/>
<path d="M225.331 577.782L233.947 562.872L242.567 577.782L225.331 577.782Z" fill="#EEF3F5"/>
<path d="M257.254 567.582L250.136 555.267L264.372 555.267L257.254 567.582Z" fill="#EEF3F5"/>
<path d="M299.541 534.983L303.864 527.504L308.19 534.983L299.541 534.983Z" fill="#EEF3F5"/>
<path d="M327.17 523.443L323.359 516.85L330.984 516.85L327.17 523.443Z" fill="#EEF3F5"/>
<path d="M325.209 90.0689L327.17 86.6716L329.134 90.0689L325.209 90.0689Z" fill="#EEF3F5"/>
<path d="M303.864 77.5703L302.067 74.4595L305.664 74.4595L303.864 77.5703Z" fill="#EEF3F5"/>
<path d="M255.618 49.5555L257.254 46.7253L258.89 49.5555L255.618 49.5555Z" fill="#EEF3F5"/>
<path d="M233.947 36.8695L232.475 34.323L235.42 34.323L233.947 36.8695Z" fill="#EEF3F5"/>
<path d="M185.836 9.15603L187.337 6.55688L188.839 9.15603L185.836 9.15603Z" fill="#EEF3F5"/>
<path d="M117.421 1.17142L111.939 -8.31299L122.903 -8.31299L117.421 1.17142Z" fill="#EEF3F5"/>
<path d="M87.0844 12.3458L94.1147 0.18042L101.145 12.3458L87.0844 12.3458Z" fill="#EEF3F5"/>
<path d="M47.5018 49.8624L34.7671 27.8267L60.2394 27.8267L47.5018 49.8624Z" fill="#EEF3F5"/>
<path d="M7.86645 58.0313L24.1953 29.7739L40.5271 58.0313L7.86645 58.0313Z" fill="#EEF3F5"/>
<path d="M-8.24571 578.084L0.88897 562.272L10.0265 578.084L-8.24571 578.084Z" fill="#EEF3F5"/>
<path d="M47.5018 611.764L37.0412 593.661L57.9652 593.661L47.5018 611.764Z" fill="#EEF3F5"/>
<path d="M59.3291 619.755L70.8082 599.894L82.2872 619.755L59.3291 619.755Z" fill="#EEF3F5"/>
<path d="M117.421 656.239L103.358 631.908L131.482 631.908L117.421 656.239Z" fill="#EEF3F5"/>
<path d="M125.452 662.265L140.728 635.841L155.997 662.265L125.452 662.265Z" fill="#EEF3F5"/>
<path d="M164.034 657.488L148.885 631.283L179.174 631.283L164.034 657.488Z" fill="#EEF3F5"/>
<path d="M199.847 619.363L210.641 600.684L221.438 619.363L199.847 619.363Z" fill="#EEF3F5"/>
<path d="M233.947 610.27L224.778 594.406L243.117 594.406L233.947 610.27Z" fill="#EEF3F5"/>
<path d="M274.229 576.464L280.557 565.512L286.891 576.464L274.229 576.464Z" fill="#EEF3F5"/>
<path d="M303.864 565.05L298.941 556.53L308.793 556.53L303.864 565.05Z" fill="#EEF3F5"/>
<path d="M346.552 534.752L350.477 527.963L354.404 534.752L346.552 534.752Z" fill="#EEF3F5"/>
<path d="M350.477 77.7601L348.516 74.3628L352.441 74.3628L350.477 77.7601Z" fill="#EEF3F5"/>
<path d="M302.067 49.6491L303.864 46.5383L305.664 49.6491L302.067 49.6491Z" fill="#EEF3F5"/>
<path d="M280.557 37.0596L278.921 34.2295L282.196 34.2295L280.557 37.0596Z" fill="#EEF3F5"/>
<path d="M232.475 9.13857L233.947 6.59204L235.42 9.13857L232.475 9.13857Z" fill="#EEF3F5"/>
<path d="M70.8083 8.53908L58.94 -11.9968L82.6766 -11.9968L70.8083 8.53908Z" fill="#EEF3F5"/>
<path d="M32.8793 16.7224L47.5018 -8.57617L62.1243 16.7224L32.8793 16.7224Z" fill="#EEF3F5"/>
<path d="M0.888932 57.0225L-18.0477 24.248L19.8344 24.248L0.888932 57.0225Z" fill="#EEF3F5"/>
<path d="M0.888879 610.031L-8.07019 594.526L9.85376 594.526L0.888879 610.031Z" fill="#EEF3F5"/>
<path d="M14.6538 618.641L24.1953 602.128L33.7397 618.641L14.6538 618.641Z" fill="#EEF3F5"/>
<path d="M70.8082 652.889L59.6481 633.581L81.9653 633.581L70.8082 652.889Z" fill="#EEF3F5"/>
<path d="M81.7429 660.593L94.1146 639.191L106.483 660.593L81.7429 660.593Z" fill="#EEF3F5"/>
<path d="M140.728 698.2L125.242 671.407L156.213 671.407L140.728 698.2Z" fill="#EEF3F5"/>
<path d="M172.624 661.943L187.337 636.49L202.048 661.943L172.624 661.943Z" fill="#EEF3F5"/>
<path d="M210.641 653.941L198.571 633.055L222.711 633.055L210.641 653.941Z" fill="#EEF3F5"/>
<path d="M248.936 617.93L257.254 603.543L265.569 617.93L248.936 617.93Z" fill="#EEF3F5"/>
<path d="M280.557 607.779L273.55 595.652L287.57 595.652L280.557 607.779Z" fill="#EEF3F5"/>
<path d="M322.613 575.44L327.17 567.558L331.724 575.44L322.613 575.44Z" fill="#EEF3F5"/>
<path d="M350.477 564.143L346.338 556.986L354.615 556.986L350.477 564.143Z" fill="#EEF3F5"/>
<path d="M348.516 49.7455L350.477 46.3481L352.441 49.7455L348.516 49.7455Z" fill="#EEF3F5"/>
<path d="M327.17 37.2468L325.373 34.136L328.97 34.136L327.17 37.2468Z" fill="#EEF3F5"/>
<path d="M279.088 9.13857L280.557 6.59204L282.032 9.13857L279.088 9.13857Z" fill="#EEF3F5"/>
<path d="M24.1953 15.7841L6.04599 -15.6191L42.3476 -15.6191L24.1953 15.7841Z" fill="#EEF3F5"/>
<path d="M-17.9863 19.1756L0.888916 -13.4819L19.767 19.1756L-17.9863 19.1756Z" fill="#EEF3F5"/>
<path d="M24.1953 650.991L14.6831 634.531L33.7075 634.531L24.1953 650.991Z" fill="#EEF3F5"/>
<path d="M37.3603 659.309L47.5018 641.758L57.6432 659.309L37.3603 659.309Z" fill="#EEF3F5"/>
<path d="M94.1146 694.46L81.8688 673.281L106.358 673.281L94.1146 694.46Z" fill="#EEF3F5"/>
<path d="M103.58 701.764L117.421 677.819L131.259 701.764L103.58 701.764Z" fill="#EEF3F5"/>
<path d="M147.175 703.504L164.034 674.334L180.89 703.504L147.175 703.504Z" fill="#EEF3F5"/>
<path d="M187.337 698.896L171.251 671.062L203.42 671.062L187.337 698.896Z" fill="#EEF3F5"/>
<path d="M223.212 659.651L233.947 641.074L244.683 659.651L223.212 659.651Z" fill="#EEF3F5"/>
<path d="M257.254 650.023L248.579 635.016L265.929 635.016L257.254 650.023Z" fill="#EEF3F5"/>
<path d="M297.709 616.688L303.864 606.037L310.019 616.688L297.709 616.688Z" fill="#EEF3F5"/>
<path d="M327.17 605.528L322.113 596.777L332.228 596.777L327.17 605.528Z" fill="#EEF3F5"/>
<path d="M325.534 9.23222L327.17 6.4021L328.803 9.23222L325.534 9.23222Z" fill="#EEF3F5"/>
<path d="M-7.60489 658.362L0.888828 643.656L9.3913 658.362L-7.60489 658.362Z" fill="#EEF3F5"/>
<path d="M47.5018 691.838L37.5359 674.591L57.4706 674.591L47.5018 691.838Z" fill="#EEF3F5"/>
<path d="M59.97 700.03L70.8081 681.278L81.6462 700.03L59.97 700.03Z" fill="#EEF3F5"/>
<path d="M117.421 736.704L103.513 712.643L131.329 712.643L117.421 736.704Z" fill="#EEF3F5"/>
<path d="M124.767 743.307L140.728 715.698L156.685 743.307L124.767 743.307Z" fill="#EEF3F5"/>
<path d="M164.034 740.78L146.593 710.605L181.469 710.605L164.034 740.78Z" fill="#EEF3F5"/>
<path d="M195.746 702.369L210.641 676.603L225.536 702.369L195.746 702.369Z" fill="#EEF3F5"/>
<path d="M233.947 693.969L222.129 673.524L245.766 673.524L233.947 693.969Z" fill="#EEF3F5"/>
<path d="M272.98 657.83L280.557 644.717L288.138 657.83L272.98 657.83Z" fill="#EEF3F5"/>
<path d="M303.864 647.527L297.351 636.262L310.379 636.262L303.864 647.527Z" fill="#EEF3F5"/>
<path d="M345.788 615.84L350.477 607.727L355.165 615.84L345.788 615.84Z" fill="#EEF3F5"/>
<path d="M0.8889 689.358L-6.93165 675.831L8.70941 675.831L0.8889 689.358Z" fill="#EEF3F5"/>
<path d="M15.4909 698.805L24.1953 683.736L32.9085 698.805L15.4909 698.805Z" fill="#EEF3F5"/>
<path d="M70.8081 732.629L60.4325 714.681L81.1838 714.681L70.8081 732.629Z" fill="#EEF3F5"/>
<path d="M82.1907 740.979L94.1146 720.353L106.036 740.979L82.1907 740.979Z" fill="#EEF3F5"/>
<path d="M169.346 744.482L187.337 713.354L205.329 744.482L169.346 744.482Z" fill="#EEF3F5"/>
<path d="M210.641 739.094L194.666 711.45L226.619 711.45L210.641 739.094Z" fill="#EEF3F5"/>
<path d="M247.791 699.241L257.254 682.862L266.719 699.241L247.791 699.241Z" fill="#EEF3F5"/>
<path d="M280.557 689.101L272.962 675.959L288.155 675.959L280.557 689.101Z" fill="#EEF3F5"/>
<path d="M321.513 656.722L327.17 646.933L332.828 656.722L321.513 656.722Z" fill="#EEF3F5"/>
<path d="M350.477 645.781L345.48 637.136L355.473 637.136L350.477 645.781Z" fill="#EEF3F5"/>
<path d="M24.1953 729.314L16.6967 716.341L31.6968 716.341L24.1953 729.314Z" fill="#EEF3F5"/>
<path d="M39.1134 738.944L47.5018 724.428L55.8901 738.944L39.1134 738.944Z" fill="#EEF3F5"/>
<path d="M220.276 741.988L233.947 718.335L247.619 741.988L220.276 741.988Z" fill="#EEF3F5"/>
<path d="M257.254 732.158L247.288 714.915L267.22 714.915L257.254 732.158Z" fill="#EEF3F5"/>
<path d="M297.606 697.39L303.864 686.563L310.124 697.39L297.606 697.39Z" fill="#EEF3F5"/>
<path d="M327.17 686.856L321.524 677.085L332.819 677.085L327.17 686.856Z" fill="#EEF3F5"/>
<path d="M-4.55803 737.246L0.888846 727.82L6.33862 737.246L-4.55803 737.246Z" fill="#EEF3F5"/>
<path d="M273.047 738.439L280.557 725.437L288.073 738.439L273.047 738.439Z" fill="#EEF3F5"/>
<path d="M303.864 727.51L297.931 717.239L309.802 717.239L303.864 727.51Z" fill="#EEF3F5"/>
<path d="M345.296 696.767L350.477 687.809L355.654 696.767L345.296 696.767Z" fill="#EEF3F5"/>
<path d="M321.896 737.149L327.17 728.021L332.447 737.149L321.896 737.149Z" fill="#EEF3F5"/>
<path d="M350.477 726.524L345.393 717.733L355.558 717.733L350.477 726.524Z" fill="#EEF3F5"/>
</g>
<defs>
<clipPath id="clip0_75_12222">
<rect width="740" height="349" fill="white" transform="translate(349) rotate(90)"/>
</clipPath>
</defs>
</svg>
