<svg width="221" height="56" viewBox="0 0 221 56" fill="none" xmlns="http://www.w3.org/2000/svg">
<path d="M214.034 40.2743H208.415C209.342 37.8272 210.27 35.3815 211.197 32.9348C212.145 35.38 213.088 37.8276 214.034 40.2743ZM205.248 42.8734C204.821 43.9732 204.404 45.1061 203.663 46.0406C203.397 46.3578 203.087 46.6866 202.67 46.7866C204.33 46.7986 205.991 46.7986 207.651 46.7866C207.33 46.7438 207.02 46.5741 206.843 46.2987C206.649 45.9968 206.613 45.6205 206.661 45.272C206.717 44.8749 206.854 44.4957 206.991 44.1203C207.242 43.4305 207.5 42.7426 207.751 42.0514C210.073 42.0461 212.396 42.0543 214.718 42.0476C215.046 42.8878 215.36 43.7343 215.684 44.5759C215.847 45.0465 216.031 45.5561 215.887 46.0555C215.787 46.4439 215.431 46.7376 215.037 46.7852C215.801 46.8044 216.567 46.7895 217.331 46.7938C218.554 46.788 219.778 46.8049 221 46.7852C220.666 46.7241 220.388 46.5078 220.148 46.28C219.687 45.8276 219.348 45.2686 219.058 44.6961C218.626 43.8184 218.31 42.8907 217.939 41.9865C216.249 37.7051 214.557 33.4251 212.868 29.1436C212.108 29.1432 211.348 29.1432 210.588 29.1436C208.808 33.7202 207.028 38.2973 205.248 42.8734ZM141.117 40.2743C139.244 40.2743 137.372 40.2748 135.498 40.2743C136.426 37.8272 137.354 35.3805 138.281 32.9338C139.227 35.38 140.172 37.8272 141.117 40.2743ZM132.478 42.497C132.012 43.6751 131.602 44.9028 130.834 45.9281C130.55 46.2886 130.218 46.6722 129.754 46.7856C130.142 46.8005 130.531 46.7914 130.92 46.7938C132.192 46.7852 133.464 46.8126 134.734 46.7789C134.387 46.7472 134.057 46.5429 133.888 46.2357C133.718 45.9291 133.698 45.5618 133.752 45.222C133.828 44.7528 134.008 44.3101 134.168 43.8645C134.39 43.2598 134.614 42.6571 134.834 42.0519C137.159 42.05 139.486 42.0466 141.811 42.0538C142.137 42.9378 142.483 43.8141 142.81 44.6985C142.954 45.123 143.099 45.5825 142.978 46.0315C142.883 46.4285 142.524 46.7462 142.115 46.7784C142.759 46.8106 143.404 46.7861 144.047 46.7938C145.393 46.7866 146.739 46.8087 148.084 46.7823C147.615 46.6914 147.259 46.3328 146.959 45.9853C146.525 45.4609 146.202 44.8557 145.925 44.2371C145.571 43.4089 145.257 42.5657 144.921 41.7298C143.265 37.5349 141.607 33.3405 139.953 29.1446C139.192 29.1427 138.431 29.1432 137.671 29.1436C135.94 33.5948 134.208 38.0454 132.478 42.497ZM85.985 40.2743C84.1118 40.2743 82.2395 40.2748 80.3663 40.2743C81.294 37.8272 82.2217 35.3805 83.1489 32.9338C84.0954 35.38 85.04 37.8272 85.985 40.2743ZM77.2731 42.6816C76.9573 43.4867 76.665 44.3053 76.2492 45.0658C75.9925 45.5359 75.6989 45.9949 75.3129 46.3713C75.1158 46.5549 74.8908 46.728 74.6221 46.788C76.143 46.801 77.6644 46.7895 79.1857 46.7943C79.329 46.7962 79.4717 46.7852 79.6145 46.7741C79.2338 46.7554 78.8762 46.5102 78.719 46.1632C78.5829 45.8699 78.5704 45.5344 78.62 45.2201C78.6921 44.7783 78.856 44.3596 79.0074 43.941C79.24 43.3103 79.4713 42.6801 79.7049 42.0495C82.027 42.0495 84.3497 42.0509 86.6719 42.049C86.9987 42.8998 87.3203 43.7521 87.6443 44.6033C87.8044 45.0653 87.9813 45.5666 87.8385 46.0569C87.7371 46.4453 87.377 46.7506 86.9747 46.7784C87.7087 46.8111 88.4442 46.7861 89.1791 46.7938C90.4361 46.7861 91.694 46.8097 92.9505 46.7813C92.6987 46.7462 92.4843 46.5996 92.2877 46.4487C91.882 46.1132 91.57 45.6806 91.3013 45.2321C90.9591 44.6596 90.6995 44.0438 90.4582 43.4233C88.5792 38.6636 86.6974 33.9043 84.8203 29.1446C84.0599 29.1427 83.2994 29.1436 82.5394 29.1436C80.7845 33.6563 79.029 38.1689 77.2731 42.6816ZM188.048 30.6237C188.568 31.4596 188.885 32.395 189.248 33.3044C191.009 37.8007 192.77 42.2975 194.532 46.7938C195.168 46.7933 195.804 46.7948 196.441 46.7929C198.297 42.0317 200.156 37.272 202.012 32.5113C202.278 31.8182 202.569 31.1303 202.967 30.5001C203.334 29.9348 203.786 29.3465 204.457 29.1388C202.741 29.148 201.025 29.1432 199.309 29.1417C199.612 29.2119 199.919 29.3479 200.107 29.6075C200.348 29.9286 200.374 30.3622 200.285 30.7419C200.138 31.3476 199.892 31.9225 199.679 32.5055C198.458 35.7487 197.237 38.9923 196.016 42.235C194.782 39.1063 193.55 35.977 192.317 32.8478C192.087 32.2508 191.837 31.6619 191.626 31.0582C191.482 30.6419 191.374 30.1747 191.547 29.7493C191.674 29.4119 192.01 29.2018 192.354 29.1417C190.387 29.1432 188.419 29.148 186.451 29.1398C187.169 29.3777 187.658 30.0074 188.048 30.6237ZM149.777 29.7224C150.42 30.2132 150.891 30.9597 150.946 31.7783C150.977 32.3873 150.954 32.9982 150.961 33.6077V43.0272C150.942 44.04 151.066 45.1254 150.577 46.055C150.387 46.4073 150.068 46.7193 149.659 46.7837C150.125 46.8039 150.592 46.79 151.059 46.7938C152.259 46.7837 153.459 46.814 154.659 46.778C154.244 46.7352 153.897 46.4511 153.669 46.1165C153.357 45.6546 153.24 45.0922 153.202 44.5452C153.175 44.0578 153.19 43.5689 153.187 43.081C153.187 40.0162 153.186 36.9518 153.187 33.887C155.355 36.5851 157.523 39.2827 159.69 41.9812C160.185 42.6013 160.697 43.2089 161.145 43.866C161.786 44.7831 162.371 45.7498 162.781 46.7938C163.417 46.7933 164.053 46.7943 164.69 46.7933C164.689 41.8255 164.69 36.8567 164.689 31.8883C164.692 31.2087 164.747 30.4987 165.075 29.8892C165.266 29.5277 165.595 29.2297 166 29.1384C164.373 29.147 162.747 29.146 161.119 29.1398C161.716 29.285 162.126 29.818 162.295 30.3843C162.481 30.9524 162.493 31.5571 162.489 32.1498C162.489 35.1051 162.49 38.0608 162.489 41.016C159.405 37.059 156.323 33.0997 153.238 29.1427C151.756 29.1436 150.273 29.1436 148.79 29.1427C149.139 29.2975 149.473 29.4893 149.777 29.7224ZM109.149 29.795C109.554 30.3684 109.636 31.0957 109.638 31.7787C109.638 35.7021 109.638 39.6254 109.638 43.5487C109.644 44.4101 109.61 45.334 109.135 46.0838C108.91 46.4314 108.56 46.728 108.138 46.7823C109.542 46.8087 110.946 46.7866 112.351 46.7938C112.643 46.7861 112.938 46.8126 113.229 46.7736C113.211 46.7679 113.175 46.7554 113.157 46.7501L113.108 46.7467C112.747 46.6751 112.465 46.3924 112.26 46.1002C111.826 45.4455 111.738 44.6331 111.733 43.8665C111.731 40.2046 111.732 36.5428 111.732 32.8814C113.818 37.6421 115.902 42.4033 117.986 47.1644C120.055 42.3864 122.119 37.607 124.189 32.8295C124.189 36.3683 124.189 39.9071 124.189 43.4463C124.189 44.2794 124.213 45.1451 123.892 45.931C123.732 46.3213 123.439 46.7097 123.001 46.7943C124.773 46.7837 126.546 46.813 128.317 46.7794C127.872 46.7212 127.548 46.3492 127.356 45.969C127.005 45.2532 126.992 44.4356 126.998 43.6554V32.7262C127.005 31.8686 126.936 30.976 127.256 30.1608C127.433 29.6892 127.796 29.2518 128.306 29.1388C126.757 29.1484 125.208 29.1412 123.659 29.1432C121.923 33.202 120.206 37.2696 118.461 41.3246C116.72 37.2652 114.982 33.2044 113.243 29.1446C111.54 29.1384 109.837 29.1509 108.134 29.1379C108.54 29.223 108.914 29.4522 109.149 29.795ZM95.3246 30.0214C95.6039 30.6535 95.6433 31.3591 95.6438 32.0412C95.6419 35.9982 95.6462 39.9561 95.6409 43.9136C95.6275 44.6442 95.5732 45.3984 95.266 46.0718C95.1127 46.3896 94.8728 46.7246 94.4998 46.7852C95.3064 46.8044 96.1139 46.7885 96.921 46.7938H105.82C106.023 45.4426 106.227 44.0919 106.429 42.7412C106.176 43.1796 105.937 43.6333 105.586 44.0035C105.292 44.3265 104.908 44.563 104.489 44.6879C103.817 44.8908 103.108 44.897 102.412 44.9091C101.111 44.9168 99.808 44.9105 98.5053 44.9119C98.5053 40.5872 98.5048 36.2625 98.5053 31.9383C98.5106 31.2529 98.5625 30.5415 98.874 29.919C99.0562 29.5489 99.3763 29.2287 99.7897 29.1374C97.9929 29.148 96.1961 29.1465 94.3993 29.1379C94.8319 29.2595 95.1511 29.619 95.3246 30.0214ZM179.164 31.5023C180.457 32.2469 181.366 33.5308 181.862 34.9176C182.27 36.039 182.438 37.2379 182.436 38.4275C182.431 39.5211 182.26 40.6238 181.848 41.6404C181.507 42.4864 180.991 43.2704 180.302 43.8746C179.575 44.5173 178.654 44.9369 177.69 45.0552C176.549 45.1946 175.36 44.9826 174.357 44.4159C173.042 43.6828 172.115 42.3922 171.61 40.9949C171.181 39.8239 171.01 38.5698 171.016 37.3273C171.022 36.238 171.196 35.1377 171.62 34.1302C171.983 33.2607 172.541 32.4632 173.28 31.8725C173.979 31.3091 174.836 30.9476 175.726 30.8328C176.904 30.6837 178.135 30.9039 179.164 31.5023ZM170.742 31.2745C169.323 32.7007 168.443 34.6143 168.161 36.5961C167.831 38.9188 168.208 41.3905 169.461 43.3992C170.377 44.8874 171.794 46.0646 173.44 46.6645C174.805 47.1697 176.295 47.2942 177.734 47.1067C179.628 46.8688 181.436 45.9786 182.755 44.5952C184.199 43.1051 185.059 41.1049 185.299 39.0548C185.564 36.7831 185.17 34.3836 183.939 32.4315C182.997 30.9174 181.526 29.7378 179.833 29.1734C178.584 28.748 177.239 28.6365 175.931 28.7812C173.985 28.9908 172.114 29.8743 170.742 31.2745ZM136.027 9.23906C136.967 11.6728 137.908 14.1064 138.847 16.5411C136.984 16.5406 135.121 16.5411 133.259 16.5406C134.182 14.1064 135.103 11.6718 136.027 9.23906ZM129.417 20.8067C129.132 21.3974 128.809 21.9791 128.365 22.4674C128.137 22.7092 127.873 22.9476 127.54 23.0231C128.729 23.0289 129.919 23.0241 131.109 23.0255C131.576 23.0197 132.044 23.0395 132.51 23.013C132.077 22.9818 131.679 22.6664 131.561 22.2458C131.399 21.7334 131.557 21.197 131.72 20.7057C132.006 19.904 132.306 19.1065 132.6 18.3067C134.911 18.3071 137.221 18.3067 139.533 18.3071C139.785 18.9719 140.037 19.6362 140.29 20.301C140.441 20.6995 140.607 21.0951 140.697 21.5123C140.775 21.8421 140.764 22.2084 140.601 22.5121C140.451 22.7962 140.149 22.9798 139.835 23.0217C140.853 23.0308 141.87 23.0231 142.888 23.0255C143.852 23.0217 144.816 23.0342 145.779 23.0193C145.347 22.9375 145.013 22.6165 144.727 22.3021C144.121 21.6003 143.724 20.749 143.384 19.8943C141.484 15.0861 139.586 10.2773 137.687 5.46859C136.932 5.46811 136.176 5.46859 135.42 5.46859C133.72 9.83847 132.02 14.2079 130.321 18.5782C130.025 19.3228 129.756 20.0799 129.417 20.8067ZM109.139 5.48012C109.789 5.75171 110.388 6.18 110.795 6.76114C111.121 7.22548 111.289 7.79413 111.286 8.36037C111.287 12.3423 111.286 16.3238 111.286 20.3058C111.282 20.9653 111.231 21.6522 110.927 22.2497C110.737 22.6222 110.403 22.9606 109.972 23.0188C111.004 23.0346 112.037 23.0217 113.068 23.0255C113.704 23.0197 114.34 23.039 114.975 23.0149C114.751 22.9919 114.541 22.8957 114.364 22.7597C113.987 22.4747 113.761 22.0339 113.642 21.5844C113.447 20.8586 113.513 20.101 113.501 19.3589V10.187C115.839 13.0965 118.177 16.0061 120.514 18.9152C120.995 19.5136 121.456 20.1289 121.866 20.7783C122.318 21.4941 122.738 22.2348 123.044 23.0255H124.942C124.943 18.0408 124.94 13.0557 124.943 8.07052C124.952 7.44275 125.018 6.7919 125.316 6.22807C125.508 5.86179 125.837 5.54982 126.252 5.4657C124.629 5.47099 123.007 5.47003 121.383 5.46618C121.912 5.58443 122.304 6.02378 122.493 6.51359C122.707 7.04571 122.753 7.62685 122.754 8.19502V17.2785C119.688 13.3422 116.621 9.40538 113.555 5.46907C112.058 5.46715 110.561 5.47003 109.064 5.46762L109.139 5.48012ZM103.196 6.40207C103.51 7.10675 103.497 7.89507 103.493 8.6507V20.0184C103.497 20.7413 103.5 21.4965 103.195 22.168C103.013 22.5794 102.663 22.951 102.202 23.026C104.019 23.0202 105.836 23.0356 107.653 23.0188C107.202 22.9534 106.874 22.5756 106.694 22.181C106.368 21.4676 106.39 20.6644 106.393 19.8977C106.393 15.9696 106.392 12.0424 106.393 8.11475C106.398 7.43266 106.469 6.71644 106.828 6.11943C107.022 5.80603 107.322 5.5229 107.699 5.46618C105.865 5.47003 104.03 5.47051 102.196 5.4657C102.662 5.58683 103.009 5.97234 103.196 6.40207ZM75.7758 6.50109C75.9959 7.04811 76.0425 7.6456 76.0445 8.23011C76.044 12.0597 76.0445 15.8898 76.0445 19.7194C76.0478 20.5303 76.0469 21.3729 75.7253 22.1319C75.5522 22.5391 75.2369 22.9395 74.7788 23.0246C78.5421 23.0274 82.3058 23.025 86.0691 23.025C86.3046 21.6162 86.5474 20.2078 86.78 18.7979C86.5459 19.2747 86.2869 19.7482 85.9268 20.1429C85.574 20.538 85.1005 20.8153 84.5915 20.9538C83.8113 21.1706 82.9942 21.147 82.1924 21.148C81.1214 21.148 80.0514 21.1484 78.9805 21.148C78.98 19.1027 78.9805 17.0569 78.9805 15.0111C79.9957 15.0106 81.0114 15.0106 82.027 15.0111C82.5375 15.0149 83.0667 15.0539 83.534 15.2779C83.7921 15.3985 84.0156 15.6062 84.1146 15.8782C84.1094 14.6737 84.1094 13.4686 84.1146 12.264C84.0166 12.5039 83.8258 12.6961 83.5994 12.8182C83.1206 13.0768 82.563 13.1268 82.028 13.1331C81.0123 13.134 79.9962 13.1335 78.9805 13.1335C78.98 11.1762 78.9809 9.21935 78.98 7.26201C80.1471 7.26105 81.3137 7.26201 82.4803 7.26153C82.8673 7.26249 83.2566 7.27787 83.6359 7.35719C84.1449 7.45717 84.6448 7.68406 84.9909 8.07965C85.3159 8.43921 85.4928 8.8997 85.6461 9.35202C85.6447 8.03783 85.6471 6.72365 85.6447 5.41043C81.9703 5.40947 78.2965 5.41379 74.6221 5.40802C75.1706 5.53492 75.5801 5.99013 75.7758 6.50109ZM88.4874 5.46714C90.2765 5.46859 92.0656 5.47003 93.8547 5.46666C93.4384 5.54405 93.1193 5.87284 92.9371 6.24008C92.6294 6.85535 92.5756 7.55811 92.5703 8.2354C92.5703 12.5418 92.5703 16.8478 92.5703 21.1542C93.7716 21.1547 94.9728 21.1542 96.174 21.1547C96.7393 21.1523 97.307 21.1465 97.8684 21.0715C98.2977 21.0115 98.7293 20.9028 99.1009 20.6731C99.7306 20.2871 100.105 19.6223 100.453 18.9935C100.25 20.3375 100.048 21.6815 99.8459 23.0255H89.2998C89.057 23.0246 88.8148 23.0318 88.5725 23.0145C88.7984 23.0015 88.9801 22.8448 89.1176 22.6789C89.3474 22.3939 89.4728 22.0406 89.5603 21.6902C89.6992 21.1023 89.7232 20.4962 89.7232 19.8953C89.7228 16.01 89.7232 12.1236 89.7228 8.2378C89.718 7.61772 89.6713 6.98274 89.4324 6.40351C89.2628 5.98244 88.9421 5.5878 88.4874 5.46714Z" fill="white"/>
<path d="M36.3894 49.7904C36.4375 49.813 36.4788 49.8515 36.4971 49.9019C36.4961 49.6784 36.4961 49.4544 36.4971 49.2304C36.4793 49.2751 36.4437 49.3107 36.4014 49.3338C36.3125 49.3814 36.2092 49.391 36.1097 49.3919C35.9207 49.3924 35.7318 49.3924 35.5434 49.3924C35.5429 49.0285 35.5434 48.6647 35.5429 48.3008H36.1938C36.2654 48.3013 36.338 48.3042 36.4082 48.3186C36.5029 48.3378 36.5956 48.3796 36.66 48.4532C36.7201 48.52 36.7533 48.6055 36.7817 48.6897C36.7817 48.445 36.7821 48.2008 36.7817 47.9571C36.0991 47.9571 35.416 47.9576 34.7335 47.9571C34.8354 47.9802 34.9113 48.0648 34.9478 48.1595C34.9887 48.2614 34.9974 48.3724 34.9974 48.481V48.5705V48.5767V48.6608L35.5434 50.1351V49.7409H36.1092C36.2044 49.7414 36.3024 49.7491 36.3894 49.7904ZM36.8605 51.2301C36.9042 50.9681 36.9494 50.7066 36.9922 50.4446C36.9489 50.5336 36.9009 50.6215 36.834 50.6946C36.7687 50.7681 36.6802 50.8196 36.586 50.845C36.4409 50.8854 36.289 50.8816 36.1399 50.8816H35.9506L36.1414 51.2301H36.8605ZM34.5686 50.0216C34.3931 49.5669 34.2172 49.1127 34.0418 48.6579C33.8692 49.1127 33.6971 49.5669 33.5246 50.0216H34.5686ZM34.9132 51.0964C34.9397 51.0051 34.907 50.9119 34.8772 50.8258C34.8171 50.6677 34.757 50.5095 34.6965 50.3514C34.2648 50.3519 33.8331 50.3519 33.402 50.3519C33.3582 50.4687 33.3155 50.586 33.2722 50.7028C33.2443 50.7811 33.2135 50.859 33.2001 50.9407C33.191 50.9993 33.1934 51.0618 33.2184 51.1161C33.2477 51.1806 33.3145 51.2257 33.3852 51.2296C33.3582 51.2315 33.3318 51.2334 33.3054 51.2334C33.0227 51.2325 32.7401 51.2344 32.4574 51.232C32.5074 51.2209 32.5492 51.1887 32.5858 51.1546C32.6574 51.0844 32.7122 50.9993 32.7598 50.9119C32.8367 50.7705 32.8915 50.6186 32.9501 50.4692C33.276 49.6304 33.6024 48.792 33.9283 47.9537C34.0696 47.9537 34.211 47.9533 34.3523 47.9537C34.7013 48.8382 35.0507 49.7222 35.3997 50.6066C35.4449 50.722 35.4929 50.8369 35.5564 50.9426C35.6064 51.0263 35.6646 51.1065 35.7395 51.169C35.7765 51.1974 35.8164 51.2243 35.8631 51.2306C35.6295 51.2363 35.3958 51.2315 35.1622 51.233C35.0257 51.2315 34.8887 51.2363 34.7527 51.2301C34.7613 51.2296 34.77 51.2257 34.7787 51.2238C34.8262 51.2104 34.8642 51.1791 34.894 51.1397C34.9017 51.1258 34.9089 51.1118 34.9132 51.0964ZM43.642 49.029C43.642 49.029 42.8291 48.2777 41.9302 47.0222H36.6432C37.2551 47.4846 37.6565 48.2071 37.6724 49.029H43.642ZM26.5176 49.0386H32.5093C32.5223 48.2176 32.9203 47.4966 33.5279 47.0318H28.2294C27.3305 48.2869 26.5176 49.0386 26.5176 49.0386ZM35.0911 46.0748H41.313C40.9501 45.4787 40.5348 44.8163 40.2455 44.09L29.8752 44.0895C29.5863 44.8158 29.2325 45.4883 28.8691 46.0839H35.0911V46.0748ZM52.2543 37.7724C52.4966 36.1434 53.483 35.1926 53.483 35.1926C49.9341 37.1095 48.7694 41.9716 48.7694 41.9716C48.492 40.5873 48.9112 39.5346 48.9112 39.5346C47.411 40.9507 46.5751 45.5133 46.5751 45.5133C46.5784 44.8586 46.2521 44.2467 46.2521 44.2467C46.0545 45.396 44.76 48.2907 44.76 48.2907C49.3717 45.1384 52.8927 39.2337 52.8927 39.2337C52.0222 41.8553 50.3321 44.1265 48.5521 45.945C46.6621 47.8764 44.4082 49.4006 42.0062 50.6398C41.3794 50.9628 40.9968 51.2325 40.9968 51.2325C41.5457 50.2783 42.3316 49.877 42.3316 49.877C40.7252 49.9366 37.8925 52.1813 37.8925 52.1813C38.2304 51.7992 38.3535 51.2729 38.3535 51.2729C37.6474 51.8449 35.2449 52.8769 35.2449 52.8769C39.5662 53.3975 44.8196 51.7449 44.8196 51.7449C42.2066 53.2783 39 53.4792 36.5341 53.5003C35.1219 53.4955 35.1219 53.4955 33.662 53.5244C31.0418 53.4614 27.901 53.3345 25.24 51.7723C25.24 51.7723 30.4881 53.4253 34.8094 52.9048C34.8094 52.9048 32.4118 51.8727 31.7061 51.3007C31.7061 51.3007 31.8292 51.8266 32.1666 52.2087C32.1666 52.2087 29.334 49.964 27.7275 49.9043C27.7275 49.9043 28.5139 50.3057 29.0624 51.2604C29.0624 51.2604 28.6802 50.9907 28.0534 50.6677C25.6519 49.429 23.3975 47.9037 21.5075 45.9728C19.727 44.1539 18.037 41.8832 17.1664 39.2616C17.1664 39.2616 20.6874 45.1663 25.2991 48.3181C25.2991 48.3181 24.0046 45.4239 23.8076 44.2741C23.8076 44.2741 23.4812 44.8865 23.4841 45.5407C23.4841 45.5407 22.6481 40.9786 21.1479 39.5625C21.1479 39.5625 21.5676 40.6142 21.2897 41.9995C21.2897 41.9995 20.1255 37.1374 16.5762 35.22C16.5762 35.22 17.5625 36.1713 17.8048 37.8003C17.8048 37.8003 15.1716 32.9589 10.074 35.2306C10.074 35.2306 10.4633 35.2181 11.0084 35.3733C11.8761 35.6209 12.625 36.1732 13.146 36.9105C13.8973 37.9738 16.0671 40.9661 17.5438 42.199C17.5438 42.199 15.7513 41.9303 15.2221 40.7469C15.2221 40.7469 15.2644 44.6034 19.8881 46.3411C19.8881 46.3411 17.9629 46.5434 17.2467 45.7609C17.2467 45.7609 18.7777 48.9613 23.9051 49.5775C23.5451 49.5861 23.1812 49.6246 22.8188 49.7073C22.8188 49.7073 23.8854 49.7582 24.8636 50.5884C24.8636 50.5884 20.8345 49.1035 19.0137 53.0523C19.0137 53.0523 19.5713 52.5298 20.5134 52.389C20.8999 52.3313 21.296 52.3678 21.6762 52.4597C22.6626 52.6966 25.4707 53.3359 26.9695 53.3009C26.9695 53.3009 25.7817 54.0637 24.8631 53.6417C24.8631 53.6417 26.8681 55.8802 30.4703 54.5242C30.4703 54.5242 29.446 55.6312 28.6245 55.5404C28.6245 55.5404 31.4562 56.7579 35.0483 53.9474C38.6227 56.7195 41.4351 55.5125 41.4351 55.5125C40.6132 55.6038 39.5893 54.4968 39.5893 54.4968C43.1911 55.8523 45.196 53.6138 45.196 53.6138C44.2779 54.0358 43.0896 53.273 43.0896 53.273C44.5884 53.3085 47.3966 52.6692 48.3829 52.4318C49.0665 52.2669 49.7889 52.328 50.4249 52.6284C50.8243 52.8173 51.0454 53.0249 51.0454 53.0249C49.2246 49.0761 45.1955 50.561 45.1955 50.561C46.1742 49.7303 47.2403 49.6799 47.2403 49.6799C46.8779 49.5972 46.5145 49.5587 46.1545 49.5496C51.2814 48.9339 52.8129 45.7335 52.8129 45.7335C52.0962 46.516 50.1715 46.3137 50.1715 46.3137C54.7952 44.5755 54.837 40.719 54.837 40.719C54.3078 41.9034 52.5154 42.1711 52.5154 42.1711C53.9925 40.9382 56.1623 37.9459 56.9136 36.8827C57.4342 36.1458 58.1831 35.5935 59.0512 35.3454C59.5958 35.1902 59.9852 35.2027 59.9852 35.2027C54.8875 32.9315 52.2543 37.7724 52.2543 37.7724ZM25.0078 2.946H28.9432H38.9269H42.8623C42.8623 2.946 43.8443 0.960297 46.4491 0.32003V-0.000106812H38.9269H28.9432H21.421V0.32003C24.0258 0.960297 25.0078 2.946 25.0078 2.946ZM25.6909 3.41515V4.58945H28.2817H39.5888H42.1792V3.41515H39.5888H28.2817H25.6909ZM20.5586 27.5425C20.9662 26.9744 21.5171 26.0361 21.8949 25.3477C21.8949 25.3477 19.2718 28.0693 16.5416 28.1544C16.5416 28.1544 18.3667 27.034 19.5189 24.8411C19.5189 24.8411 11.8184 29.521 2.64792 25.2117C3.68859 26.3716 4.8158 26.982 4.8158 26.982C1.97448 26.3125 0.685289 24.7695 0.000316236 23.7778C-0.00352922 23.9662 -0.0217946 27.1051 3.31078 29.8661C8.61126 34.2581 16.531 33.1617 20.5586 27.5425ZM0.338237 23.1625C0.338237 23.1625 1.14578 25.253 3.37903 26.2985C3.37903 26.2985 1.85864 25.3953 1.19337 23.4L10.3316 10.4523C10.4845 10.4485 10.7753 10.4456 11.155 10.4581L20.3837 24.5825C19.6396 26.5499 17.7885 27.6733 17.7885 27.6733C20.0616 26.7177 21.2479 24.3791 21.2479 24.3791L11.2829 10.4619C12.1121 10.4942 13.3022 10.6013 14.4218 10.92C15.4245 11.2051 16.3161 11.7805 17.0684 12.5015C18.172 13.559 21.5762 16.1576 27.3771 14.8688C27.3771 14.8688 24.8189 14.466 23.0889 11.7526C23.0889 11.7526 25.9528 14.1449 30.0867 13.8551C30.0867 13.8551 29.0412 14.33 27.901 14.0925C27.901 14.0925 34.4109 17.403 36.5649 36.0929C36.5649 36.0929 33.9538 22.3088 28.6456 17.2131C28.6456 17.2131 30.3343 21.7825 31.0548 28.0612C32.2729 31.2962 33.5481 35.4296 34.2355 39.9042C34.2355 39.9042 33.1054 36.3813 31.36 32.3705C31.4485 35.8833 31.1332 39.6793 30.0641 43.3786H40.0263C35.9208 31.8009 38.9092 14.9953 38.9092 14.9953C37.5786 16.706 35.0445 18.7335 35.0445 18.7335C36.375 17.2131 37.3253 13.8551 37.3253 13.8551C42.0134 14.1084 44.7817 11.7526 44.7817 11.7526C43.0512 14.466 40.493 14.8688 40.493 14.8688C46.5669 16.2186 50.0139 13.3061 50.9426 12.363C51.354 11.9453 51.8155 11.5733 52.3461 11.3248C53.7223 10.6797 55.4917 10.5042 56.6021 10.4619L46.6371 24.3791C46.6371 24.3791 47.8229 26.7177 50.0961 27.6733C50.0961 27.6733 48.245 26.5499 47.5009 24.5825L56.73 10.4576C57.1169 10.4456 57.4077 10.449 57.5534 10.4528L66.6916 23.4C66.0259 25.3953 64.5055 26.2985 64.5055 26.2985C66.7387 25.253 67.5468 23.1625 67.5468 23.1625L57.6625 10.4567C57.5606 10.3509 57.4563 10.2529 57.3491 10.1601L57.34 10.1509L57.3424 10.1538C54.1982 7.42163 49.1092 9.8635 49.1092 9.8635C47.3043 10.8662 45.321 10.3961 44.1092 9.91589C43.5309 9.68661 42.9988 9.36407 42.4907 9.00548C42.4609 8.98433 42.3681 8.92328 42.2489 8.84541C41.8428 8.58008 41.8072 7.99749 42.1792 7.68505H40.1777C39.872 7.5442 39.5682 7.41923 39.2677 7.3005H42.1369C42.7825 7.3005 43.3108 6.77271 43.3108 6.12667C43.3108 5.48064 42.7825 4.95285 42.1369 4.95285H39.0336H28.8365H25.7337C25.0876 4.95285 24.5593 5.48064 24.5593 6.12667C24.5593 6.77271 25.0876 7.3005 25.7337 7.3005H28.7134C28.3942 7.41923 28.0731 7.5442 27.752 7.68505H25.6909C26.0317 8.01287 25.9903 8.56998 25.6053 8.84445C25.4957 8.92281 25.4097 8.98433 25.3799 9.00548C24.8718 9.36407 24.3397 9.68661 23.7614 9.91589C22.5491 10.3961 20.5663 10.8662 18.7609 9.8635C18.7609 9.8635 13.3119 7.2481 10.2076 10.4567C10.2076 10.4567 10.2167 10.4562 10.2225 10.4557L10.222 10.4567L0.338237 23.1625ZM64.5738 29.8661C59.2733 34.2581 51.3535 33.1617 47.3254 27.5425C46.9183 26.9744 46.3679 26.0361 45.9896 25.3477C45.9896 25.3477 48.6127 28.0693 51.343 28.1544C51.343 28.1544 49.5178 27.034 48.3656 24.8411C48.3656 24.8411 56.0662 29.521 65.2366 25.2117C64.1964 26.3716 63.0687 26.982 63.0687 26.982C65.91 26.3125 67.1992 24.7695 67.8842 23.7778C67.8885 23.9662 67.9063 27.1051 64.5738 29.8661Z" fill="white"/>
</svg>
