<svg width="270" height="69" viewBox="0 0 270 69" fill="none" xmlns="http://www.w3.org/2000/svg">
<path d="M261.489 49.2035H254.625C255.757 46.2138 256.891 43.2258 258.023 40.2366C259.182 43.224 260.334 46.2144 261.489 49.2035ZM250.756 52.3788C250.233 53.7225 249.724 55.1066 248.819 56.2483C248.494 56.6359 248.115 57.0375 247.605 57.1597C249.634 57.1744 251.663 57.1744 253.692 57.1597C253.3 57.1074 252.92 56.9001 252.704 56.5636C252.467 56.1948 252.423 55.735 252.482 55.3092C252.55 54.8242 252.718 54.3608 252.885 53.9022C253.192 53.0594 253.507 52.2191 253.813 51.3746C256.65 51.3681 259.488 51.3781 262.325 51.3699C262.726 52.3964 263.11 53.4306 263.505 54.4589C263.704 55.0338 263.93 55.6563 263.754 56.2665C263.632 56.741 263.197 57.0998 262.714 57.1579C263.649 57.1814 264.584 57.1632 265.518 57.1685C267.012 57.1615 268.507 57.182 270 57.1579C269.592 57.0833 269.252 56.8191 268.959 56.5407C268.396 55.9881 267.982 55.3051 267.627 54.6057C267.1 53.5334 266.713 52.4 266.26 51.2953C264.196 46.0646 262.129 40.8356 260.065 35.6049C259.137 35.6043 258.208 35.6043 257.279 35.6049C255.105 41.1962 252.93 46.7881 250.756 52.3788ZM172.406 49.2035C170.117 49.2035 167.83 49.2041 165.541 49.2035C166.674 46.2138 167.808 43.2246 168.94 40.2355C170.097 43.224 171.251 46.2138 172.406 49.2035ZM161.85 51.919C161.281 53.3584 160.781 54.8582 159.843 56.1108C159.495 56.5513 159.09 57.0199 158.522 57.1585C158.997 57.1767 159.473 57.1656 159.948 57.1685C161.501 57.1579 163.055 57.1914 164.608 57.1503C164.184 57.1115 163.78 56.8619 163.574 56.4867C163.366 56.112 163.342 55.6634 163.407 55.2482C163.501 54.675 163.72 54.1341 163.915 53.5897C164.187 52.851 164.461 52.1145 164.729 51.3752C167.57 51.3728 170.413 51.3687 173.253 51.3775C173.651 52.4575 174.074 53.5281 174.474 54.6086C174.65 55.1272 174.827 55.6886 174.679 56.2371C174.563 56.7222 174.124 57.1104 173.625 57.1497C174.411 57.1891 175.199 57.1591 175.985 57.1685C177.629 57.1597 179.274 57.1867 180.918 57.1544C180.344 57.0434 179.909 56.6053 179.543 56.1807C179.012 55.54 178.617 54.8007 178.279 54.0449C177.847 53.033 177.463 52.003 177.053 50.9817C175.03 45.8567 173.004 40.7323 170.983 35.6061C170.053 35.6038 169.124 35.6043 168.195 35.6049C166.081 41.043 163.965 46.4804 161.85 51.919ZM105.05 49.2035C102.761 49.2035 100.474 49.2041 98.185 49.2035C99.3184 46.2138 100.452 43.2246 101.585 40.2355C102.741 43.224 103.895 46.2138 105.05 49.2035ZM94.406 52.1445C94.0202 53.1282 93.6631 54.1283 93.1552 55.0573C92.8416 55.6316 92.4827 56.1925 92.0112 56.6523C91.7704 56.8766 91.4956 57.088 91.1673 57.1615C93.0254 57.1773 94.8841 57.1632 96.7427 57.1691C96.9177 57.1714 97.0921 57.1579 97.2666 57.1444C96.8015 57.1215 96.3645 56.822 96.1725 56.398C96.0063 56.0398 95.991 55.6299 96.0515 55.2458C96.1396 54.7061 96.3399 54.1946 96.5249 53.6831C96.8091 52.9126 97.0916 52.1427 97.377 51.3723C100.214 51.3723 103.052 51.374 105.889 51.3717C106.288 52.4111 106.681 53.4523 107.077 54.4924C107.272 55.0567 107.488 55.6692 107.314 56.2682C107.19 56.7427 106.75 57.1156 106.259 57.1497C107.155 57.1896 108.054 57.1591 108.952 57.1685C110.488 57.1591 112.024 57.1879 113.559 57.1532C113.252 57.1104 112.99 56.9312 112.75 56.7468C112.254 56.3369 111.873 55.8084 111.545 55.2605C111.126 54.5611 110.809 53.8088 110.515 53.0506C108.219 47.2356 105.92 41.4211 103.627 35.6061C102.698 35.6038 101.768 35.6049 100.84 35.6049C98.6959 41.1181 96.5513 46.6313 94.406 52.1445ZM229.742 37.4131C230.377 38.4343 230.765 39.5772 231.207 40.6882C233.36 46.1815 235.511 51.6753 237.663 57.1685C238.44 57.1679 239.218 57.1697 239.996 57.1673C242.263 51.3505 244.534 45.5355 246.802 39.7193C247.127 38.8724 247.482 38.0321 247.969 37.2622C248.418 36.5716 248.969 35.8528 249.789 35.5991C247.693 35.6102 245.596 35.6043 243.499 35.6026C243.869 35.6883 244.245 35.8545 244.475 36.1716C244.77 36.5639 244.801 37.0936 244.691 37.5576C244.513 38.2975 244.212 38.9999 243.952 39.7122C242.46 43.6745 240.968 47.6373 239.476 51.5989C237.969 47.7765 236.464 43.9534 234.958 40.1304C234.677 39.401 234.371 38.6816 234.114 37.944C233.937 37.4354 233.805 36.8646 234.017 36.3449C234.171 35.9326 234.582 35.676 235.003 35.6026C232.599 35.6043 230.195 35.6102 227.791 35.6002C228.668 35.8909 229.266 36.6602 229.742 37.4131ZM182.986 36.312C183.772 36.9116 184.347 37.8236 184.414 38.8237C184.452 39.5678 184.423 40.3142 184.432 41.0588V52.5667C184.408 53.8041 184.561 55.1301 183.962 56.2659C183.731 56.6963 183.341 57.0775 182.841 57.1562C183.411 57.1808 183.981 57.1638 184.551 57.1685C186.017 57.1562 187.484 57.1932 188.95 57.1491C188.443 57.0969 188.019 56.7498 187.74 56.3411C187.36 55.7767 187.216 55.0896 187.169 54.4213C187.137 53.8258 187.155 53.2286 187.151 52.6325C187.151 48.8881 187.151 45.1444 187.151 41.4C189.8 44.6963 192.449 47.992 195.097 51.2889C195.701 52.0464 196.327 52.7887 196.874 53.5915C197.657 54.712 198.371 55.893 198.872 57.1685C199.649 57.1679 200.427 57.1691 201.204 57.1679C201.203 51.0986 201.204 45.0281 201.204 38.9582C201.207 38.1278 201.274 37.2604 201.675 36.5158C201.908 36.0742 202.31 35.7101 202.806 35.5985C200.818 35.609 198.831 35.6079 196.843 35.6002C197.572 35.7776 198.072 36.4289 198.279 37.1206C198.506 37.8148 198.521 38.5536 198.516 39.2777C198.516 42.8881 198.517 46.4992 198.516 50.1096C194.749 45.2753 190.983 40.4381 187.214 35.6038C185.403 35.6049 183.591 35.6049 181.78 35.6038C182.207 35.7929 182.614 36.0272 182.986 36.312ZM133.35 36.4007C133.845 37.1013 133.944 37.9898 133.947 38.8243C133.947 43.6175 133.947 48.4107 133.947 53.2039C133.954 54.2563 133.913 55.385 133.332 56.3011C133.057 56.7257 132.63 57.088 132.114 57.1544C133.829 57.1867 135.545 57.1597 137.261 57.1685C137.618 57.1591 137.978 57.1914 138.334 57.1438C138.312 57.1368 138.268 57.1215 138.245 57.1151L138.186 57.1109C137.745 57.0234 137.4 56.6781 137.15 56.3211C136.621 55.5212 136.513 54.5288 136.506 53.5921C136.504 49.1184 136.505 44.6446 136.505 40.1715C139.054 45.9877 141.6 51.8045 144.146 57.6213C146.673 51.7839 149.195 45.9448 151.724 40.108C151.724 44.4314 151.724 48.7548 151.724 53.0788C151.724 54.0965 151.753 55.1542 151.361 56.1144C151.165 56.5912 150.808 57.0657 150.273 57.1691C152.438 57.1562 154.604 57.192 156.768 57.1509C156.223 57.0798 155.828 56.6253 155.594 56.1608C155.165 55.2863 155.148 54.2874 155.156 53.3343V39.9818C155.165 38.9341 155.08 37.8436 155.471 36.8476C155.687 36.2715 156.131 35.7371 156.754 35.5991C154.862 35.6108 152.969 35.602 151.077 35.6043C148.956 40.5632 146.858 45.5325 144.726 50.4867C142.599 45.5273 140.476 40.5661 138.351 35.6061C136.271 35.5985 134.19 35.6137 132.11 35.5979C132.605 35.7018 133.062 35.982 133.35 36.4007ZM116.46 36.6773C116.801 37.4495 116.849 38.3116 116.85 39.1449C116.848 43.9792 116.853 48.8147 116.846 53.6496C116.83 54.5423 116.764 55.4637 116.388 56.2864C116.201 56.6746 115.908 57.0839 115.452 57.1579C116.438 57.1814 117.424 57.162 118.41 57.1685H129.283C129.531 55.5177 129.779 53.8675 130.026 52.2173C129.717 52.7529 129.425 53.3073 128.996 53.7595C128.637 54.1541 128.168 54.443 127.656 54.5957C126.836 54.8435 125.969 54.8512 125.119 54.8659C123.529 54.8753 121.937 54.8676 120.346 54.8694C120.346 49.5858 120.345 44.3022 120.346 39.0193C120.352 38.1818 120.416 37.3127 120.796 36.5522C121.019 36.1 121.41 35.7089 121.915 35.5973C119.72 35.6102 117.525 35.6085 115.329 35.5979C115.858 35.7465 116.248 36.1857 116.46 36.6773ZM218.889 38.4866C220.468 39.3963 221.579 40.9648 222.185 42.6591C222.682 44.0292 222.888 45.4938 222.886 46.9473C222.88 48.2833 222.671 49.6304 222.168 50.8725C221.751 51.9061 221.12 52.8639 220.279 53.6021C219.39 54.3872 218.265 54.8999 217.087 55.0444C215.694 55.2147 214.24 54.9557 213.015 54.2633C211.409 53.3678 210.276 51.791 209.659 50.0838C209.135 48.6532 208.926 47.1211 208.933 45.603C208.94 44.2723 209.154 42.9281 209.671 41.6972C210.115 40.6348 210.797 39.6605 211.7 38.9388C212.553 38.2505 213.601 37.8089 214.688 37.6686C216.127 37.4865 217.631 37.7555 218.889 38.4866ZM208.599 38.2083C206.866 39.9507 205.79 42.2885 205.446 44.7098C205.043 47.5474 205.503 50.5671 207.034 53.0213C208.153 54.8394 209.885 56.2776 211.895 57.0105C213.562 57.6277 215.383 57.7798 217.141 57.5508C219.455 57.2601 221.664 56.1725 223.275 54.4824C225.039 52.6619 226.09 50.2183 226.383 47.7136C226.707 44.9382 226.226 42.0066 224.722 39.6218C223.571 37.7719 221.774 36.3308 219.705 35.6413C218.18 35.1216 216.536 34.9854 214.938 35.1621C212.561 35.4182 210.275 36.4976 208.599 38.2083ZM166.187 11.2871C167.335 14.2604 168.485 17.2337 169.632 20.2082C167.356 20.2076 165.08 20.2082 162.805 20.2076C163.932 17.2337 165.058 14.2592 166.187 11.2871ZM158.111 25.4195C157.762 26.1413 157.368 26.8518 156.826 27.4485C156.548 27.7439 156.225 28.0352 155.818 28.1274C157.271 28.1344 158.725 28.1285 160.178 28.1303C160.749 28.1233 161.321 28.1473 161.89 28.115C161.361 28.0769 160.874 27.6916 160.73 27.1778C160.533 26.5517 160.725 25.8964 160.925 25.2962C161.275 24.3166 161.641 23.3424 162 22.3652C164.823 22.3658 167.646 22.3652 170.47 22.3658C170.778 23.1779 171.086 23.9895 171.395 24.8017C171.579 25.2886 171.782 25.7719 171.892 26.2816C171.988 26.6845 171.974 27.132 171.775 27.5031C171.591 27.8502 171.223 28.0745 170.84 28.1256C172.083 28.1368 173.325 28.1274 174.569 28.1303C175.747 28.1256 176.925 28.1409 178.102 28.1227C177.573 28.0228 177.165 27.6305 176.816 27.2465C176.076 26.3891 175.59 25.349 175.175 24.3049C172.854 18.4305 170.535 12.5556 168.215 6.68067C167.293 6.68008 166.369 6.68067 165.446 6.68067C163.368 12.0194 161.292 17.3576 159.215 22.697C158.854 23.6066 158.526 24.5316 158.111 25.4195ZM133.338 6.69476C134.132 7.02656 134.863 7.54981 135.36 8.2598C135.759 8.8271 135.963 9.52183 135.96 10.2136C135.961 15.0785 135.96 19.9427 135.96 24.8076C135.955 25.6133 135.894 26.4525 135.521 27.1825C135.289 27.6376 134.882 28.051 134.354 28.1221C135.616 28.1415 136.877 28.1256 138.137 28.1303C138.914 28.1233 139.691 28.1467 140.467 28.1174C140.193 28.0892 139.937 27.9717 139.72 27.8055C139.26 27.4573 138.984 26.9188 138.839 26.3697C138.6 25.4829 138.681 24.5574 138.667 23.6507V12.4452C141.523 15.9999 144.379 19.5546 147.235 23.1086C147.823 23.8398 148.385 24.5915 148.886 25.3849C149.438 26.2593 149.951 27.1643 150.325 28.1303H152.644C152.645 22.0404 152.642 15.95 152.646 9.8595C152.656 9.09254 152.737 8.29739 153.101 7.60853C153.335 7.16104 153.737 6.77991 154.245 6.67714C152.262 6.6836 150.28 6.68243 148.296 6.67773C148.942 6.82219 149.421 7.35895 149.652 7.95737C149.914 8.60746 149.97 9.31746 149.971 10.0116V21.109C146.225 16.3 142.478 11.4903 138.732 6.68125C136.904 6.6789 135.074 6.68242 133.246 6.67949L133.338 6.69476ZM126.076 7.82112C126.46 8.68204 126.444 9.64515 126.439 10.5683V24.4564C126.445 25.3396 126.448 26.2622 126.075 27.0826C125.853 27.5853 125.425 28.0393 124.862 28.1309C127.082 28.1238 129.302 28.1426 131.522 28.1221C130.971 28.0422 130.569 27.5806 130.35 27.0985C129.952 26.227 129.979 25.2457 129.982 24.309C129.982 19.5099 129.982 14.712 129.982 9.91353C129.989 9.08021 130.075 8.20519 130.514 7.47581C130.751 7.09292 131.117 6.74702 131.578 6.67773C129.337 6.68243 127.096 6.68301 124.854 6.67714C125.424 6.82513 125.848 7.29611 126.076 7.82112ZM92.5767 7.9421C92.8457 8.6104 92.9026 9.34036 92.905 10.0545C92.9044 14.7332 92.905 19.4124 92.905 24.0911C92.9091 25.0818 92.9079 26.1113 92.515 27.0386C92.3036 27.536 91.9184 28.0252 91.3587 28.1291C95.9564 28.1326 100.555 28.1297 105.152 28.1297C105.44 26.4085 105.737 24.6878 106.021 22.9654C105.735 23.5479 105.418 24.1264 104.978 24.6085C104.547 25.0912 103.969 25.4301 103.347 25.5992C102.394 25.8641 101.396 25.8353 100.416 25.8365C99.1076 25.8365 97.8004 25.8371 96.492 25.8365C96.4914 23.3377 96.492 20.8383 96.492 18.3389C97.7323 18.3383 98.9731 18.3383 100.214 18.3389C100.838 18.3436 101.484 18.3912 102.055 18.6649C102.37 18.8123 102.644 19.066 102.764 19.3983C102.758 17.9267 102.758 16.4544 102.764 14.9827C102.645 15.2758 102.412 15.5107 102.135 15.6599C101.55 15.9758 100.869 16.0369 100.215 16.0445C98.9743 16.0457 97.7328 16.0451 96.492 16.0451C96.4914 13.6538 96.4926 11.263 96.4914 8.87173C97.9172 8.87055 99.3425 8.87173 100.768 8.87114C101.241 8.87231 101.716 8.89111 102.18 8.988C102.801 9.11015 103.412 9.38734 103.835 9.87066C104.232 10.3099 104.448 10.8725 104.635 11.4251C104.634 9.81956 104.637 8.214 104.634 6.60961C100.145 6.60843 95.6563 6.61371 91.1673 6.60667C91.8374 6.7617 92.3377 7.31784 92.5767 7.9421ZM108.107 6.6789C110.293 6.68066 112.478 6.68243 114.664 6.67831C114.156 6.77286 113.766 7.17455 113.543 7.62321C113.167 8.37491 113.101 9.23348 113.095 10.0609C113.095 15.3222 113.095 20.5828 113.095 25.8441C114.563 25.8447 116.03 25.8441 117.498 25.8447C118.188 25.8418 118.882 25.8347 119.568 25.7431C120.092 25.6697 120.62 25.537 121.073 25.2563C121.843 24.7847 122.3 23.9725 122.725 23.2044C122.478 24.8463 122.231 26.4883 121.984 28.1303H109.099C108.803 28.1291 108.507 28.1379 108.211 28.1168C108.487 28.1009 108.709 27.9095 108.877 27.7069C109.157 27.3586 109.311 26.927 109.418 26.4989C109.587 25.7807 109.617 25.0401 109.617 24.3061C109.616 19.5593 109.617 14.8113 109.616 10.0639C109.61 9.3063 109.553 8.53053 109.261 7.82289C109.054 7.30845 108.662 6.8263 108.107 6.6789Z" fill="#BBD4EA"/>
<path d="M44.4577 60.8301C44.5164 60.8577 44.5669 60.9046 44.5892 60.9663C44.588 60.6932 44.588 60.4196 44.5892 60.1459C44.5675 60.2005 44.524 60.244 44.4723 60.2722C44.3637 60.3303 44.2374 60.3421 44.1159 60.3432C43.8851 60.3438 43.6543 60.3438 43.4241 60.3438C43.4235 59.8993 43.4241 59.4547 43.4235 59.0101H44.2186C44.3061 59.0107 44.3948 59.0143 44.4806 59.0319C44.5963 59.0554 44.7096 59.1065 44.7883 59.1963C44.8617 59.2779 44.9022 59.3825 44.9369 59.4852C44.9369 59.1863 44.9375 58.888 44.9369 58.5903C44.103 58.5903 43.2685 58.5908 42.4346 58.5903C42.5591 58.6184 42.6518 58.7218 42.6965 58.8375C42.7464 58.962 42.757 59.0976 42.757 59.2304V59.3396V59.3472V59.45L43.4241 61.2511V60.7696H44.1153C44.2316 60.7702 44.3514 60.7796 44.4577 60.8301ZM45.0332 62.5889C45.0866 62.2688 45.1418 61.9494 45.1941 61.6293C45.1412 61.738 45.0825 61.8454 45.0009 61.9347C44.921 62.0245 44.813 62.0874 44.6978 62.1185C44.5205 62.1678 44.3349 62.1631 44.1529 62.1631H43.9215L44.1546 62.5889H45.0332ZM42.2331 61.1125C42.0188 60.557 41.8038 60.002 41.5895 59.4465C41.3787 60.002 41.1684 60.557 40.9576 61.1125H42.2331ZM42.6542 62.4256C42.6865 62.3141 42.6466 62.2001 42.6101 62.095C42.5367 61.9018 42.4633 61.7086 42.3893 61.5154C41.862 61.516 41.3346 61.516 40.8078 61.516C40.7544 61.6587 40.7021 61.802 40.6493 61.9447C40.6152 62.0404 40.5776 62.1355 40.5612 62.2354C40.55 62.307 40.553 62.3834 40.5835 62.4497C40.6193 62.5284 40.701 62.5836 40.7873 62.5883C40.7544 62.5907 40.7221 62.593 40.6898 62.593C40.3445 62.5918 39.9992 62.5942 39.6539 62.5913C39.715 62.5777 39.766 62.5384 39.8107 62.4967C39.8982 62.411 39.9651 62.307 40.0233 62.2001C40.1172 62.0275 40.1842 61.8419 40.2558 61.6593C40.654 60.6345 41.0527 59.6103 41.4509 58.5861C41.6236 58.5861 41.7962 58.5856 41.9689 58.5861C42.3952 59.6667 42.8221 60.7467 43.2485 61.8272C43.3037 61.9682 43.3624 62.1085 43.4399 62.2377C43.501 62.3399 43.5721 62.438 43.6637 62.5143C43.7089 62.549 43.7576 62.5819 43.8146 62.5895C43.5292 62.5965 43.2438 62.5907 42.9584 62.5924C42.7916 62.5907 42.6242 62.5965 42.458 62.5889C42.4686 62.5883 42.4792 62.5836 42.4898 62.5813C42.5479 62.5648 42.5943 62.5267 42.6307 62.4785C42.6401 62.4615 42.6489 62.4444 42.6542 62.4256ZM53.3182 59.8998C53.3182 59.8998 52.3252 58.982 51.227 57.448H44.7677C45.5153 58.013 46.0057 58.8956 46.0251 59.8998H53.3182ZM32.3971 59.9116H39.7173C39.7332 58.9086 40.2194 58.0277 40.9617 57.4598H34.4883C33.3902 58.9931 32.3971 59.9116 32.3971 59.9116ZM42.8715 56.2906H50.473C50.0296 55.5623 49.5222 54.7531 49.1687 53.8658L36.4991 53.8652C36.1462 54.7525 35.714 55.5741 35.27 56.3017H42.8715V56.2906ZM63.8401 46.1474C64.1361 44.1572 65.3412 42.9956 65.3412 42.9956C61.0054 45.3376 59.5825 51.2777 59.5825 51.2777C59.2437 49.5864 59.7558 48.3003 59.7558 48.3003C57.9229 50.0304 56.9017 55.6046 56.9017 55.6046C56.9058 54.8048 56.507 54.0572 56.507 54.0572C56.2657 55.4613 54.6842 58.9978 54.6842 58.9978C60.3184 55.1466 64.62 47.9327 64.62 47.9327C63.5565 51.1356 61.4917 53.9104 59.3171 56.132C57.008 58.4916 54.2543 60.3538 51.3198 61.8677C50.554 62.2624 50.0865 62.5918 50.0865 62.5918C50.7572 61.4261 51.7174 60.9358 51.7174 60.9358C49.7547 61.0086 46.294 63.7511 46.294 63.7511C46.7069 63.2842 46.8572 62.6412 46.8572 62.6412C45.9945 63.34 43.0594 64.6009 43.0594 64.6009C48.3389 65.2369 54.757 63.2179 54.757 63.2179C51.5647 65.0912 47.6471 65.3367 44.6344 65.3625C42.9091 65.3567 42.9091 65.3567 41.1256 65.3919C37.9244 65.315 34.0872 65.1599 30.8362 63.2513C30.8362 63.2513 37.2479 65.2709 42.5273 64.6349C42.5273 64.6349 39.5981 63.3741 38.736 62.6752C38.736 62.6752 38.8863 63.3177 39.2986 63.7846C39.2986 63.7846 35.8379 61.0421 33.8753 60.9692C33.8753 60.9692 34.836 61.4596 35.5061 62.6259C35.5061 62.6259 35.0392 62.2964 34.2734 61.9018C31.3395 60.3884 28.5852 58.5251 26.2761 56.1661C24.1009 53.9439 22.0361 51.1697 20.9726 47.9667C20.9726 47.9667 25.2743 55.1806 30.9084 59.0313C30.9084 59.0313 29.3269 55.4954 29.0862 54.0907C29.0862 54.0907 28.6874 54.8388 28.6909 55.6381C28.6909 55.6381 27.6697 50.0644 25.8368 48.3344C25.8368 48.3344 26.3495 49.6193 26.0101 51.3118C26.0101 51.3118 24.5877 45.3716 20.2514 43.0291C20.2514 43.0291 21.4565 44.1913 21.7525 46.1815C21.7525 46.1815 18.5355 40.2666 12.3076 43.042C12.3076 43.042 12.7833 43.0267 13.4492 43.2164C14.5092 43.5188 15.4242 44.1936 16.0607 45.0945C16.9786 46.3935 19.6295 50.0492 21.4336 51.5555C21.4336 51.5555 19.2437 51.2272 18.5971 49.7814C18.5971 49.7814 18.6488 54.493 24.2976 56.6159C24.2976 56.6159 21.9457 56.8631 21.0707 55.9071C21.0707 55.9071 22.9411 59.817 29.2054 60.5699C28.7655 60.5805 28.321 60.6275 27.8782 60.7285C27.8782 60.7285 29.1813 60.7907 30.3764 61.8049C30.3764 61.8049 25.454 59.9909 23.2294 64.8152C23.2294 64.8152 23.9106 64.1769 25.0617 64.0048C25.5338 63.9343 26.0177 63.9789 26.4822 64.0911C27.6873 64.3806 31.1181 65.1617 32.9491 65.1188C32.9491 65.1188 31.498 66.0508 30.3758 65.5352C30.3758 65.5352 32.8252 68.27 37.2262 66.6134C37.2262 66.6134 35.9747 67.9658 34.9711 67.8549C34.9711 67.8549 38.4306 69.3424 42.8192 65.9087C47.1861 69.2954 50.6221 67.8208 50.6221 67.8208C49.6179 67.9324 48.367 66.5799 48.367 66.5799C52.7674 68.236 55.2168 65.5011 55.2168 65.5011C54.0952 66.0167 52.6435 65.0848 52.6435 65.0848C54.4745 65.1282 57.9053 64.3472 59.1104 64.0571C59.9454 63.8556 60.8281 63.9302 61.605 64.2972C62.093 64.528 62.3632 64.7817 62.3632 64.7817C60.1386 59.9574 55.2162 61.7714 55.2162 61.7714C56.4119 60.7567 57.7144 60.695 57.7144 60.695C57.2716 60.594 56.8277 60.547 56.3878 60.5358C62.6515 59.7836 64.5225 55.8736 64.5225 55.8736C63.6469 56.8297 61.2956 56.5824 61.2956 56.5824C66.9444 54.4589 66.9955 49.7473 66.9955 49.7473C66.3489 51.1943 64.159 51.5214 64.159 51.5214C65.9637 50.0151 68.6146 46.3594 69.5324 45.0604C70.1684 44.1601 71.0834 43.4854 72.144 43.1823C72.8094 42.9927 73.285 43.0079 73.285 43.0079C67.0572 40.2331 63.8401 46.1474 63.8401 46.1474ZM30.5525 3.59931H35.3604H47.5578H52.3657C52.3657 3.59931 53.5655 1.17335 56.7478 0.391113V0H47.5578H35.3604H26.1704V0.391113C29.3528 1.17335 30.5525 3.59931 30.5525 3.59931ZM31.387 4.17248V5.60715H34.5524H48.3665H51.5312V4.17248H48.3665H34.5524H31.387ZM25.1169 33.6494C25.6149 32.9552 26.2879 31.8089 26.7495 30.9679C26.7495 30.9679 23.5448 34.293 20.2091 34.3969C20.2091 34.3969 22.439 33.028 23.8466 30.349C23.8466 30.349 14.4387 36.0665 3.23501 30.8017C4.50643 32.2188 5.88355 32.9646 5.88355 32.9646C2.41226 32.1466 0.837231 30.2615 0.000386351 29.0499C-0.00431172 29.2802 -0.0266269 33.115 4.04484 36.4882C10.5205 41.854 20.1962 40.5144 25.1169 33.6494ZM0.413231 28.2983C0.413231 28.2983 1.39982 30.8522 4.12823 32.1295C4.12823 32.1295 2.27073 31.0261 1.45796 28.5884L12.6223 12.77C12.8091 12.7653 13.1644 12.7617 13.6283 12.777L24.9031 30.033C23.994 32.4367 21.7325 33.8091 21.7325 33.8091C24.5096 32.6416 25.959 29.7846 25.959 29.7846L13.7845 12.7817C14.7976 12.821 16.2516 12.952 17.6193 13.3414C18.8444 13.6896 19.9337 14.3925 20.8528 15.2734C22.2011 16.5654 26.3601 19.7401 33.4471 18.1657C33.4471 18.1657 30.3217 17.6736 28.2082 14.3585C28.2082 14.3585 31.7071 17.2813 36.7575 16.9272C36.7575 16.9272 35.4802 17.5074 34.0872 17.2173C34.0872 17.2173 42.0405 21.2617 44.672 44.0955C44.672 44.0955 41.482 27.2553 34.9969 21.0297C34.9969 21.0297 37.06 26.6122 37.9403 34.283C39.4284 38.2353 40.9864 43.2851 41.8262 48.7519C41.8262 48.7519 40.4455 44.4479 38.3132 39.5478C38.4212 43.8395 38.036 48.4771 36.7299 52.9966H48.9009C43.8851 38.8519 47.5361 18.3201 47.5361 18.3201C45.9105 20.4102 42.8145 22.8872 42.8145 22.8872C44.44 21.0298 45.6011 16.9272 45.6011 16.9272C51.3286 17.2366 54.7106 14.3585 54.7106 14.3585C52.5965 17.6736 49.4711 18.1657 49.4711 18.1657C56.8917 19.8147 61.1029 16.2565 62.2375 15.1043C62.7402 14.594 63.304 14.1394 63.9523 13.8358C65.6336 13.0477 67.7953 12.8334 69.1519 12.7817L56.9774 29.7846C56.9774 29.7846 58.4262 32.6416 61.2034 33.8091C61.2034 33.8091 58.9418 32.4367 58.0327 30.033L69.3081 12.7764C69.7809 12.7617 70.1361 12.7658 70.3141 12.7705L81.4785 28.5884C80.6651 31.0261 78.8076 32.1295 78.8076 32.1295C81.536 30.8522 82.5232 28.2983 82.5232 28.2983L70.4474 12.7752C70.3229 12.646 70.1955 12.5262 70.0645 12.4129L70.0533 12.4017L70.0563 12.4053C66.215 9.06728 59.9977 12.0506 59.9977 12.0506C57.7925 13.2756 55.3695 12.7012 53.889 12.1146C53.1826 11.8344 52.5325 11.4404 51.9117 11.0023C51.8753 10.9765 51.762 10.9019 51.6163 10.8067C51.1201 10.4826 51.0767 9.77082 51.5312 9.3891H49.0858C48.7124 9.21703 48.3412 9.06435 47.9742 8.91929H51.4795C52.2682 8.91929 52.9136 8.27448 52.9136 7.48521C52.9136 6.69593 52.2682 6.05112 51.4795 6.05112H47.6882H35.2301H31.4393C30.65 6.05112 30.0046 6.69593 30.0046 7.48521C30.0046 8.27448 30.65 8.91929 31.4393 8.91929H35.0797C34.6898 9.06435 34.2975 9.21703 33.9052 9.3891H31.387C31.8034 9.78961 31.7529 10.4702 31.2825 10.8056C31.1486 10.9013 31.0435 10.9765 31.0071 11.0023C30.3863 11.4404 29.7362 11.8344 29.0298 12.1146C27.5487 12.7012 25.1263 13.2756 22.9205 12.0506C22.9205 12.0506 16.2634 8.85528 12.4708 12.7752C12.4708 12.7752 12.482 12.7746 12.489 12.7741L12.4885 12.7752L0.413231 28.2983ZM78.891 36.4882C72.4153 41.854 62.7396 40.5144 57.8184 33.6494C57.321 32.9552 56.6486 31.8089 56.1864 30.9679C56.1864 30.9679 59.3911 34.293 62.7267 34.3969C62.7267 34.3969 60.4969 33.028 59.0892 30.349C59.0892 30.349 68.4971 36.0665 79.7008 30.8017C78.43 32.2188 77.0523 32.9646 77.0523 32.9646C80.5236 32.1466 82.0986 30.2615 82.9355 29.0499C82.9408 29.2802 82.9625 33.115 78.891 36.4882Z" fill="#BBD4EA"/>
</svg>
