<svg width="557" height="837" viewBox="0 0 557 837" fill="none" xmlns="http://www.w3.org/2000/svg">
<path d="M584.32 0H434.464H321.55V4.80884C360.643 14.4122 375.384 44.1887 375.384 44.1887H434.464H584.32H643.392C643.392 44.1887 658.133 14.4122 697.226 4.80884V0H584.32ZM594.255 51.2397H424.528H385.645V68.8459H424.528H594.255H633.139V51.2397H594.255ZM585.922 74.2893H432.855H386.28C376.582 74.2893 368.652 82.213 368.652 91.903C368.652 101.593 376.582 109.516 386.28 109.516H431.008C426.217 111.283 421.397 113.164 416.577 115.284H385.645C390.753 120.201 390.133 128.55 384.353 132.674C382.708 133.849 381.416 134.765 380.969 135.082C373.342 140.468 365.355 145.306 356.675 148.745C338.478 155.94 308.707 162.991 281.613 147.952C281.613 147.952 199.82 108.73 153.23 156.841C153.23 156.841 153.36 156.841 153.447 156.834L153.44 156.841L5.07717 347.424C5.07717 347.424 17.1918 378.779 50.7216 394.461C50.7216 394.461 27.8994 380.921 17.9133 350.986L155.085 156.791C157.386 156.733 161.744 156.69 167.445 156.87L305.972 368.722C294.803 398.232 267.017 415.088 267.017 415.088C301.138 400.748 318.946 365.672 318.946 365.672L169.364 156.928C181.81 157.411 199.676 159.019 216.487 163.799C231.532 168.074 244.916 176.704 256.208 187.519C272.775 203.388 323.874 242.356 410.949 223.027C410.949 223.027 372.549 216.985 346.581 176.286C346.581 176.286 389.57 212.169 451.622 207.822C451.622 207.822 435.929 214.952 418.814 211.383C418.814 211.383 516.531 261.037 548.863 541.367C548.863 541.367 509.677 334.62 429.99 258.182C429.99 258.182 455.338 326.732 466.161 420.899C484.437 469.428 503.58 531.418 513.905 598.533C513.905 598.533 496.942 545.693 470.735 485.535C472.07 538.231 467.337 595.159 451.283 650.645H600.821C539.195 476.991 584.053 224.93 584.053 224.93C564.081 250.59 526.041 280.993 526.041 280.993C546.013 258.182 560.278 207.822 560.278 207.822C630.657 211.621 672.203 176.286 672.203 176.286C646.235 216.985 607.827 223.027 607.827 223.027C699.001 243.272 750.742 199.581 764.69 185.442C770.859 179.177 777.793 173.597 785.751 169.869C806.409 160.194 832.969 157.562 849.636 156.921L700.054 365.672C700.054 365.672 717.855 400.748 751.976 415.088C751.976 415.088 724.19 398.232 713.02 368.722L851.555 156.863C857.364 156.69 861.722 156.74 863.915 156.791L1001.08 350.986C991.093 380.921 968.271 394.461 968.271 394.461C1001.79 378.779 1013.92 347.424 1013.92 347.424L865.553 156.841C864.031 155.262 862.458 153.792 860.856 152.4L860.719 152.27L860.748 152.313C813.552 111.326 737.163 147.952 737.163 147.952C710.069 162.991 680.299 155.94 662.109 148.745C653.429 145.306 645.441 140.468 637.815 135.082C637.367 134.765 635.975 133.849 634.185 132.681C628.088 128.694 627.554 119.963 633.139 115.284H603.094C598.505 113.164 593.952 111.283 589.435 109.516H632.497C642.194 109.516 650.124 101.593 650.124 91.903C650.124 82.213 642.194 74.2893 632.497 74.2893H585.922ZM946.704 404.713C946.704 404.713 963.632 395.564 979.246 378.167C841.591 442.795 726.001 372.601 726.001 372.601C743.303 405.492 770.693 422.298 770.693 422.298C729.709 421.029 690.335 380.207 690.335 380.207C696.014 390.531 704.283 404.598 710.394 413.127C770.859 497.409 889.732 513.847 969.296 447.972C1019.32 406.559 1019.05 359.486 1019 356.653C1008.71 371.534 989.354 394.67 946.704 404.713ZM49.697 447.972C129.268 513.847 248.141 497.409 308.606 413.127C314.717 404.598 322.979 390.531 328.658 380.207C328.658 380.207 289.283 421.029 248.307 422.298C248.307 422.298 275.697 405.492 292.992 372.601C292.992 372.601 177.402 442.795 39.747 378.167C55.3683 395.564 72.2883 404.713 72.2883 404.713C29.6455 394.67 10.2939 371.534 0.00474691 356.653C-0.052976 359.486 -0.327152 406.559 49.697 447.972ZM784.373 566.558C788.01 542.131 802.816 527.863 802.816 527.863C749.545 556.623 732.062 629.542 732.062 629.542C727.898 608.771 734.19 592.989 734.19 592.989C711.671 614.229 699.124 682.664 699.124 682.664C699.167 672.844 694.275 663.666 694.275 663.666C691.309 680.912 671.878 724.322 671.878 724.322C741.11 677.04 793.962 588.476 793.962 588.476C780.888 627.805 755.526 661.864 728.8 689.138C700.429 718.107 666.597 740.977 630.541 759.563C621.133 764.408 615.389 768.446 615.389 768.446C623.629 754.134 635.426 748.114 635.426 748.114C611.312 749.008 568.792 782.671 568.792 782.671C573.865 776.946 575.712 769.051 575.712 769.051C565.112 777.638 529.05 793.11 529.05 793.11C593.916 800.919 672.773 776.131 672.773 776.131C633.55 799.138 585.416 802.144 548.402 802.462C527.203 802.397 527.203 802.397 505.29 802.822C465.959 801.877 418.821 799.974 378.869 776.55C378.869 776.55 457.654 801.337 522.513 793.521C522.513 793.521 486.523 778.056 475.931 769.47C475.931 769.47 477.778 777.357 482.85 783.089C482.85 783.089 440.323 749.426 416.216 748.525C416.216 748.525 428.013 754.553 436.246 768.857C436.246 768.857 430.51 764.827 421.101 759.974C385.053 741.395 351.22 718.518 322.842 689.549C296.116 662.282 270.754 628.223 257.68 588.894C257.68 588.894 310.533 677.459 379.757 724.733C379.757 724.733 360.326 681.323 357.368 664.084C357.368 664.084 352.461 673.262 352.512 683.075C352.512 683.075 339.964 614.647 317.452 593.4C317.452 593.4 323.744 609.189 319.581 629.961C319.581 629.961 302.098 557.034 248.82 528.274C248.82 528.274 263.625 542.542 267.262 566.976C267.262 566.976 227.736 494.366 151.224 528.433C151.224 528.433 157.069 528.245 165.244 530.574C178.268 534.287 189.509 542.578 197.331 553.631C208.608 569.579 241.178 614.46 263.344 632.953C263.344 632.953 236.438 628.93 228.494 611.172C228.494 611.172 229.129 669.016 298.533 695.079C298.533 695.079 269.636 698.122 258.885 686.377C258.885 686.377 281.873 734.394 358.825 743.623C353.428 743.752 347.966 744.329 342.526 745.569C342.526 745.569 358.536 746.333 373.22 758.785C373.22 758.785 312.74 736.514 285.409 795.742C285.409 795.742 293.779 787.905 307.913 785.792C313.722 784.927 319.667 785.475 325.382 786.845C340.181 790.407 382.333 799.996 404.83 799.469C404.83 799.469 387.001 810.911 373.212 804.581C373.212 804.581 403.308 838.15 457.38 817.826C457.38 817.826 442.011 834.43 429.673 833.067C429.673 833.067 472.179 851.322 526.106 809.174C579.752 850.738 621.962 832.649 621.962 832.649C609.631 834.011 594.263 817.407 594.263 817.407C648.327 837.746 678.423 804.163 678.423 804.163C664.641 810.5 646.812 799.051 646.812 799.051C669.302 799.585 711.455 789.996 726.261 786.434C736.521 783.968 747.365 784.877 756.911 789.39C762.907 792.216 766.226 795.324 766.226 795.324C738.902 736.096 678.415 758.374 678.415 758.374C693.106 745.923 709.109 745.158 709.109 745.158C703.669 743.918 698.214 743.341 692.81 743.212C769.769 733.969 792.75 685.966 792.75 685.966C781.999 697.704 753.109 694.668 753.109 694.668C822.514 668.598 823.141 610.754 823.141 610.754C815.197 628.511 788.291 632.535 788.291 632.535C810.464 614.041 843.034 569.168 854.304 553.22C862.126 542.16 873.375 533.876 886.391 530.163C894.573 527.827 900.418 528.022 900.418 528.022C885.879 521.547 872.675 518.923 860.82 518.923C810.305 518.916 784.373 566.558 784.373 566.558ZM433.353 691.222H526.748V691.085H620.144C614.682 682.152 608.455 672.217 604.112 661.323L448.44 661.316C444.111 672.21 438.8 682.289 433.353 691.222ZM550.04 705.303C559.225 712.238 565.25 723.068 565.488 735.396H655.095C655.095 735.396 642.894 724.135 629.401 705.303H550.04ZM423.742 705.44C410.249 724.272 398.048 735.54 398.048 735.54H487.987C488.182 723.233 494.156 712.404 503.277 705.44H423.742ZM509.287 719.268C504.395 731.842 499.496 744.423 494.604 756.997C493.724 759.239 492.908 761.517 491.747 763.644C491.032 764.956 490.21 766.232 489.135 767.278C488.579 767.797 487.958 768.273 487.208 768.439C489.798 768.46 492.396 768.46 494.986 768.453C496.631 768.453 498.284 768.453 499.936 768.453C500.333 768.46 500.73 768.431 501.127 768.403C500.066 768.352 499.077 767.667 498.637 766.701C498.255 765.879 498.219 764.949 498.356 764.069C498.558 762.837 499.02 761.676 499.438 760.508C500.088 758.749 500.73 756.989 501.386 755.23C507.859 755.23 514.338 755.238 520.817 755.23C521.726 757.61 522.621 759.982 523.523 762.354C523.97 763.637 524.468 765.036 524.071 766.398C524.014 766.636 523.898 766.845 523.776 767.054C523.336 767.646 522.765 768.121 522.051 768.323C521.921 768.352 521.791 768.403 521.661 768.417C522.967 768.475 524.281 768.467 525.587 768.46C526.323 768.453 527.073 768.453 527.809 768.453C529.108 768.453 530.406 768.453 531.712 768.46C533.913 768.467 536.121 768.475 538.329 768.424C537.629 768.33 537.023 767.92 536.482 767.494C535.349 766.564 534.483 765.353 533.726 764.113C532.773 762.505 532.052 760.796 531.373 759.059C526.135 745.8 520.889 732.534 515.651 719.268C513.53 719.268 511.416 719.268 509.287 719.268ZM510.99 729.83C513.631 736.651 516.264 743.471 518.898 750.292H503.226C505.817 743.471 508.4 736.651 510.99 729.83ZM524.591 722.361C525.204 723.882 525.334 725.548 525.334 727.177V728.525V728.612V729.881L533.531 751.986V746.074H542.023C543.445 746.088 544.931 746.204 546.23 746.824C546.951 747.155 547.572 747.739 547.846 748.489C547.832 745.137 547.832 741.777 547.846 738.417C547.579 739.088 547.045 739.628 546.417 739.967C545.068 740.688 543.517 740.825 542.031 740.847C539.195 740.847 536.366 740.847 533.531 740.847C533.524 735.389 533.531 729.931 533.524 724.481C536.778 724.473 540.039 724.481 543.293 724.481C544.368 724.481 545.458 724.524 546.511 724.747C547.925 725.021 549.325 725.656 550.292 726.759C551.194 727.761 551.692 729.044 552.125 730.306C552.118 726.644 552.125 722.981 552.118 719.318C541.872 719.318 531.626 719.333 521.366 719.311C522.903 719.665 524.043 720.934 524.591 722.361ZM552.904 760.378C551.923 761.481 550.595 762.253 549.181 762.635C547.218 763.19 545.184 763.183 543.178 763.183C542.94 763.183 542.716 763.183 542.485 763.183H539.642L542.507 768.41H553.301C553.958 764.488 554.636 760.558 555.278 756.629C554.629 757.956 553.907 759.282 552.904 760.378Z" fill="#EFF4F8"/>
</svg>
