<svg width="80" height="80" viewBox="0 0 80 80" fill="none" xmlns="http://www.w3.org/2000/svg">
<g clip-path="url(#clip0_34_1263)">
<path d="M71.6667 60.0003H8.33334V66.667H71.6667V60.0003Z" fill="#D99E63"/>
<path d="M73.3333 70.0003H6.66668C5.78262 70.0003 4.93478 70.3515 4.30965 70.9766C3.68453 71.6018 3.33334 72.4496 3.33334 73.3337V76.667H76.6667V73.3337C76.6667 72.4496 76.3155 71.6018 75.6904 70.9766C75.0652 70.3515 74.2174 70.0003 73.3333 70.0003Z" fill="#D99E63"/>
<path d="M23.3334 30.0003H16.6667V56.667H23.3334V30.0003Z" fill="#D99E63"/>
<path d="M43.3334 30.0003H36.6667V56.667H43.3334V30.0003Z" fill="#D99E63"/>
<path d="M63.3334 30.0003H56.6667V56.667H63.3334V30.0003Z" fill="#D99E63"/>
<path d="M74.8333 19.0003L40 3.33366L5.16668 19.0003C4.62362 19.2942 4.16797 19.7265 3.84598 20.2534C3.524 20.7803 3.34713 21.383 3.33334 22.0003V23.3337C3.33334 24.2177 3.68453 25.0656 4.30965 25.6907C4.93478 26.3158 5.78262 26.667 6.66668 26.667H73.3333C74.2174 26.667 75.0652 26.3158 75.6904 25.6907C76.3155 25.0656 76.6667 24.2177 76.6667 23.3337V22.0003C76.6529 21.383 76.476 20.7803 76.154 20.2534C75.832 19.7265 75.3764 19.2942 74.8333 19.0003ZM19.3333 20.0003L40 10.667L60.6667 20.0003H19.3333Z" fill="#D99E63"/>
</g>
<defs>
<clipPath id="clip0_34_1263">
<rect width="80" height="80" fill="white" transform="translate(0 0.000335693)"/>
</clipPath>
</defs>
</svg>
