<svg width="80" height="80" viewBox="0 0 80 80" fill="none" xmlns="http://www.w3.org/2000/svg">
<path d="M75.8974 25.7918V38.6123C65.8664 42.3525 53.4096 44.4892 40 44.4892C26.5904 44.4892 14.1336 42.3525 4.10257 38.6123V25.7918C4.10257 23.4397 6.00471 21.5183 8.3258 21.5183H25.7458V18.3115C25.7458 13.3952 29.7595 9.23111 34.7193 9.23111H45.2773C50.2405 9.23111 54.2509 13.3986 54.2509 18.3115V21.5183H71.6708C73.9953 21.5183 75.8974 23.4431 75.8974 25.7918ZM31.0265 18.3115V21.5183H48.9769V18.3115C48.9769 16.2807 47.2876 14.5713 45.2807 14.5713H34.7227C32.7158 14.5713 31.0265 16.2807 31.0265 18.3115ZM34.7227 37.8636V40.0003C34.7227 40.6431 35.145 41.0704 35.7802 41.0704H44.2266C44.8618 41.0704 45.2841 40.6431 45.2841 40.0003V37.8636C45.2841 37.2209 44.8618 36.7935 44.2266 36.7935H35.7802C35.145 36.7935 34.7227 37.2209 34.7227 37.8636ZM4.10257 66.4961V43.2038C14.2383 46.7285 26.5904 48.7593 40 48.7593C53.4096 48.7593 65.7617 46.7285 75.8974 43.2038V66.4961C75.8974 68.8482 73.9953 70.7696 71.6742 70.7696H8.3258C6.00133 70.7696 4.10257 68.8448 4.10257 66.4961ZM45.2807 55.4909V53.3542C45.2807 52.7114 44.8584 52.2841 44.2232 52.2841H35.7768C35.1416 52.2841 34.7193 52.7114 34.7193 53.3542V55.4909C34.7193 56.1337 35.1416 56.561 35.7768 56.561H44.2232C44.8584 56.561 45.2807 56.1337 45.2807 55.4909Z" fill="#D99E63"/>
</svg>
