<svg width="35" height="462" viewBox="0 0 35 462" fill="none" xmlns="http://www.w3.org/2000/svg">
<path d="M0.86184 440.843L7.13407 441.754L7.13407 453.124H14.2203V443.193H20.301V453.124H27.8659L27.8659 440.987H34.1382V462H0.861841L0.86184 440.843Z" fill="#3C4A56" fill-opacity="0.2"/>
<path d="M6.45033e-06 425.842C6.34011e-06 423.315 0.367083 421.092 1.10124 419.173C1.83539 417.222 2.93662 415.479 4.40493 413.944L9.09713 417.926C7.27771 420.229 6.36799 422.644 6.36799 425.17C6.36799 426.482 6.62335 427.489 7.13407 428.193C7.61287 428.864 8.29914 429.2 9.19289 429.2C9.83129 429.2 10.358 429.024 10.7729 428.673C11.1879 428.321 11.5869 427.729 11.9699 426.897C12.3529 426.066 12.8317 424.755 13.4063 422.963C14.4916 419.541 15.8641 417.046 17.5239 415.479C19.1518 413.88 21.4182 413.08 24.3228 413.08C26.4296 413.08 28.2969 413.624 29.9248 414.712C31.5207 415.799 32.7656 417.382 33.6594 419.461C34.5531 421.508 35 423.923 35 426.706C35 432.015 33.3881 436.349 30.1642 439.707L25.3283 435.341C27.4989 432.687 28.5841 429.92 28.5841 427.041C28.5841 425.538 28.2649 424.371 27.6265 423.539C26.9562 422.708 26.0784 422.292 24.9932 422.292C24.2271 422.292 23.6047 422.452 23.1259 422.772C22.6151 423.091 22.1683 423.667 21.7852 424.499C21.3703 425.298 20.9234 426.482 20.4446 428.049C19.2636 431.823 17.8431 434.478 16.1833 436.013C14.5235 437.548 12.4327 438.316 9.91109 438.316C7.93206 438.316 6.19244 437.788 4.69221 436.733C3.19198 435.645 2.04287 434.158 1.24488 432.271C0.414964 430.352 6.55358e-06 428.209 6.45033e-06 425.842Z" fill="#3C4A56" fill-opacity="0.2"/>
<path d="M0.861838 386.716L7.61286 387.627L7.61286 395.495H34.1382V404.371H7.61286V412.718H0.861839L0.861838 386.716Z" fill="#3C4A56" fill-opacity="0.2"/>
<path d="M34.1382 369.105L27.3393 370.592V379.42L34.1382 380.907V390.118L0.861838 380.235L0.861837 369.585L34.1382 359.702V369.105ZM21.0192 378.029V371.984L7.18195 375.006L21.0192 378.029Z" fill="#3C4A56" fill-opacity="0.2"/>
<path d="M16.5185 339.374C16.9653 337.135 17.7793 335.328 18.9603 333.953C20.1414 332.578 21.9448 331.89 24.3707 331.89C27.9777 331.89 30.5153 333.201 31.9836 335.824C33.42 338.447 34.1382 342.109 34.1382 346.811V358.037H0.861837L0.861836 348.106C0.861836 343.308 1.53215 339.646 2.87278 337.119C4.18149 334.561 6.36799 333.281 9.43229 333.281C11.3794 333.281 12.9435 333.873 14.1245 335.056C15.2736 336.208 16.0716 337.647 16.5185 339.374ZM7.03831 349.161H13.9808V346.859C13.9808 345.291 13.6936 344.14 13.119 343.404C12.5445 342.669 11.6188 342.301 10.342 342.301C9.16097 342.301 8.3151 342.701 7.80438 343.5C7.29366 344.268 7.03831 345.531 7.03831 347.29L7.03831 349.161ZM27.8181 346.763C27.8181 344.876 27.5467 343.452 27.0041 342.493C26.4295 341.533 25.3762 341.053 23.844 341.053C22.3757 341.053 21.3224 341.501 20.684 342.397C20.0137 343.292 19.6785 344.588 19.6785 346.283V349.161H27.8181V346.763Z" fill="#3C4A56" fill-opacity="0.2"/>
<path d="M0.861835 319.458H27.2435V306.648L34.1382 307.608L34.1382 328.333H0.861835L0.861835 319.458Z" fill="#3C4A56" fill-opacity="0.2"/>
<path d="M0.861834 294.673H34.1382V303.549H0.861834L0.861834 294.673Z" fill="#3C4A56" fill-opacity="0.2"/>
<path d="M0 277.979C-1.10225e-07 275.452 0.367077 273.23 1.10123 271.311C1.83538 269.36 2.93662 267.616 4.40492 266.081L9.09713 270.063C7.2777 272.366 6.36799 274.781 6.36799 277.307C6.36799 278.619 6.62335 279.626 7.13406 280.33C7.61286 281.002 8.29913 281.337 9.19289 281.337C9.83128 281.337 10.358 281.162 10.7729 280.81C11.1879 280.458 11.5869 279.866 11.9699 279.035C12.3529 278.203 12.8317 276.892 13.4063 275.101C14.4916 271.678 15.8641 269.184 17.5239 267.616C19.1518 266.017 21.4181 265.218 24.3228 265.218C26.4295 265.218 28.2968 265.761 29.9248 266.849C31.5207 267.936 32.7656 269.519 33.6594 271.598C34.5531 273.645 35 276.06 35 278.843C35 284.152 33.3881 288.486 30.1642 291.844L25.3283 287.478C27.4989 284.824 28.5841 282.057 28.5841 279.179C28.5841 277.675 28.2649 276.508 27.6265 275.676C26.9562 274.845 26.0784 274.429 24.9932 274.429C24.2271 274.429 23.6046 274.589 23.1259 274.909C22.6151 275.229 22.1683 275.804 21.7852 276.636C21.3703 277.435 20.9234 278.619 20.4446 280.186C19.2636 283.96 17.8431 286.615 16.1833 288.15C14.5235 289.685 12.4327 290.453 9.91108 290.453C7.93206 290.453 6.19243 289.925 4.6922 288.87C3.19197 287.782 2.04286 286.295 1.24487 284.408C0.414957 282.489 1.03249e-07 280.346 0 277.979Z" fill="#3C4A56" fill-opacity="0.2"/>
<path d="M34.1382 243.961H20.301V252.788H34.1382V261.664H0.861832L0.861832 252.788H13.4542V243.961H0.861832L0.861831 235.085H34.1382V243.961Z" fill="#3C4A56" fill-opacity="0.2"/>
<path d="M0.86183 208.788L7.13406 209.7L7.13406 221.07H14.2202V211.139H20.301V221.07H27.8659V208.932H34.1382V229.945H0.861831L0.86183 208.788Z" fill="#3C4A56" fill-opacity="0.2"/>
<path d="M0.86183 194.854C0.861829 189.577 2.05882 185.339 4.4528 182.14C6.81486 178.942 11.124 177.343 17.3803 177.343C28.5522 177.343 34.1382 182.956 34.1382 194.182V204.833H0.86183L0.86183 194.854ZM7.18194 195.957H27.818V193.655C27.818 191.224 27.052 189.433 25.5198 188.281C23.9877 187.098 21.2745 186.506 17.3803 186.506C14.699 186.506 12.6243 186.794 11.1559 187.37C9.65572 187.913 8.61833 188.713 8.04377 189.769C7.46922 190.792 7.18194 192.103 7.18194 193.703V195.957Z" fill="#3C4A56" fill-opacity="0.2"/>
<path d="M0.861828 153.651H34.1382V162.526H0.861828L0.861828 153.651Z" fill="#3C4A56" fill-opacity="0.2"/>
<path d="M34.1382 122.132V133.31L9.09712 141.754L10.1026 141.61C12.3051 141.29 14.3798 141.051 16.3269 140.891C18.2421 140.699 20.4286 140.603 22.8864 140.603H34.1382L34.1382 148.471H0.861828L0.861827 137.532L25.9986 128.801C23.6046 129.185 21.4501 129.488 19.5349 129.712C17.6197 129.904 15.4172 130 12.9275 130H0.861827L0.861826 122.132H34.1382Z" fill="#3C4A56" fill-opacity="0.2"/>
<path d="M0.957586 97.052C0.957586 94.5892 1.3885 92.4943 2.25034 90.7672C3.08025 89.0081 4.2134 87.6807 5.64979 86.7852C7.05426 85.8896 8.61832 85.4419 10.342 85.4419C12.0337 85.4419 13.6138 85.7617 15.0821 86.4014C16.5504 87.0411 18.274 88.2404 20.2531 89.9996C22.2321 91.7267 24.7059 94.2854 27.6744 97.6757V84.7222L34.1382 85.6338V107.367H28.2011C24.5303 103.561 21.7373 100.762 19.8222 98.971C17.875 97.1799 16.2791 95.9326 15.0342 95.2289C13.7574 94.5253 12.4966 94.1735 11.2517 94.1735C10.0707 94.1735 9.145 94.5093 8.47468 95.1809C7.77245 95.8526 7.42133 96.7801 7.42133 97.9635C7.42133 99.083 7.69265 100.09 8.23529 100.986C8.746 101.85 9.57591 102.729 10.725 103.625L6.75102 108.566C4.93159 107.191 3.51117 105.544 2.48973 103.625C1.4683 101.674 0.957586 99.4828 0.957586 97.052Z" fill="#3C4A56" fill-opacity="0.2"/>
<path d="M0.957585 69.253C0.957585 65.1591 2.42589 62.0247 5.36251 59.8498C8.29912 57.6749 12.4966 56.5874 17.9548 56.5874C23.4131 56.5874 27.6265 57.6749 30.5951 59.8498C33.5317 62.0247 35 65.1591 35 69.253C35 73.347 33.5317 76.4974 30.5951 78.7043C27.6265 80.8792 23.4131 81.9666 17.9548 81.9666C12.4646 81.9666 8.2672 80.8792 5.36251 78.7043C2.42589 76.4974 0.957585 73.347 0.957585 69.253ZM7.18193 69.253C7.18193 70.2445 7.51709 71.0281 8.1874 71.6039C8.8258 72.1796 9.92703 72.5954 11.4911 72.8512C13.0232 73.1071 15.1778 73.235 17.9548 73.235C20.7638 73.235 22.9503 73.1071 24.5144 72.8512C26.0465 72.5954 27.1477 72.1796 27.818 71.6039C28.4564 71.0281 28.7756 70.2445 28.7756 69.253C28.7756 68.2615 28.4724 67.4939 27.8659 66.9502C27.2275 66.3745 26.1423 65.9587 24.6101 65.7028C23.046 65.447 20.8276 65.319 17.9548 65.319C15.0821 65.319 12.8796 65.447 11.3475 65.7028C9.78339 65.9587 8.69812 66.3745 8.09165 66.9502C7.48517 67.4939 7.18193 68.2615 7.18193 69.253Z" fill="#3C4A56" fill-opacity="0.2"/>
<path d="M0.957584 40.7674C0.957584 36.6735 2.42589 33.5391 5.36251 31.3642C8.29912 29.1893 12.4966 28.1018 17.9548 28.1018C23.4131 28.1018 27.6265 29.1893 30.5951 31.3642C33.5317 33.5391 35 36.6735 35 40.7674C35 44.8614 33.5317 48.0118 30.5951 50.2186C27.6265 52.3935 23.4131 53.481 17.9548 53.481C12.4646 53.481 8.2672 52.3936 5.36251 50.2187C2.42589 48.0118 0.957584 44.8614 0.957584 40.7674ZM7.18193 40.7674C7.18193 41.7589 7.51709 42.5425 8.1874 43.1182C8.8258 43.6939 9.92703 44.1097 11.4911 44.3656C13.0232 44.6215 15.1778 44.7494 17.9548 44.7494C20.7638 44.7494 22.9503 44.6215 24.5144 44.3656C26.0465 44.1097 27.1477 43.6939 27.818 43.1182C28.4564 42.5425 28.7756 41.7589 28.7756 40.7674C28.7756 39.7759 28.4724 39.0083 27.8659 38.4646C27.2275 37.8889 26.1423 37.4731 24.6101 37.2172C23.046 36.9613 20.8276 36.8334 17.9548 36.8334C15.0821 36.8334 12.8796 36.9613 11.3475 37.2172C9.78339 37.4731 8.69812 37.8889 8.09164 38.4646C7.48517 39.0083 7.18193 39.7759 7.18193 40.7674Z" fill="#3C4A56" fill-opacity="0.2"/>
<path d="M12.1614 9.40325C12.1614 7.58017 12.5923 5.96499 13.4542 4.5577C14.316 3.11843 15.5609 1.99899 17.1888 1.1994C18.8167 0.399799 20.7638 9.92622e-08 23.0301 0C25.2006 -9.5068e-08 27.2116 0.49575 29.0629 1.48725C30.8823 2.44677 32.3347 3.85405 33.42 5.70912C34.4733 7.5322 35 9.69111 35 12.1858C35 16.4717 33.6274 19.6861 30.8823 21.829C28.1053 23.9399 24.275 24.9954 19.3912 24.9954C15.7205 24.9954 12.4966 24.4037 9.71955 23.2203C6.94253 22.0049 4.78795 20.2938 3.2558 18.0869C1.72366 15.848 0.957583 13.2253 0.957582 10.2188C0.957582 7.27633 1.67578 4.7496 3.11216 2.63867L8.13952 5.70912C7.30961 7.11641 6.89465 8.55568 6.89465 10.0269C6.89465 11.6901 7.56497 13.0494 8.9056 14.1049C10.2462 15.1603 12.1933 15.8 14.7469 16.0239C13.0232 14.1688 12.1614 11.962 12.1614 9.40325ZM29.015 12.1379C29.015 10.9225 28.5043 10.0269 27.4829 9.45123C26.4295 8.84354 24.9772 8.53969 23.1258 8.53969C21.2107 8.53969 19.87 8.81155 19.104 9.35528C18.306 9.899 17.907 10.7786 17.907 11.9939C17.907 12.6656 18.0825 13.3533 18.4336 14.0569C18.7528 14.7605 19.2316 15.4162 19.87 16.0239C22.1363 16.0239 23.9398 15.912 25.2804 15.6881C26.5891 15.4322 27.5467 15.0324 28.1532 14.4887C28.7278 13.913 29.015 13.1294 29.015 12.1379Z" fill="#3C4A56" fill-opacity="0.2"/>
</svg>
