<svg xmlns="http://www.w3.org/2000/svg" width="80" height="80" viewBox="0 0 80 80" fill="none">
  <path d="M18.9876 21.1948L16.587 23.5954C15.9557 24.2268 15.9557 25.2504 16.587 25.882C16.9028 26.1978 17.3167 26.3556 17.7303 26.3556C18.144 26.3556 18.5579 26.1978 18.8734 25.882L21.274 23.4814C21.9054 22.85 21.9054 21.8264 21.274 21.1948C20.6429 20.5634 19.6192 20.5636 18.9876 21.1948Z" fill="#002240"/>
  <path d="M10.8712 29.3115L9.39311 30.7896C8.7617 31.4209 8.7617 32.4446 9.39311 33.076C9.70889 33.3918 10.1226 33.5496 10.5362 33.5496C10.95 33.5496 11.3639 33.3918 11.6794 33.076L13.1575 31.5979C13.7887 30.9667 13.7887 29.9429 13.1575 29.3115C12.5262 28.6803 11.5026 28.6803 10.8712 29.3115Z" fill="#002240"/>
  <path d="M79.5264 28.8179L60.7861 10.0776C60.1547 9.44637 59.131 9.44637 58.4997 10.0776L50.9005 17.6768C50.5974 17.98 50.4269 18.3912 50.4269 18.8199C50.4269 19.2487 50.5974 19.6599 50.9005 19.9631L51.5383 20.6009L49.2724 22.8668C48.4654 23.6738 47.4496 24.1476 46.0819 24.3529L33.1967 24.3709C32.3085 24.3709 31.4853 24.6554 30.8109 25.137L29.7873 24.1135L30.4196 23.4812C30.7228 23.1781 30.8932 22.7668 30.8932 22.3381C30.8932 21.9093 30.7228 21.4981 30.4196 21.1949L21.5001 12.2756C20.869 11.6442 19.8451 11.6442 19.2137 12.2756L0.473593 31.0157C0.170468 31.3188 0 31.7301 0 32.1588C0 32.5876 0.170468 32.9988 0.473593 33.302L9.39311 42.2215C9.70889 42.5372 10.1226 42.6951 10.5362 42.6951C10.95 42.6951 11.3639 42.5372 11.6794 42.2215L12.2128 41.688L14.5859 44.0613C15.3692 44.8444 15.975 45.7632 16.3864 46.7916L16.4781 47.0207C17.0529 48.4583 17.8997 49.7421 18.9943 50.8368L37.166 69.0084C38.0907 69.9331 39.3054 70.3956 40.5202 70.3956C41.7351 70.3956 42.9496 69.9333 43.8744 69.0084C44.3394 68.5433 44.6885 68.0055 44.9213 67.4313C46.6598 68.1942 48.7657 67.8653 50.1871 66.4439C50.6119 66.0189 50.9469 65.5275 51.1824 64.9928C52.98 65.9652 55.2782 65.6928 56.7957 64.1753C58.3147 62.6563 58.5921 60.3585 57.628 58.555C58.145 58.3274 58.6285 58.0025 59.0504 57.5808C59.0521 57.5791 59.0624 57.5688 59.0641 57.5671C60.9227 55.7085 60.9227 52.6843 59.0641 50.8257L58.9468 50.7083L62.0038 47.6515C62.9128 46.7422 64.2024 45.111 64.84 43.5163L64.9375 43.2777C65.3477 42.2522 65.9539 41.3341 66.7396 40.5485L69.1128 38.1752L69.641 38.7033C69.9441 39.0065 70.3553 39.1769 70.7841 39.1769C71.2128 39.1769 71.6241 39.0065 71.9272 38.7033L79.5264 31.1041C80.1578 30.4731 80.1578 29.4493 79.5264 28.8179ZM11.0697 38.2585C11.0689 38.2593 11.0681 38.2604 11.067 38.2613L10.5361 38.7923L3.90312 32.1588L20.357 15.705L26.9903 22.3381L26.3606 22.9678C26.3598 22.9685 26.3587 22.9693 26.3578 22.9703L11.0697 38.2585ZM56.7833 55.2753C56.7816 55.2771 56.7713 55.2872 56.7696 55.2891C56.1755 55.8832 55.2372 55.876 54.6341 55.2724C54.5418 55.18 45.1819 45.8857 45.1819 45.8857C45.0029 45.7068 44.7918 45.5802 44.5674 45.5029C44.1491 45.3583 43.684 45.3885 43.2868 45.5972C43.146 45.6713 43.0137 45.7674 42.8954 45.8857C42.5404 46.2408 42.3849 46.7201 42.4293 47.184C42.4343 47.2355 42.4416 47.2868 42.4515 47.3377C42.4712 47.4396 42.5009 47.5399 42.5402 47.6372C42.6191 47.8319 42.7374 48.0143 42.8952 48.1721C42.8952 48.1721 54.6116 59.8761 54.6793 59.9255C55.0986 60.5236 55.0429 61.3556 54.509 61.8892C53.9202 62.4781 52.9621 62.4781 52.3735 61.8892L39.8554 49.4368C39.7371 49.3185 39.6048 49.2222 39.464 49.1482C38.854 48.8275 38.0818 48.9238 37.5688 49.4368C37.1874 49.8182 37.0382 50.3422 37.1174 50.8368C37.1693 51.1613 37.3187 51.473 37.5688 51.723L48.1335 62.2875C48.4858 62.8735 48.4086 63.6491 47.9004 64.1574C47.6151 64.4427 47.2358 64.5997 46.8326 64.5997C46.4293 64.5997 46.0501 64.4425 45.7649 64.1574L34.1346 52.5927C33.5032 51.9614 32.4796 51.9614 31.8481 52.5927C31.8087 52.6322 31.7717 52.6732 31.7371 52.7155C31.2192 53.3505 31.2562 54.2872 31.8481 54.8791L41.8212 64.852C42.1735 65.438 42.0962 66.2136 41.5879 66.7219C40.9991 67.3106 40.041 67.3105 39.4524 66.7219L21.2807 48.55C20.4975 47.7668 19.8917 46.8482 19.4804 45.8197L19.3887 45.5905C18.8137 44.153 17.9672 42.8693 16.8725 41.7746L14.4993 39.4013L27.501 26.3998L29.1053 28.0038C29.0862 28.1624 29.0751 28.3234 29.0745 28.487C29.0745 28.5009 29.0745 28.5149 29.0748 28.529C29.1518 31.8659 31.8998 34.5807 35.2079 34.5807L38.233 34.5674L56.7779 53.1124C57.3757 53.7102 57.3757 54.683 56.7833 55.2753ZM64.453 38.2635C63.3561 39.3604 62.5091 40.6448 61.9399 42.0683L61.8424 42.309C61.4752 43.2269 60.6014 44.4894 59.7174 45.3735L56.668 48.4299L48.0762 39.838C51.0644 39.7693 52.7686 38.9223 52.869 38.871L51.3963 35.9924L51.4122 35.9843C51.3869 35.9965 48.8868 37.1674 44.5093 36.271L40.0454 31.8071L40.0309 31.8134C39.7302 31.5265 39.3302 31.3949 38.9132 31.3949C38.9109 31.3949 38.9085 31.3949 38.9063 31.3949L35.2013 31.3795C33.6504 31.3795 32.3579 30.0634 32.3087 28.4796C32.3196 28.0035 32.7226 27.6046 33.1992 27.6046L46.2012 27.5865C46.2746 27.5865 46.348 27.5813 46.4205 27.5713C48.5455 27.2773 50.2263 26.4863 51.559 25.1537L53.825 22.8879L66.8267 35.8899L64.453 38.2635ZM70.7841 35.274L70.2567 34.7466C70.2564 34.7463 70.2563 34.7462 70.256 34.7459L54.968 19.4579C54.9677 19.4576 54.9675 19.4574 54.9672 19.4571L54.3302 18.8201L59.643 13.5073L76.0967 29.961L70.7841 35.274Z" fill="#002240"/>
</svg>