<svg width="1040" height="463" viewBox="0 0 1040 463" fill="none" xmlns="http://www.w3.org/2000/svg">
<g clip-path="url(#clip0_301_1805)">
<path d="M527.278 369.579L539.375 362.582L527.278 355.584L527.278 369.579Z" fill="white"/>
<path d="M490.382 362.581L504.629 370.83L504.629 354.34L490.382 362.581Z" fill="white"/>
<path d="M480.254 342.105L491.992 335.306L480.254 328.517L480.254 342.105Z" fill="white"/>
<path d="M494.857 308.03L502.39 312.394L502.39 303.677L494.857 308.03Z" fill="white"/>
<path d="M529.284 311.541L535.351 308.03L529.284 304.526L529.284 311.541Z" fill="white"/>
<path d="M541.959 335.306L549.554 339.704L549.554 330.915L541.959 335.306Z" fill="white"/>
<path d="M537.091 389.857L551.988 398.479L551.988 381.243L537.091 389.857Z" fill="white"/>
<path d="M478.012 400.537L496.473 389.857L478.012 379.177L478.012 400.537Z" fill="white"/>
<path d="M443.383 335.306L457.414 343.427L457.414 327.188L443.383 335.306Z" fill="white"/>
<path d="M482.069 284.402L488.362 280.758L482.069 277.117L482.069 284.402Z" fill="white"/>
<path d="M543.958 280.758L548.552 283.416L548.552 278.1L543.958 280.758Z" fill="white"/>
<path d="M576.42 338.83L582.508 335.306L576.42 331.788L576.42 338.83Z" fill="white"/>
<path d="M524.875 428.299L544.177 417.133L524.875 405.966L524.875 428.299Z" fill="white"/>
<path d="M486.267 417.133L506.683 428.947L506.683 405.319L486.267 417.133Z" fill="white"/>
<path d="M439.493 389.857L459.359 401.352L459.359 378.365L439.493 389.857Z" fill="white"/>
<path d="M430.954 373.118L449.159 362.581L430.954 352.052L430.954 373.118Z" fill="white"/>
<path d="M433.118 314.816L444.835 308.03L433.118 301.255L433.118 314.816Z" fill="white"/>
<path d="M447.536 280.758L455.339 285.272L455.339 276.247L447.536 280.758Z" fill="white"/>
<path d="M496.596 253.486L501.522 256.332L501.522 250.636L496.596 253.486Z" fill="white"/>
<path d="M529.763 256.164L534.398 253.486L529.763 250.804L529.763 256.164Z" fill="white"/>
<path d="M577.029 283.224L581.291 280.758L577.029 278.295L577.029 283.224Z" fill="white"/>
<path d="M591.324 308.03L595.586 310.5L595.586 305.571L591.324 308.03Z" fill="white"/>
<path d="M588.736 362.581L596.878 367.291L596.878 357.872L588.736 362.581Z" fill="white"/>
<path d="M574.106 397.4L587.143 389.857L574.106 382.318L574.106 397.4Z" fill="white"/>
<path d="M571.269 456.88L592.817 444.408L571.269 431.937L571.269 456.88Z" fill="white"/>
<path d="M532.2 444.408L554.435 457.274L554.435 431.543L532.2 444.408Z" fill="white"/>
<path d="M476.207 458.223L500.083 444.408L476.207 430.594L476.207 458.223Z" fill="white"/>
<path d="M436.427 444.408L460.894 458.562L460.894 430.252L436.427 444.408Z" fill="white"/>
<path d="M429.649 429.93L451.767 417.133L429.649 404.336L429.649 429.93Z" fill="white"/>
<path d="M392.65 362.581L412.066 373.816L412.066 351.35L392.65 362.581Z" fill="white"/>
<path d="M383.818 345.832L402.003 335.306L383.818 324.787L383.818 345.832Z" fill="white"/>
<path d="M396.216 308.03L410.285 316.172L410.285 299.892L396.216 308.03Z" fill="white"/>
<path d="M434.803 257.343L441.465 253.486L434.803 249.629L434.803 257.343Z" fill="white"/>
<path d="M449.142 226.21L454.533 229.331L454.533 223.09L449.142 226.21Z" fill="white"/>
<path d="M482.476 229.135L487.538 226.21L482.476 223.281L482.476 229.135Z" fill="white"/>
<path d="M543.938 226.21L548.566 228.889L548.566 223.531L543.938 226.21Z" fill="white"/>
<path d="M577.015 228.697L581.319 226.21L577.015 223.72L577.015 228.697Z" fill="white"/>
<path d="M591.296 253.486L595.6 255.969L595.6 250.996L591.296 253.486Z" fill="white"/>
<path d="M624.35 310.195L628.086 308.03L624.35 305.872L624.35 310.195Z" fill="white"/>
<path d="M638.58 335.306L642.671 337.676L642.671 332.939L638.58 335.306Z" fill="white"/>
<path d="M623.413 366.37L629.955 362.582L623.413 358.803L623.413 366.37Z" fill="white"/>
<path d="M583.346 417.133L599.575 426.521L599.575 407.741L583.346 417.133Z" fill="white"/>
<path d="M576.707 471.684L602.894 486.831L602.894 456.534L576.707 471.684Z" fill="white"/>
<path d="M522.468 487.023L548.983 471.684L522.468 456.342L522.468 487.023Z" fill="white"/>
<path d="M481.98 471.684L508.826 487.214L508.826 456.15L481.98 471.684Z" fill="white"/>
<path d="M427.898 487.519L455.268 471.684L427.898 455.849L427.898 487.519Z" fill="white"/>
<path d="M390.432 417.133L413.177 430.293L413.177 403.973L390.432 417.133Z" fill="white"/>
<path d="M382.789 402.168L404.064 389.857L382.789 377.547L382.789 402.168Z" fill="white"/>
<path d="M345.391 335.306L364.981 346.644L364.981 323.975L345.391 335.306Z" fill="white"/>
<path d="M385.896 287.674L397.849 280.758L385.896 273.842L385.896 287.674Z" fill="white"/>
<path d="M400.174 253.486L408.306 258.192L408.306 248.779L400.174 253.486Z" fill="white"/>
<path d="M435.148 202.188L440.771 198.934L435.148 195.68L435.148 202.188Z" fill="white"/>
<path d="M496.35 198.934L501.642 201.993L501.642 195.872L496.35 198.934Z" fill="white"/>
<path d="M529.653 201.808L534.616 198.934L529.653 196.064L529.653 201.808Z" fill="white"/>
<path d="M591.077 198.934L595.709 201.613L595.709 196.256L591.077 198.934Z" fill="white"/>
<path d="M624.268 255.784L628.243 253.486L624.268 251.187L624.268 255.784Z" fill="white"/>
<path d="M638.884 280.758L642.521 282.865L642.521 278.651L638.884 280.758Z" fill="white"/>
<path d="M671.537 337.395L675.137 335.306L671.537 333.227L671.537 337.395Z" fill="white"/>
<path d="M635.018 389.857L644.452 395.317L644.452 384.397L635.018 389.857Z" fill="white"/>
<path d="M620.716 425.597L635.346 417.133L620.716 408.669L620.716 425.597Z" fill="white"/>
<path d="M387.544 471.684L414.622 487.348L414.622 456.017L387.544 471.684Z" fill="white"/>
<path d="M381.538 458.884L406.562 444.408L381.538 429.926L381.538 458.884Z" fill="white"/>
<path d="M343.85 389.857L365.753 402.527L365.753 377.187L343.85 389.857Z" fill="white"/>
<path d="M335.796 374.632L356.623 362.581L335.796 350.535L335.796 374.632Z" fill="white"/>
<path d="M336.665 318.577L354.887 308.03L336.665 297.487L336.665 318.577Z" fill="white"/>
<path d="M348.758 280.758L363.299 289.174L363.299 272.345L348.758 280.758Z" fill="white"/>
<path d="M387.516 230.314L394.609 226.21L387.516 222.107L387.516 230.314Z" fill="white"/>
<path d="M401.65 198.934L407.567 202.356L407.567 195.513L401.65 198.934Z" fill="white"/>
<path d="M448.985 171.662L454.611 174.913L454.611 168.405L448.985 171.662Z" fill="white"/>
<path d="M482.288 174.913L487.914 171.662L482.288 168.405L482.288 174.913Z" fill="white"/>
<path d="M543.712 171.662L548.675 174.533L548.675 168.788L543.712 171.662Z" fill="white"/>
<path d="M576.796 174.533L581.76 171.662L576.796 168.788L576.796 174.533Z" fill="white"/>
<path d="M624.158 201.421L628.462 198.934L624.158 196.448L624.158 201.421Z" fill="white"/>
<path d="M638.662 226.21L642.633 228.508L642.633 223.912L638.662 226.21Z" fill="white"/>
<path d="M671.524 282.864L675.161 280.758L671.524 278.651L671.524 282.864Z" fill="white"/>
<path d="M686.242 308.03L689.554 309.945L689.554 306.119L686.242 308.03Z" fill="white"/>
<path d="M685.552 362.581L689.9 365.099L689.9 360.067L685.552 362.581Z" fill="white"/>
<path d="M670.115 394.413L677.984 389.857L670.115 385.301L670.115 394.413Z" fill="white"/>
<path d="M627.97 444.408L647.976 455.982L647.976 432.834L627.97 444.408Z" fill="white"/>
<path d="M616.878 486.81L643.023 471.684L616.878 456.558L616.878 486.81Z" fill="white"/>
<path d="M341.703 444.408L366.826 458.938L366.826 429.875L341.703 444.408Z" fill="white"/>
<path d="M334.915 430.707L358.377 417.133L334.915 403.558L334.915 430.707Z" fill="white"/>
<path d="M297.007 362.581L318.46 374.991L318.46 350.172L297.007 362.581Z" fill="white"/>
<path d="M288.592 347.455L309.596 335.306L288.592 323.156L288.592 347.455Z" fill="white"/>
<path d="M298.351 308.03L317.786 319.279L317.786 296.785L298.351 308.03Z" fill="white"/>
<path d="M338.61 260.645L350.99 253.486L338.61 246.32L338.61 260.645Z" fill="white"/>
<path d="M352.716 226.21L361.32 231.184L361.32 221.237L352.716 226.21Z" fill="white"/>
<path d="M387.797 175.276L394.045 171.662L387.797 168.042L387.797 175.276Z" fill="white"/>
<path d="M401.401 144.387L407.69 148.021L407.69 140.749L401.401 144.387Z" fill="white"/>
<path d="M435.035 147.832L440.99 144.387L435.035 140.941L435.035 147.832Z" fill="white"/>
<path d="M496.128 144.387L501.754 147.637L501.754 141.129L496.128 144.387Z" fill="white"/>
<path d="M529.544 147.449L534.835 144.387L529.544 141.324L529.544 147.449Z" fill="white"/>
<path d="M590.855 144.387L595.818 147.257L595.818 141.513L590.855 144.387Z" fill="white"/>
<path d="M624.049 147.062L628.684 144.387L624.049 141.705L624.049 147.062Z" fill="white"/>
<path d="M638.439 171.662L642.743 174.149L642.743 169.172L638.439 171.662Z" fill="white"/>
<path d="M671.411 228.508L675.383 226.21L671.411 223.912L671.411 228.508Z" fill="white"/>
<path d="M686.023 253.486L689.664 255.589L689.664 251.379L686.023 253.486Z" fill="white"/>
<path d="M718.776 309.945L722.085 308.03L718.776 306.119L718.776 309.945Z" fill="white"/>
<path d="M733.611 335.306L736.585 337.032L736.585 333.586L733.611 335.306Z" fill="white"/>
<path d="M718.66 364.702L722.321 362.582L718.66 360.461L718.66 364.702Z" fill="white"/>
<path d="M680.551 417.133L692.398 423.987L692.398 410.279L680.551 417.133Z" fill="white"/>
<path d="M666.328 455.527L685.552 444.408L666.328 433.287L666.328 455.527Z" fill="white"/>
<path d="M334.186 486.522L359.833 471.684L334.186 456.846L334.186 486.522Z" fill="white"/>
<path d="M295.254 417.133L319.338 431.067L319.338 403.199L295.254 417.133Z" fill="white"/>
<path d="M287.826 403.342L311.131 389.857L287.826 376.379L287.826 403.342Z" fill="white"/>
<path d="M249.577 335.306L271.46 347.966L271.46 322.649L249.577 335.306Z" fill="white"/>
<path d="M289.46 291.4L307.86 280.758L289.46 270.112L289.46 291.4Z" fill="white"/>
<path d="M301.331 253.486L316.299 262.145L316.299 244.823L301.331 253.486Z" fill="white"/>
<path d="M340.151 203.418L347.907 198.934L340.151 194.447L340.151 203.418Z" fill="white"/>
<path d="M354.066 171.662L360.643 175.464L360.643 167.857L354.066 171.662Z" fill="white"/>
<path d="M387.674 120.937L394.291 117.111L387.674 113.281L387.674 120.937Z" fill="white"/>
<path d="M448.77 117.111L454.724 120.557L454.724 113.665L448.77 117.111Z" fill="white"/>
<path d="M482.182 120.557L488.136 117.111L482.182 113.665L482.182 120.557Z" fill="white"/>
<path d="M543.497 117.111L548.785 120.173L548.785 114.049L543.497 117.111Z" fill="white"/>
<path d="M576.687 120.173L581.978 117.111L576.687 114.049L576.687 120.173Z" fill="white"/>
<path d="M638.221 117.111L642.852 119.786L642.852 114.429L638.221 117.111Z" fill="white"/>
<path d="M671.301 174.149L675.601 171.662L671.301 169.172L671.301 174.149Z" fill="white"/>
<path d="M685.801 198.934L689.776 201.233L689.776 196.636L685.801 198.934Z" fill="white"/>
<path d="M718.776 255.397L722.085 253.486L718.776 251.568L718.776 255.397Z" fill="white"/>
<path d="M733.385 280.758L736.694 282.669L736.694 278.843L733.385 280.758Z" fill="white"/>
<path d="M766.138 336.84L768.787 335.306L766.138 333.775L766.138 336.84Z" fill="white"/>
<path d="M731.611 389.857L737.583 393.317L737.583 386.401L731.611 389.857Z" fill="white"/>
<path d="M716.192 423.531L727.253 417.133L716.192 410.731L716.192 423.531Z" fill="white"/>
<path d="M670.72 471.684L697.317 487.07L697.317 456.298L670.72 471.684Z" fill="white"/>
<path d="M295.059 471.684L319.434 485.786L319.434 457.582L295.059 471.684Z" fill="white"/>
<path d="M287.337 458.74L312.105 444.408L287.337 430.077L287.337 458.74Z" fill="white"/>
<path d="M247.823 389.857L272.338 404.041L272.338 375.676L247.823 389.857Z" fill="white"/>
<path d="M240.31 376.711L264.733 362.581L240.31 348.452L240.31 376.711Z" fill="white"/>
<path d="M241.408 320.262L262.542 308.03L241.408 295.802L241.408 320.262Z" fill="white"/>
<path d="M251.184 280.758L270.657 292.027L270.657 269.492L251.184 280.758Z" fill="white"/>
<path d="M291.248 233.759L304.291 226.21L291.248 218.661L291.248 233.759Z" fill="white"/>
<path d="M305.16 198.934L314.382 204.268L314.382 193.598L305.16 198.934Z" fill="white"/>
<path d="M340.531 148.213L347.148 144.387L340.531 140.557L340.531 148.213Z" fill="white"/>
<path d="M354.043 117.111L360.657 120.937L360.657 113.281L354.043 117.111Z" fill="white"/>
<path d="M401.182 89.8352L407.796 93.6613L407.796 86.0092L401.182 89.8352Z" fill="white"/>
<path d="M434.93 93.4729L441.212 89.8352L434.93 86.1976L434.93 93.4729Z" fill="white"/>
<path d="M495.909 89.8352L501.864 93.2811L501.864 86.3894L495.909 89.8352Z" fill="white"/>
<path d="M529.431 93.0893L535.057 89.8352L529.431 86.5812L529.431 93.0893Z" fill="white"/>
<path d="M590.637 89.8353L595.928 92.9009L595.928 86.7731L590.637 89.8353Z" fill="white"/>
<path d="M623.94 92.7057L628.903 89.8353L623.94 86.9649L623.94 92.7057Z" fill="white"/>
<path d="M671.192 119.786L675.824 117.111L671.192 114.429L671.192 119.786Z" fill="white"/>
<path d="M685.582 144.387L689.882 146.877L689.882 141.9L685.582 144.387Z" fill="white"/>
<path d="M718.667 201.038L722.304 198.934L718.667 196.831L718.667 201.038Z" fill="white"/>
<path d="M733.166 226.21L736.807 228.313L736.807 224.107L733.166 226.21Z" fill="white"/>
<path d="M766.029 282.481L769.006 280.758L766.029 279.038L766.029 282.481Z" fill="white"/>
<path d="M780.75 308.03L783.728 309.757L783.728 306.314L780.75 308.03Z" fill="white"/>
<path d="M780.511 362.582L783.847 364.51L783.847 360.656L780.511 362.582Z" fill="white"/>
<path d="M765.041 393.293L770.978 389.857L765.041 386.425L765.041 393.293Z" fill="white"/>
<path d="M723.001 444.408L741.89 455.332L741.89 433.482L723.001 444.408Z" fill="white"/>
<path d="M710.73 487.557L738.171 471.684L710.73 455.808L710.73 487.557Z" fill="white"/>
<path d="M248.114 444.408L272.195 458.339L272.195 430.474L248.114 444.408Z" fill="white"/>
<path d="M240.119 431.598L265.119 417.133L240.119 402.668L240.119 431.598Z" fill="white"/>
<path d="M199.481 362.581L225.794 377.81L225.794 347.356L199.481 362.581Z" fill="white"/>
<path d="M192.586 350.442L218.749 335.306L192.586 320.173L192.586 350.442Z" fill="white"/>
<path d="M201.83 308.295L224.472 321.397L224.472 295.196L201.83 308.295Z" fill="white"/>
<path d="M242.437 263.926L260.481 253.486L242.437 243.045L242.437 263.926Z" fill="white"/>
<path d="M254.202 226.21L269.149 234.856L269.149 217.561L254.202 226.21Z" fill="white"/>
<path d="M292.851 176.42L301.078 171.662L292.851 166.901L292.851 176.42Z" fill="white"/>
<path d="M306.482 144.387L313.722 148.576L313.722 140.194L306.482 144.387Z" fill="white"/>
<path d="M340.343 93.9901L347.524 89.8352L340.343 85.6803L340.343 93.9901Z" fill="white"/>
<path d="M353.602 62.5596L360.879 66.7693L360.879 58.3499L353.602 62.5596Z" fill="white"/>
<path d="M387.561 66.5809L394.513 62.5596L387.561 58.5417L387.561 66.5809Z" fill="white"/>
<path d="M448.544 62.5596L454.83 66.1972L454.83 58.9219L448.544 62.5596Z" fill="white"/>
<path d="M482.069 66.1972L488.355 62.5596L482.069 58.9219L482.069 66.1972Z" fill="white"/>
<path d="M543.271 62.5596L548.897 65.8136L548.897 59.3056L543.271 62.5596Z" fill="white"/>
<path d="M576.574 65.8136L582.201 62.5596L576.574 59.3056L576.574 65.8136Z" fill="white"/>
<path d="M637.998 62.5596L642.962 65.43L642.962 59.6926L637.998 62.5596Z" fill="white"/>
<path d="M671.083 65.43L676.046 62.5596L671.083 59.6926L671.083 65.43Z" fill="white"/>
<path d="M685.364 89.8353L689.995 92.5173L689.995 87.1533L685.364 89.8353Z" fill="white"/>
<path d="M718.554 146.682L722.526 144.387L718.554 142.085L718.554 146.682Z" fill="white"/>
<path d="M733.166 171.662L736.807 173.762L736.807 169.556L733.166 171.662Z" fill="white"/>
<path d="M765.919 228.121L769.228 226.21L765.919 224.292L765.919 228.121Z" fill="white"/>
<path d="M780.75 253.486L783.728 255.209L783.728 251.763L780.75 253.486Z" fill="white"/>
<path d="M813.25 309.623L815.992 308.03L813.25 306.448L813.25 309.623Z" fill="white"/>
<path d="M827.487 335.306L831.073 337.385L831.073 333.234L827.487 335.306Z" fill="white"/>
<path d="M812.707 365.113L817.079 362.582L812.707 360.054L812.707 365.113Z" fill="white"/>
<path d="M774.605 417.133L786.801 424.192L786.801 410.073L774.605 417.133Z" fill="white"/>
<path d="M760.348 455.993L780.368 444.408L760.348 432.821L760.348 455.993Z" fill="white"/>
<path d="M241.196 484.282L262.962 471.684L241.196 459.086L241.196 484.282Z" fill="white"/>
<path d="M200.356 417.133L225.356 431.598L225.356 402.668L200.356 417.133Z" fill="white"/>
<path d="M192.473 405.196L218.981 389.857L192.473 374.522L192.473 405.196Z" fill="white"/>
<path d="M150.943 335.306L179.348 351.744L179.348 318.875L150.943 335.306Z" fill="white"/>
<path d="M194.141 293.199L215.648 280.758L194.141 268.317L194.141 293.199Z" fill="white"/>
<path d="M204.444 253.486L223.312 264.399L223.312 242.569L204.444 253.486Z" fill="white"/>
<path d="M244.173 206.357L257.005 198.934L244.173 191.512L244.173 206.357Z" fill="white"/>
<path d="M257.77 171.662L267.362 177.208L267.362 166.11L257.77 171.662Z" fill="white"/>
<path d="M293.169 121.321L300.446 117.111L293.169 112.898L293.169 121.321Z" fill="white"/>
<path d="M306.455 89.8352L313.736 94.0449L313.736 85.6255L306.455 89.8352Z" fill="white"/>
<path d="M340.202 39.6889L347.811 35.2874L340.202 30.8824L340.202 39.6889Z" fill="white"/>
<path d="M400.96 35.2874L407.912 39.3052L407.912 31.2661L400.96 35.2874Z" fill="white"/>
<path d="M434.704 39.3052L441.656 35.2874L434.704 31.2661L434.704 39.3052Z" fill="white"/>
<path d="M495.687 35.2874L501.973 38.9216L501.973 31.6497L495.687 35.2874Z" fill="white"/>
<path d="M529.322 38.7298L535.276 35.2874L529.322 31.8415L529.322 38.7298Z" fill="white"/>
<path d="M590.414 35.2874L596.041 38.538L596.041 32.0334L590.414 35.2874Z" fill="white"/>
<path d="M623.83 38.3496L629.121 35.2874L623.83 32.2217L623.83 38.3496Z" fill="white"/>
<path d="M685.141 35.2874L690.105 38.1544L690.105 32.417L685.141 35.2874Z" fill="white"/>
<path d="M718.445 92.3255L722.745 89.8353L718.445 87.3485L718.445 92.3255Z" fill="white"/>
<path d="M732.944 117.111L736.916 119.406L736.916 114.813L732.944 117.111Z" fill="white"/>
<path d="M765.81 173.762L769.447 171.662L765.81 169.556L765.81 173.762Z" fill="white"/>
<path d="M780.528 198.934L783.837 200.849L783.837 197.02L780.528 198.934Z" fill="white"/>
<path d="M813.172 255.209L816.149 253.486L813.172 251.763L813.172 255.209Z" fill="white"/>
<path d="M828.112 280.758L830.761 282.289L830.761 279.227L828.112 280.758Z" fill="white"/>
<path d="M859.395 338.632L865.134 335.306L859.395 331.99L859.395 338.632Z" fill="white"/>
<path d="M823.18 389.857L833.226 395.67L833.226 384.044L823.18 389.857Z" fill="white"/>
<path d="M809.183 425.775L824.123 417.133L809.183 408.491L809.183 425.775Z" fill="white"/>
<path d="M762.255 471.684L792.977 489.458L792.977 453.907L762.255 471.684Z" fill="white"/>
<path d="M203.333 471.684L223.869 483.566L223.869 459.802L203.333 471.684Z" fill="white"/>
<path d="M193.94 457.195L216.048 444.408L193.94 431.618L193.94 457.195Z" fill="white"/>
<path d="M152.208 389.857L178.719 405.196L178.719 374.522L152.208 389.857Z" fill="white"/>
<path d="M144.633 379.133L173.233 362.582L144.633 346.034L144.633 379.133Z" fill="white"/>
<path d="M144.848 324.208L172.805 308.03L144.848 291.859L144.848 324.208Z" fill="white"/>
<path d="M154.112 280.758L177.769 294.445L177.769 267.074L154.112 280.758Z" fill="white"/>
<path d="M195.498 236.294L212.931 226.21L195.498 216.123L195.498 236.294Z" fill="white"/>
<path d="M207.424 198.934L221.822 207.265L221.822 190.604L207.424 198.934Z" fill="white"/>
<path d="M245.537 149.446L254.28 144.387L245.537 139.324L245.537 149.446Z" fill="white"/>
<path d="M259.028 117.111L266.736 121.571L266.736 112.648L259.028 117.111Z" fill="white"/>
<path d="M293.056 66.9645L300.668 62.5596L293.056 58.1581L293.056 66.9645Z" fill="white"/>
<path d="M306.014 35.2874L313.954 39.8807L313.954 30.6906L306.014 35.2874Z" fill="white"/>
<path d="M353.379 8.01171L360.988 12.4132L360.988 3.60678L353.379 8.01171Z" fill="white"/>
<path d="M387.455 12.2214L394.732 8.01172L387.455 3.80203L387.455 12.2214Z" fill="white"/>
<path d="M448.103 8.01172L455.052 12.0296L455.052 3.99042L448.103 8.01172Z" fill="white"/>
<path d="M481.96 11.8378L488.577 8.0117L481.96 4.18222L481.96 11.8378Z" fill="white"/>
<path d="M542.83 8.01172L549.116 11.6494L549.116 4.37405L542.83 8.01172Z" fill="white"/>
<path d="M576.465 11.4542L582.419 8.01173L576.465 4.56589L576.465 11.4542Z" fill="white"/>
<path d="M637.557 8.01171L643.184 11.2657L643.184 4.75769L637.557 8.01171Z" fill="white"/>
<path d="M670.973 11.074L676.265 8.01174L670.973 4.94611L670.973 11.074Z" fill="white"/>
<path d="M718.335 37.966L722.967 35.2874L718.335 32.6054L718.335 37.966Z" fill="white"/>
<path d="M732.507 62.5596L737.135 65.2416L737.135 59.8776L732.507 62.5596Z" fill="white"/>
<path d="M765.697 119.406L769.669 117.111L765.697 114.813L765.697 119.406Z" fill="white"/>
<path d="M780.31 144.387L783.947 146.49L783.947 142.28L780.31 144.387Z" fill="white"/>
<path d="M813.062 200.849L816.371 198.934L813.062 197.02L813.062 200.849Z" fill="white"/>
<path d="M827.894 226.21L830.871 227.933L830.871 224.487L827.894 226.21Z" fill="white"/>
<path d="M860.294 282.515L863.333 280.758L860.294 279.001L860.294 282.515Z" fill="white"/>
<path d="M873.649 308.03L878.708 310.959L878.708 305.108L873.649 308.03Z" fill="white"/>
<path d="M869.629 362.582L880.718 368.997L880.718 356.166L869.629 362.582Z" fill="white"/>
<path d="M856.565 398.085L870.788 389.857L856.565 381.63L856.565 398.085Z" fill="white"/>
<path d="M812.703 444.408L838.466 459.312L838.466 429.502L812.703 444.408Z" fill="white"/>
<path d="M803.153 490.794L836.189 471.684L803.153 452.571L803.153 490.794Z" fill="white"/>
<path d="M155.769 444.408L176.935 456.65L176.935 432.163L155.769 444.408Z" fill="white"/>
<path d="M146.427 430.567L169.647 417.133L146.427 403.699L146.427 430.567Z" fill="white"/>
<path d="M103.773 362.581L132.219 379.04L132.219 346.126L103.773 362.581Z" fill="white"/>
<path d="M96.7276 353.182L127.621 335.306L96.7276 317.436L96.7276 353.182Z" fill="white"/>
<path d="M102.313 308.03L132.95 325.76L132.95 290.311L102.313 308.03Z" fill="white"/>
<path d="M146.886 266.118L168.724 253.486L146.886 240.85L146.886 266.118Z" fill="white"/>
<path d="M157.516 226.21L176.063 236.941L176.063 215.479L157.516 226.21Z" fill="white"/>
<path d="M197.04 179.068L209.844 171.662L197.04 164.25L197.04 179.068Z" fill="white"/>
<path d="M210.384 144.387L220.345 150.148L220.345 138.618L210.384 144.387Z" fill="white"/>
<path d="M245.807 94.4286L253.744 89.8352L245.807 85.2385L245.807 94.4286Z" fill="white"/>
<path d="M258.874 62.5596L266.811 67.1529L266.811 57.9662L258.874 62.5596Z" fill="white"/>
<path d="M292.841 12.7934L301.109 8.0117L292.841 3.22656L292.841 12.7934Z" fill="white"/>
<path d="M732.285 8.01175L737.248 10.8822L737.248 5.14136L732.285 8.01175Z" fill="white"/>
<path d="M765.588 65.0498L769.888 62.5596L765.588 60.0728L765.588 65.0498Z" fill="white"/>
<path d="M780.087 89.8353L784.059 92.1302L784.059 87.5369L780.087 89.8353Z" fill="white"/>
<path d="M812.953 146.49L816.59 144.387L812.953 142.28L812.953 146.49Z" fill="white"/>
<path d="M827.671 171.662L830.98 173.577L830.98 169.744L827.671 171.662Z" fill="white"/>
<path d="M860.315 227.933L863.292 226.21L860.315 224.487L860.315 227.933Z" fill="white"/>
<path d="M874.996 253.486L878.034 255.239L878.034 251.729L874.996 253.486Z" fill="white"/>
<path d="M905.492 313.168L914.369 308.03L905.492 302.899L905.492 313.168Z" fill="white"/>
<path d="M914.024 335.306L929.231 344.105L929.231 326.51L914.024 335.306Z" fill="white"/>
<path d="M902.795 372.402L919.76 362.582L902.795 352.768L902.795 372.402Z" fill="white"/>
<path d="M861.015 417.133L885.025 431.022L885.025 403.243L861.015 417.133Z" fill="white"/>
<path d="M851.448 461.521L881.025 444.409L851.448 427.296L851.448 461.521Z" fill="white"/>
<path d="M147.73 482.85L167.036 471.684L147.73 460.514L147.73 482.85Z" fill="white"/>
<path d="M107.69 417.133L130.263 430.193L130.263 404.075L107.69 417.133Z" fill="white"/>
<path d="M98.6827 404.336L123.704 389.857L98.6827 375.382L98.6827 404.336Z" fill="white"/>
<path d="M54.7154 335.306L86.0393 353.429L86.0393 317.182L54.7154 335.306Z" fill="white"/>
<path d="M97.1037 297.977L126.862 280.758L97.1037 263.542L97.1037 297.977Z" fill="white"/>
<path d="M106.459 253.486L130.878 267.612L130.878 239.36L106.459 253.486Z" fill="white"/>
<path d="M148.561 208.669L165.381 198.934L148.561 189.203L148.561 208.669Z" fill="white"/>
<path d="M160.428 171.662L174.607 179.862L174.607 163.455L160.428 171.662Z" fill="white"/>
<path d="M198.236 122.444L207.452 117.111L198.236 111.781L198.236 122.444Z" fill="white"/>
<path d="M211.444 89.8352L219.812 94.6786L219.812 84.9919L211.444 89.8352Z" fill="white"/>
<path d="M245.697 40.0691L253.966 35.2873L245.697 30.5022L245.697 40.0691Z" fill="white"/>
<path d="M258.498 8.0117L266.999 12.927L266.999 3.09299L258.498 8.0117Z" fill="white"/>
<path d="M765.478 10.6938L770.11 8.01174L765.478 5.32974L765.478 10.6938Z" fill="white"/>
<path d="M779.869 35.2874L784.169 37.7741L784.169 32.7972L779.869 35.2874Z" fill="white"/>
<path d="M812.84 92.1302L816.812 89.8353L812.84 87.5369L812.84 92.1302Z" fill="white"/>
<path d="M827.453 117.111L831.09 119.214L831.09 115.004L827.453 117.111Z" fill="white"/>
<path d="M860.315 173.382L863.292 171.662L860.315 169.936L860.315 173.382Z" fill="white"/>
<path d="M875.037 198.934L878.014 200.657L878.014 197.212L875.037 198.934Z" fill="white"/>
<path d="M906.86 256.236L911.625 253.486L906.86 250.728L906.86 256.236Z" fill="white"/>
<path d="M918.44 280.758L927.027 285.728L927.027 275.791L918.44 280.758Z" fill="white"/>
<path d="M948.336 347.904L970.109 335.306L948.336 322.711L948.336 347.904Z" fill="white"/>
<path d="M907.304 389.857L932.595 404.49L932.595 375.228L907.304 389.857Z" fill="white"/>
<path d="M898.851 433.797L927.652 417.133L898.851 400.469L898.851 433.797Z" fill="white"/>
<path d="M852.545 471.684L889.26 492.924L889.26 450.44L852.545 471.684Z" fill="white"/>
<path d="M109.908 471.684L129.152 482.816L129.152 460.552L109.908 471.684Z" fill="white"/>
<path d="M100.184 456.277L120.703 444.408L100.184 432.54L100.184 456.277Z" fill="white"/>
<path d="M59.0871 389.857L83.8481 404.188L83.8481 375.529L59.0871 389.857Z" fill="white"/>
<path d="M50.5483 378.78L78.543 362.581L50.5483 346.387L50.5483 378.78Z" fill="white"/>
<path d="M48.5145 327.76L82.6174 308.03L48.5145 288.304L48.5145 327.76Z" fill="white"/>
<path d="M53.9016 280.758L86.4424 299.583L86.4424 261.936L53.9016 280.758Z" fill="white"/>
<path d="M99.7835 238.774L121.502 226.21L99.7835 213.646L99.7835 238.774Z" fill="white"/>
<path d="M111.04 198.934L128.585 209.087L128.585 188.782L111.04 198.934Z" fill="white"/>
<path d="M150.013 151.59L162.466 144.387L150.013 137.183L150.013 151.59Z" fill="white"/>
<path d="M163.06 117.111L173.291 123.03L173.291 111.192L163.06 117.111Z" fill="white"/>
<path d="M198.441 67.5399L207.042 62.5596L198.441 57.5826L198.441 67.5399Z" fill="white"/>
<path d="M211.287 35.2873L219.89 40.2643L219.89 30.3069L211.287 35.2873Z" fill="white"/>
<path d="M812.731 37.7741L817.031 35.2874L812.731 32.7972L812.731 37.7741Z" fill="white"/>
<path d="M827.231 62.5596L831.202 64.8546L831.202 60.2612L827.231 62.5596Z" fill="white"/>
<path d="M860.205 119.026L863.514 117.111L860.205 115.2L860.205 119.026Z" fill="white"/>
<path d="M874.815 144.387L878.123 146.301L878.123 142.468L874.815 144.387Z" fill="white"/>
<path d="M907.338 200.863L910.671 198.934L907.338 197.006L907.338 200.863Z" fill="white"/>
<path d="M920.83 226.21L925.83 229.101L925.83 223.316L920.83 226.21Z" fill="white"/>
<path d="M950.715 289.218L965.344 280.758L950.715 272.297L950.715 289.218Z" fill="white"/>
<path d="M957.308 308.03L978.306 320.18L978.306 295.888L957.308 308.03Z" fill="white"/>
<path d="M952.639 362.582L980.64 378.787L980.64 346.38L952.639 362.582Z" fill="white"/>
<path d="M945.738 406.96L975.301 389.857L945.738 372.755L945.738 406.96Z" fill="white"/>
<path d="M901.206 444.409L935.64 464.33L935.641 424.487L901.206 444.409Z" fill="white"/>
<path d="M896.257 492.849L932.841 471.684L896.257 450.516L896.257 492.849Z" fill="white"/>
<path d="M62.153 444.408L82.3166 456.071L82.3167 432.742L62.153 444.408Z" fill="white"/>
<path d="M52.5755 429.817L74.4995 417.133L52.5755 404.449L52.5755 429.817Z" fill="white"/>
<path d="M9.69818 362.581L37.8296 378.858L37.8296 346.304L9.69818 362.581Z" fill="white"/>
<path d="M1.98001 353.984L34.2576 335.306L1.98001 316.631L1.98001 353.984Z" fill="white"/>
<path d="M4.93315 308.03L40.2119 328.441L40.2119 287.626L4.93315 308.03Z" fill="white"/>
<path d="M49.8409 270.917L79.9651 253.486L49.8409 236.054L49.8409 270.917Z" fill="white"/>
<path d="M59.6613 226.21L83.5645 240.041L83.5645 212.379L59.6613 226.21Z" fill="white"/>
<path d="M101.913 180.53L117.243 171.662L101.913 162.791L101.913 180.53Z" fill="white"/>
<path d="M113.959 144.387L127.129 152.008L127.129 136.762L113.959 144.387Z" fill="white"/>
<path d="M151.004 95.3225L160.49 89.8352L151.004 84.3479L151.004 95.3225Z" fill="white"/>
<path d="M163.928 62.5596L172.857 67.7283L172.857 57.3942L163.928 62.5596Z" fill="white"/>
<path d="M198.332 13.1771L207.264 8.0117L198.332 2.84293L198.332 13.1771Z" fill="white"/>
<path d="M826.506 8.01176L831.565 10.9404L831.565 5.07971L826.506 8.01176Z" fill="white"/>
<path d="M860.096 64.6662L863.733 62.5596L860.096 60.4531L860.096 64.6662Z" fill="white"/>
<path d="M874.596 89.8353L878.233 91.9419L878.233 87.7288L874.596 89.8353Z" fill="white"/>
<path d="M907.454 146.106L910.435 144.387L907.454 142.66L907.454 146.106Z" fill="white"/>
<path d="M921.876 171.662L925.307 173.642L925.307 169.676L921.876 171.662Z" fill="white"/>
<path d="M952.434 231.687L961.906 226.21L952.434 220.73L952.434 231.687Z" fill="white"/>
<path d="M961.42 253.486L976.248 262.063L976.248 244.905L961.42 253.486Z" fill="white"/>
<path d="M993.752 323.619L1020.7 308.03L993.752 292.445L993.752 323.619Z" fill="white"/>
<path d="M997.417 335.306L1028.96 353.556L1028.96 317.056L997.417 335.306Z" fill="white"/>
<path d="M992.125 380.999L1023.96 362.582L992.125 344.167L992.125 380.999Z" fill="white"/>
<path d="M949.385 417.133L982.267 436.16L982.267 398.105L949.385 417.133Z" fill="white"/>
<path d="M944.34 463.936L978.097 444.408L944.34 424.877L944.34 463.936Z" fill="white"/>
<path d="M54.0076 481.871L71.6248 471.684L54.0076 461.487L54.0076 481.871Z" fill="white"/>
<path d="M14.4631 417.133L35.447 429.275L35.447 404.99L14.4631 417.133Z" fill="white"/>
<path d="M4.7008 403.812L28.8159 389.857L4.7008 375.906L4.7008 403.812Z" fill="white"/>
<path d="M0.605977 301.813L36.999 280.758L0.60598 259.703L0.605977 301.813Z" fill="white"/>
<path d="M6.90557 253.486L39.2241 272.181L39.2241 234.787L6.90557 253.486Z" fill="white"/>
<path d="M53.4984 210.008L72.647 198.934L53.4984 187.857L53.4984 210.008Z" fill="white"/>
<path d="M65.3525 171.662L80.717 180.551L80.717 162.77L65.3525 171.662Z" fill="white"/>
<path d="M103.209 123.732L114.653 117.111L103.209 110.49L103.209 123.732Z" fill="white"/>
<path d="M115.999 89.8352L126.107 95.6822L126.107 83.9882L115.999 89.8352Z" fill="white"/>
<path d="M151.114 40.5863L160.274 35.2873L151.114 29.985L151.114 40.5863Z" fill="white"/>
<path d="M163.703 8.01171L172.966 13.3689L172.966 2.65112L163.703 8.01171Z" fill="white"/>
<path d="M859.402 11.3206L865.121 8.01178L859.402 4.69952L859.402 11.3206Z" fill="white"/>
<path d="M874.155 35.2874L878.455 37.7742L878.455 32.7972L874.155 35.2874Z" fill="white"/>
<path d="M907.348 91.75L910.654 89.8353L907.348 87.924L907.348 91.75Z" fill="white"/>
<path d="M921.982 117.111L925.253 119.005L925.253 115.217L921.982 117.111Z" fill="white"/>
<path d="M953.565 175.177L959.646 171.662L953.565 168.144L953.565 175.177Z" fill="white"/>
<path d="M964.531 198.934L974.693 204.812L974.693 193.057L964.531 198.934Z" fill="white"/>
<path d="M995.438 266.149L1017.33 253.486L995.438 240.816L995.438 266.149Z" fill="white"/>
<path d="M1000.61 280.758L1027.37 296.237L1027.37 265.282L1000.61 280.758Z" fill="white"/>
<path d="M996.279 389.857L1029.53 409.097L1029.53 370.617L996.279 389.857Z" fill="white"/>
<path d="M992.013 435.746L1024.18 417.133L992.013 398.52L992.013 435.746Z" fill="white"/>
<path d="M951.244 471.684L981.338 489.095L981.338 454.27L951.244 471.684Z" fill="white"/>
<path d="M18.3394 471.684L33.5056 480.46L33.5056 462.905L18.3394 471.684Z" fill="white"/>
<path d="M7.07993 454.225L24.051 444.408L7.07993 434.591L7.07993 454.225Z" fill="white"/>
<path d="M3.5215 242.21L31.1743 226.21L3.52151 210.21L3.5215 242.21Z" fill="white"/>
<path d="M15.0133 198.934L35.1736 210.598L35.1736 187.271L15.0133 198.934Z" fill="white"/>
<path d="M55.6619 151.71L68.3193 144.386L55.6619 137.06L55.6619 151.71Z" fill="white"/>
<path d="M67.9776 117.111L79.4011 123.718L79.4011 110.5L67.9776 117.111Z" fill="white"/>
<path d="M103.807 68.1462L113.459 62.5595L103.807 56.9763L103.807 68.1462Z" fill="white"/>
<path d="M116.406 35.2873L125.905 40.7781L125.905 29.7932L116.406 35.2873Z" fill="white"/>
<path d="M907.014 37.7742L911.317 35.2874L907.014 32.7972L907.014 37.7742Z" fill="white"/>
<path d="M921.958 62.5597L925.266 64.4744L925.266 60.6483L921.958 62.5597Z" fill="white"/>
<path d="M954.14 119.629L958.494 117.111L954.14 114.593L954.14 119.629Z" fill="white"/>
<path d="M966.732 144.387L973.596 148.353L973.596 140.413L966.732 144.387Z" fill="white"/>
<path d="M997.037 208.823L1014.13 198.934L997.037 189.046L997.037 208.823Z" fill="white"/>
<path d="M1003.07 226.21L1026.14 239.558L1026.14 212.858L1003.07 226.21Z" fill="white"/>
<path d="M994.364 486.207L1019.47 471.684L994.364 457.154L994.364 486.207Z" fill="white"/>
<path d="M7.67135 180.451L22.8718 171.662L7.67135 162.866L7.67135 180.451Z" fill="white"/>
<path d="M20.4481 144.387L32.4561 151.33L32.4561 137.437L20.4481 144.387Z" fill="white"/>
<path d="M56.3901 95.898L66.8633 89.8352L56.3901 83.7758L56.3901 95.898Z" fill="white"/>
<path d="M68.9381 62.5596L78.9226 68.338L78.9226 56.7811L68.9381 62.5596Z" fill="white"/>
<path d="M103.714 13.7491L113.641 8.0117L103.714 2.2709L103.714 13.7491Z" fill="white"/>
<path d="M919.425 8.01177L926.531 12.1256L926.531 3.89456L919.425 8.01177Z" fill="white"/>
<path d="M954.362 64.7005L958.06 62.5597L954.362 60.4189L954.362 64.7005Z" fill="white"/>
<path d="M968.079 89.8353L972.919 92.6372L972.919 87.0334L968.079 89.8353Z" fill="white"/>
<path d="M998.627 151.518L1010.95 144.387L998.627 137.255L998.627 151.518Z" fill="white"/>
<path d="M1006.07 171.662L1024.64 182.401L1024.64 160.917L1006.07 171.662Z" fill="white"/>
<path d="M9.1786 123.283L19.8501 117.111L9.1786 110.935L9.1786 123.283Z" fill="white"/>
<path d="M21.6002 89.8352L31.8787 95.7849L31.8787 83.8889L21.6002 89.8352Z" fill="white"/>
<path d="M56.5097 41.1378L66.6274 35.2874L56.5098 29.4335L56.5097 41.1378Z" fill="white"/>
<path d="M68.7604 8.01169L79.0149 13.9443L79.0149 2.07565L68.7604 8.01169Z" fill="white"/>
<path d="M953.237 12.1016L960.306 8.01177L953.237 3.92197L953.237 12.1016Z" fill="white"/>
<path d="M968.267 35.2874L972.827 37.9215L972.827 32.6499L968.267 35.2874Z" fill="white"/>
<path d="M999.892 94.7746L1008.42 89.8353L999.892 84.8994L999.892 94.7746Z" fill="white"/>
<path d="M1009.32 117.111L1023.02 125.037L1023.02 109.185L1009.32 117.111Z" fill="white"/>
<path d="M9.31879 68.4956L19.5732 62.5595L9.3188 56.6269L9.31879 68.4956Z" fill="white"/>
<path d="M21.4875 35.2873L31.9333 41.333L31.9333 29.2383L21.4875 35.2873Z" fill="white"/>
<path d="M1000.77 38.699L1006.67 35.2874L1000.77 31.8724L1000.77 38.699Z" fill="white"/>
<path d="M1012.76 62.5596L1021.3 67.4989L1021.3 57.6237L1012.76 62.5596Z" fill="white"/>
<path d="M9.14448 14.2492L19.9253 8.0117L9.14448 1.77423L9.14448 14.2492Z" fill="white"/>
<path d="M1014.12 8.01177L1020.62 11.7693L1020.62 4.25079L1014.12 8.01177Z" fill="white"/>
</g>
<defs>
<clipPath id="clip0_301_1805">
<rect width="1040" height="463" fill="white" transform="matrix(-1 -8.74228e-08 -8.74228e-08 1 1040 0.00012207)"/>
</clipPath>
</defs>
</svg>
