<svg width="542" height="837" viewBox="0 0 542 837" fill="none" xmlns="http://www.w3.org/2000/svg">
<path d="M107.32 0H-42.5363H-155.45V4.80884C-116.357 14.4122 -101.616 44.1887 -101.616 44.1887H-42.5363H107.32H166.392C166.392 44.1887 181.133 14.4122 220.226 4.80884V0H107.32ZM117.255 51.2397H-52.4718H-91.3554V68.8459H-52.4718H117.255H156.139V51.2397H117.255ZM108.922 74.2893H-44.1452H-90.7205C-100.418 74.2893 -108.348 82.213 -108.348 91.903C-108.348 101.593 -100.418 109.516 -90.7205 109.516H-45.9925C-50.7834 111.283 -55.6033 113.164 -60.4232 115.284H-91.3554C-86.2469 120.201 -86.8674 128.55 -92.6469 132.674C-94.2921 133.849 -95.5836 134.765 -96.031 135.082C-103.658 140.468 -111.645 145.306 -120.325 148.745C-138.522 155.94 -168.293 162.991 -195.387 147.952C-195.387 147.952 -277.18 108.73 -323.77 156.841C-323.77 156.841 -323.64 156.841 -323.553 156.834L-323.56 156.841L-471.923 347.424C-471.923 347.424 -459.808 378.779 -426.278 394.461C-426.278 394.461 -449.101 380.921 -459.087 350.986L-321.915 156.791C-319.614 156.733 -315.256 156.69 -309.555 156.87L-171.028 368.722C-182.197 398.232 -209.983 415.088 -209.983 415.088C-175.862 400.748 -158.054 365.672 -158.054 365.672L-307.636 156.928C-295.19 157.411 -277.324 159.019 -260.513 163.799C-245.468 168.074 -232.084 176.704 -220.792 187.519C-204.225 203.388 -153.126 242.356 -66.0512 223.027C-66.0512 223.027 -104.451 216.985 -130.419 176.286C-130.419 176.286 -87.4302 212.169 -25.3781 207.822C-25.3781 207.822 -41.0715 214.952 -58.1863 211.383C-58.1863 211.383 39.5313 261.037 71.8634 541.367C71.8634 541.367 32.6768 334.62 -47.0098 258.182C-47.0098 258.182 -21.6622 326.732 -10.8391 420.899C7.43744 469.428 26.5798 531.418 36.905 598.533C36.905 598.533 19.9417 545.693 -6.26453 485.535C-4.92969 538.231 -9.66296 595.159 -25.7172 650.645H123.821C62.1948 476.991 107.053 224.93 107.053 224.93C87.0807 250.59 49.0412 280.993 49.0412 280.993C69.0134 258.182 83.2781 207.822 83.2781 207.822C153.657 211.621 195.203 176.286 195.203 176.286C169.235 216.985 130.827 223.027 130.827 223.027C222.001 243.272 273.742 199.581 287.69 185.442C293.859 179.177 300.793 173.597 308.751 169.869C329.409 160.194 355.969 157.562 372.636 156.921L223.054 365.672C223.054 365.672 240.855 400.748 274.976 415.088C274.976 415.088 247.19 398.232 236.02 368.722L374.555 156.863C380.364 156.69 384.722 156.74 386.915 156.791L524.08 350.986C514.093 380.921 491.271 394.461 491.271 394.461C524.794 378.779 536.923 347.424 536.923 347.424L388.553 156.841C387.031 155.262 385.458 153.792 383.856 152.4L383.719 152.27L383.748 152.313C336.552 111.326 260.163 147.952 260.163 147.952C233.069 162.991 203.299 155.94 185.109 148.745C176.429 145.306 168.441 140.468 160.815 135.082C160.367 134.765 158.975 133.849 157.185 132.681C151.088 128.694 150.554 119.963 156.139 115.284H126.094C121.505 113.164 116.952 111.283 112.435 109.516H155.497C165.194 109.516 173.124 101.593 173.124 91.903C173.124 82.213 165.194 74.2893 155.497 74.2893H108.922ZM469.704 404.713C469.704 404.713 486.632 395.564 502.246 378.167C364.591 442.795 249.001 372.601 249.001 372.601C266.303 405.492 293.693 422.298 293.693 422.298C252.709 421.029 213.335 380.207 213.335 380.207C219.014 390.531 227.283 404.598 233.394 413.127C293.859 497.409 412.732 513.847 492.296 447.972C542.32 406.559 542.053 359.486 541.995 356.653C531.706 371.534 512.354 394.67 469.704 404.713ZM-427.303 447.972C-347.732 513.847 -228.859 497.409 -168.394 413.127C-162.283 404.598 -154.021 390.531 -148.342 380.207C-148.342 380.207 -187.717 421.029 -228.693 422.298C-228.693 422.298 -201.303 405.492 -184.008 372.601C-184.008 372.601 -299.598 442.795 -437.253 378.167C-421.632 395.564 -404.712 404.713 -404.712 404.713C-447.355 394.67 -466.706 371.534 -476.995 356.653C-477.053 359.486 -477.327 406.559 -427.303 447.972ZM307.373 566.558C311.01 542.131 325.816 527.863 325.816 527.863C272.545 556.623 255.062 629.542 255.062 629.542C250.898 608.771 257.19 592.989 257.19 592.989C234.671 614.229 222.124 682.664 222.124 682.664C222.167 672.844 217.275 663.666 217.275 663.666C214.309 680.912 194.878 724.322 194.878 724.322C264.11 677.04 316.962 588.476 316.962 588.476C303.888 627.805 278.526 661.864 251.8 689.138C223.429 718.107 189.597 740.977 153.541 759.563C144.133 764.408 138.389 768.446 138.389 768.446C146.629 754.134 158.426 748.114 158.426 748.114C134.312 749.008 91.7923 782.671 91.7923 782.671C96.8647 776.946 98.7119 769.051 98.7119 769.051C88.1125 777.638 52.0501 793.11 52.0501 793.11C116.916 800.919 195.773 776.131 195.773 776.131C156.55 799.138 108.417 802.144 71.4016 802.462C50.2029 802.397 50.2029 802.397 28.2899 802.822C-11.0411 801.877 -58.1792 799.974 -98.1307 776.55C-98.1307 776.55 -19.346 801.337 45.5129 793.521C45.5129 793.521 9.52271 778.056 -1.06946 769.47C-1.06946 769.47 0.777679 777.357 5.85007 783.089C5.85007 783.089 -36.6773 749.426 -60.7839 748.525C-60.7839 748.525 -48.9867 754.553 -40.754 768.857C-40.754 768.857 -46.4902 764.827 -55.899 759.974C-91.947 741.395 -125.78 718.518 -154.158 689.549C-180.884 662.282 -206.246 628.223 -219.32 588.894C-219.32 588.894 -166.467 677.459 -97.2432 724.733C-97.2432 724.733 -116.674 681.323 -119.632 664.084C-119.632 664.084 -124.539 673.262 -124.488 683.075C-124.488 683.075 -137.036 614.647 -159.548 593.4C-159.548 593.4 -153.256 609.189 -157.419 629.961C-157.419 629.961 -174.902 557.034 -228.18 528.274C-228.18 528.274 -213.375 542.542 -209.738 566.976C-209.738 566.976 -249.264 494.366 -325.776 528.433C-325.776 528.433 -319.931 528.245 -311.756 530.574C-298.732 534.287 -287.491 542.578 -279.669 553.631C-268.392 569.579 -235.822 614.46 -213.656 632.953C-213.656 632.953 -240.562 628.93 -248.506 611.172C-248.506 611.172 -247.871 669.016 -178.467 695.079C-178.467 695.079 -207.364 698.122 -218.115 686.377C-218.115 686.377 -195.127 734.394 -118.175 743.623C-123.572 743.752 -129.034 744.329 -134.474 745.569C-134.474 745.569 -118.464 746.333 -103.78 758.785C-103.78 758.785 -164.26 736.514 -191.591 795.742C-191.591 795.742 -183.221 787.905 -169.087 785.792C-163.278 784.927 -157.333 785.475 -151.618 786.845C-136.819 790.407 -94.6673 799.996 -72.1697 799.469C-72.1697 799.469 -89.9989 810.911 -103.788 804.581C-103.788 804.581 -73.6921 838.15 -19.6202 817.826C-19.6202 817.826 -34.989 834.43 -47.3273 833.067C-47.3273 833.067 -4.8215 851.322 49.1062 809.174C102.752 850.738 144.962 832.649 144.962 832.649C132.631 834.011 117.263 817.407 117.263 817.407C171.327 837.746 201.423 804.163 201.423 804.163C187.641 810.5 169.812 799.051 169.812 799.051C192.302 799.585 234.455 789.996 249.261 786.434C259.521 783.968 270.365 784.877 279.911 789.39C285.907 792.216 289.226 795.324 289.226 795.324C261.902 736.096 201.415 758.374 201.415 758.374C216.106 745.923 232.109 745.158 232.109 745.158C226.669 743.918 221.214 743.341 215.81 743.212C292.769 733.969 315.75 685.966 315.75 685.966C304.999 697.704 276.109 694.668 276.109 694.668C345.514 668.598 346.141 610.754 346.141 610.754C338.197 628.511 311.291 632.535 311.291 632.535C333.464 614.041 366.034 569.168 377.304 553.22C385.126 542.16 396.375 533.876 409.391 530.163C417.573 527.827 423.418 528.022 423.418 528.022C408.879 521.547 395.675 518.923 383.82 518.923C333.305 518.916 307.373 566.558 307.373 566.558ZM-43.6474 691.222H49.7484V691.085H143.144C137.682 682.152 131.455 672.217 127.112 661.323L-28.5601 661.316C-32.8893 672.21 -38.1998 682.289 -43.6474 691.222ZM73.0396 705.303C82.2247 712.238 88.2495 723.068 88.4876 735.396H178.095C178.095 735.396 165.894 724.135 152.401 705.303H73.0396ZM-53.2582 705.44C-66.751 724.272 -78.9522 735.54 -78.9522 735.54H10.9873C11.1822 723.233 17.1565 712.404 26.2767 705.44H-53.2582ZM32.2872 719.268C27.3952 731.842 22.4959 744.423 17.6039 756.997C16.7236 759.239 15.9082 761.517 14.7465 763.644C14.0322 764.956 13.2097 766.232 12.1346 767.278C11.579 767.797 10.9585 768.273 10.2081 768.439C12.7984 768.46 15.3959 768.46 17.9863 768.453C19.6314 768.453 21.2837 768.453 22.936 768.453C23.3329 768.46 23.7297 768.431 24.1265 768.403C23.0659 768.352 22.0774 767.667 21.6372 766.701C21.2548 765.879 21.2187 764.949 21.3558 764.069C21.5578 762.837 22.0197 761.676 22.4382 760.508C23.0876 758.749 23.7298 756.989 24.3864 755.23C30.8586 755.23 37.3379 755.238 43.8173 755.23C44.7264 757.61 45.6212 759.982 46.5231 762.354C46.9704 763.637 47.4683 765.036 47.0715 766.398C47.0137 766.636 46.8983 766.845 46.7756 767.054C46.3355 767.646 45.7655 768.121 45.0511 768.323C44.9213 768.352 44.7914 768.403 44.6615 768.417C45.9675 768.475 47.2806 768.467 48.5866 768.46C49.3226 768.453 50.073 768.453 50.809 768.453C52.1077 768.453 53.4065 768.453 54.7125 768.46C56.9131 768.467 59.1211 768.475 61.329 768.424C60.6292 768.33 60.0231 767.92 59.4819 767.494C58.3491 766.564 57.4832 765.353 56.7256 764.113C55.7732 762.505 55.0516 760.796 54.3734 759.059C49.135 745.8 43.8894 732.534 38.6511 719.268C36.5297 719.268 34.4157 719.268 32.2872 719.268ZM33.99 729.83C36.6308 736.651 39.2643 743.471 41.8979 750.292H26.2262C28.8165 743.471 31.3997 736.651 33.99 729.83ZM47.5909 722.361C48.2042 723.882 48.3342 725.548 48.3342 727.177V728.525V728.612V729.881L56.5308 751.986V746.074H65.0233C66.4446 746.088 67.9311 746.204 69.2299 746.824C69.9514 747.155 70.5719 747.739 70.8461 748.489C70.8317 745.137 70.8317 741.777 70.8461 738.417C70.5791 739.088 70.0452 739.628 69.4175 739.967C68.0682 740.688 66.5168 740.825 65.0305 740.847C62.1949 740.847 59.3664 740.847 56.5308 740.847C56.5235 735.389 56.5308 729.931 56.5236 724.481C59.7777 724.473 63.0391 724.481 66.2932 724.481C67.3683 724.481 68.4578 724.524 69.5113 724.747C70.9255 725.021 72.3253 725.656 73.2921 726.759C74.194 727.761 74.6919 729.044 75.1248 730.306C75.1176 726.644 75.1248 722.981 75.1176 719.318C64.8717 719.318 54.626 719.333 44.3657 719.311C45.9026 719.665 47.0425 720.934 47.5909 722.361ZM75.9041 760.378C74.9228 761.481 73.5952 762.253 72.1809 762.635C70.2183 763.19 68.1836 763.183 66.1777 763.183C65.9396 763.183 65.716 763.183 65.4851 763.183H62.6422L65.5067 768.41H76.3009C76.9575 764.488 77.6357 760.558 78.2779 756.629C77.6285 757.956 76.907 759.282 75.9041 760.378Z" fill="#EFF4F8"/>
</svg>
