<svg width="80" height="80" viewBox="0 0 80 80" fill="none" xmlns="http://www.w3.org/2000/svg">
<g clip-path="url(#clip0_34_1256)">
<path fill-rule="evenodd" clip-rule="evenodd" d="M49.7645 18.8234C50.869 18.8234 51.7645 19.7188 51.7645 20.8234V59.1764C51.7645 60.2809 50.869 61.1764 49.7645 61.1764H32.3905C31.8601 61.1764 31.3514 61.3871 30.9763 61.7621L17.5316 75.2068C16.2717 76.4668 14.1174 75.5744 14.1174 73.7926V63.1764C14.1174 62.0718 13.222 61.1764 12.1174 61.1764H1.99975C0.895185 61.1764 -0.000244141 60.2809 -0.000244141 59.1764V20.8234C-0.000244141 19.7189 0.895185 18.8234 1.99975 18.8234L49.7645 18.8234ZM78.0011 0.00174111C79.1057 0.00174022 80.0011 0.897171 80.0011 2.00174V40.3547C80.0011 41.4593 79.1057 42.3547 78.0011 42.3547H72.5894C71.4849 42.3547 70.5894 43.2501 70.5894 44.3547V54.9851C70.5894 56.7669 68.4351 57.6593 67.1752 56.3993L57.0528 46.277C56.6778 45.9019 56.467 45.3932 56.467 44.8628V16.1194C56.467 15.0148 55.5716 14.1194 54.467 14.1194H30.2365C29.1319 14.1194 28.2365 13.224 28.2365 12.1194V2.00178C28.2365 0.897211 29.1319 0.00178045 30.2365 0.00177956L78.0011 0.00174111ZM28.2398 44.3529C28.2398 43.2483 27.3443 42.3529 26.2398 42.3529H16.1174C15.0129 42.3529 14.1174 43.2483 14.1174 44.3529V45.0587C14.1174 46.1633 15.0129 47.0587 16.1174 47.0587H26.2398C27.3443 47.0587 28.2398 46.1633 28.2398 45.0587V44.3529ZM37.6468 34.9411C37.6468 33.8366 36.7514 32.9411 35.6468 32.9411H16.1174C15.0128 32.9411 14.1174 33.8365 14.1174 34.9411V35.6516C14.1174 36.7562 15.0128 37.6516 16.1174 37.6516H35.6468C36.7514 37.6516 37.6468 36.7562 37.6468 35.6516L37.6468 34.9411Z" fill="#D99E63"/>
</g>
<defs>
<clipPath id="clip0_34_1256">
<rect width="80" height="80" fill="white" transform="translate(-0.000244141 0.000335693)"/>
</clipPath>
</defs>
</svg>
