<svg width="349" height="881" viewBox="0 0 349 881" fill="none" xmlns="http://www.w3.org/2000/svg">
<g clip-path="url(#clip0_75_11359)">
<path d="M237.558 429.998L231.579 419.652L225.599 429.998L237.558 429.998Z" fill="#EEF3F5"/>
<path d="M231.579 461.557L238.627 449.371L224.537 449.371L231.579 461.557Z" fill="#EEF3F5"/>
<path d="M214.082 470.22L208.272 460.18L202.471 470.22L214.082 470.22Z" fill="#EEF3F5"/>
<path d="M184.966 457.73L188.695 451.286L181.246 451.286L184.966 457.73Z" fill="#EEF3F5"/>
<path d="M187.966 428.282L184.966 423.093L181.972 428.282L187.966 428.282Z" fill="#EEF3F5"/>
<path d="M208.272 417.441L212.031 410.945L204.52 410.945L208.272 417.441Z" fill="#EEF3F5"/>
<path d="M254.885 421.605L262.252 408.863L247.524 408.863L254.885 421.605Z" fill="#EEF3F5"/>
<path d="M264.011 472.137L254.885 456.347L245.759 472.137L264.011 472.137Z" fill="#EEF3F5"/>
<path d="M208.272 501.757L215.212 489.755L201.336 489.755L208.272 501.757Z" fill="#EEF3F5"/>
<path d="M164.777 468.667L161.663 463.285L158.551 468.667L164.777 468.667Z" fill="#EEF3F5"/>
<path d="M161.663 415.731L163.934 411.801L159.391 411.801L161.663 415.731Z" fill="#EEF3F5"/>
<path d="M211.284 387.965L208.272 382.758L205.267 387.965L211.284 387.965Z" fill="#EEF3F5"/>
<path d="M287.733 432.054L278.192 415.544L268.65 432.054L287.733 432.054Z" fill="#EEF3F5"/>
<path d="M278.192 465.077L288.286 447.614L268.097 447.614L278.192 465.077Z" fill="#EEF3F5"/>
<path d="M254.885 505.084L264.708 488.092L245.066 488.092L254.885 505.084Z" fill="#EEF3F5"/>
<path d="M240.582 512.388L231.579 496.816L222.582 512.388L240.582 512.388Z" fill="#EEF3F5"/>
<path d="M190.764 510.537L184.966 500.515L179.177 510.537L190.764 510.537Z" fill="#EEF3F5"/>
<path d="M161.663 498.205L165.52 491.53L157.808 491.53L161.663 498.205Z" fill="#EEF3F5"/>
<path d="M138.359 456.241L140.791 452.028L135.924 452.028L138.359 456.241Z" fill="#EEF3F5"/>
<path d="M140.648 427.873L138.359 423.908L136.067 427.873L140.648 427.873Z" fill="#EEF3F5"/>
<path d="M163.77 387.444L161.663 383.798L159.558 387.444L163.77 387.444Z" fill="#EEF3F5"/>
<path d="M184.966 375.217L187.076 371.572L182.865 371.572L184.966 375.217Z" fill="#EEF3F5"/>
<path d="M231.579 377.431L235.603 370.466L227.555 370.466L231.579 377.431Z" fill="#EEF3F5"/>
<path d="M261.33 389.944L254.885 378.793L248.443 389.944L261.33 389.944Z" fill="#EEF3F5"/>
<path d="M312.155 392.371L301.498 373.94L290.842 392.371L312.155 392.371Z" fill="#EEF3F5"/>
<path d="M301.498 425.788L312.491 406.77L290.505 406.77L301.498 425.788Z" fill="#EEF3F5"/>
<path d="M313.302 473.681L301.498 453.259L289.694 473.681L313.302 473.681Z" fill="#EEF3F5"/>
<path d="M301.498 507.707L313.592 486.779L289.402 486.779L301.498 507.707Z" fill="#EEF3F5"/>
<path d="M289.126 513.505L278.192 494.585L267.257 513.505L289.126 513.505Z" fill="#EEF3F5"/>
<path d="M231.579 545.15L241.179 528.544L221.982 528.544L231.579 545.15Z" fill="#EEF3F5"/>
<path d="M217.267 552.705L208.272 537.151L199.284 552.705L217.267 552.705Z" fill="#EEF3F5"/>
<path d="M184.966 542.101L191.923 530.067L178.012 530.067L184.966 542.101Z" fill="#EEF3F5"/>
<path d="M141.655 509.096L138.359 503.397L135.063 509.096L141.655 509.096Z" fill="#EEF3F5"/>
<path d="M115.053 496.831L117.719 492.22L112.386 492.22L115.053 496.831Z" fill="#EEF3F5"/>
<path d="M117.552 468.319L115.053 463.989L112.55 468.319L117.552 468.319Z" fill="#EEF3F5"/>
<path d="M115.053 415.748L117.341 411.79L112.764 411.79L115.053 415.748Z" fill="#EEF3F5"/>
<path d="M117.178 387.456L115.053 383.775L112.925 387.456L117.178 387.456Z" fill="#EEF3F5"/>
<path d="M138.359 375.241L140.481 371.56L136.231 371.56L138.359 375.241Z" fill="#EEF3F5"/>
<path d="M186.816 346.969L184.966 343.773L183.122 346.969L186.816 346.969Z" fill="#EEF3F5"/>
<path d="M208.272 334.798L210.298 331.298L206.25 331.298L208.272 334.798Z" fill="#EEF3F5"/>
<path d="M234.816 347.77L231.579 342.174L228.351 347.77L234.816 347.77Z" fill="#EEF3F5"/>
<path d="M278.192 382.041L286.214 368.16L270.166 368.16L278.192 382.041Z" fill="#EEF3F5"/>
<path d="M324.805 387.719L337.747 365.321L311.859 365.321L324.805 387.719Z" fill="#EEF3F5"/>
<path d="M337.911 434.112L324.805 411.433L311.695 434.112L337.911 434.112Z" fill="#EEF3F5"/>
<path d="M324.805 468.743L338.075 445.781L311.531 445.781L324.805 468.743Z" fill="#EEF3F5"/>
<path d="M338.335 515.001L324.805 491.592L311.274 515.001L338.335 515.001Z" fill="#EEF3F5"/>
<path d="M278.192 547.048L289.437 527.594L266.947 527.594L278.192 547.048Z" fill="#EEF3F5"/>
<path d="M265.404 553.585L254.885 535.388L244.366 553.585L265.404 553.585Z" fill="#EEF3F5"/>
<path d="M208.272 585.573L217.96 568.818L198.59 568.818L208.272 585.573Z" fill="#EEF3F5"/>
<path d="M167.572 550.928L161.663 540.704L155.753 550.928L167.572 550.928Z" fill="#EEF3F5"/>
<path d="M138.359 538.715L142.381 531.76L134.338 531.76L138.359 538.715Z" fill="#EEF3F5"/>
<path d="M94.5267 508.8L91.7462 503.991L88.9657 508.8L94.5267 508.8Z" fill="#EEF3F5"/>
<path d="M91.7462 456.452L94.3598 451.926L89.1296 451.926L91.7462 456.452Z" fill="#EEF3F5"/>
<path d="M94.2018 427.967L91.7461 423.721L89.2935 427.967L94.2018 427.967Z" fill="#EEF3F5"/>
<path d="M91.7462 375.428L94.035 371.466L89.4574 371.466L91.7462 375.428Z" fill="#EEF3F5"/>
<path d="M140.323 347.039L138.359 343.639L136.395 347.039L140.323 347.039Z" fill="#EEF3F5"/>
<path d="M161.663 334.537L163.463 331.427L159.863 331.427L161.663 334.537Z" fill="#EEF3F5"/>
<path d="M210.058 306.607L208.272 303.529L206.496 306.607L210.058 306.607Z" fill="#EEF3F5"/>
<path d="M254.885 337.844L259.551 329.775L250.22 329.775L254.885 337.844Z" fill="#EEF3F5"/>
<path d="M285.424 350.077L278.192 337.563L270.96 350.077L285.424 350.077Z" fill="#EEF3F5"/>
<path d="M363.023 394.829L348.111 369.025L333.196 394.829L363.023 394.829Z" fill="#EEF3F5"/>
<path d="M348.111 430.089L362.83 404.621L333.389 404.621L348.111 430.089Z" fill="#EEF3F5"/>
<path d="M362.798 475.348L348.111 449.929L333.418 475.348L362.798 475.348Z" fill="#EEF3F5"/>
<path d="M348.111 510.555L362.672 485.358L333.544 485.358L348.111 510.555Z" fill="#EEF3F5"/>
<path d="M324.805 549.518L338.189 526.357L311.417 526.357L324.805 549.518Z" fill="#EEF3F5"/>
<path d="M313.867 554.655L301.498 533.251L289.123 554.655L313.867 554.655Z" fill="#EEF3F5"/>
<path d="M254.885 586.892L265.712 568.157L244.059 568.157L254.885 586.892Z" fill="#EEF3F5"/>
<path d="M241.876 593.78L231.579 575.966L221.285 593.78L241.876 593.78Z" fill="#EEF3F5"/>
<path d="M193.978 593.037L184.966 577.451L175.957 593.037L193.978 593.037Z" fill="#EEF3F5"/>
<path d="M161.663 582.693L168.854 570.256L154.474 570.256L161.663 582.693Z" fill="#EEF3F5"/>
<path d="M118.559 549.542L115.053 543.475L111.546 549.542L118.559 549.542Z" fill="#EEF3F5"/>
<path d="M91.7462 537.452L94.6701 532.392L88.8223 532.392L91.7462 537.452Z" fill="#EEF3F5"/>
<path d="M68.4427 496.965L71.2202 492.153L65.6592 492.153L68.4427 496.965Z" fill="#EEF3F5"/>
<path d="M71.2202 468.48L68.4427 463.668L65.6592 468.48L71.2202 468.48Z" fill="#EEF3F5"/>
<path d="M68.4427 415.941L70.8954 411.696L65.9871 411.696L68.4427 415.941Z" fill="#EEF3F5"/>
<path d="M70.8954 387.643L68.4427 383.398L65.9871 387.643L70.8954 387.643Z" fill="#EEF3F5"/>
<path d="M93.8711 347.133L91.7462 343.452L89.6213 347.133L93.8711 347.133Z" fill="#EEF3F5"/>
<path d="M115.053 334.727L117.017 331.33L113.089 331.33L115.053 334.727Z" fill="#EEF3F5"/>
<path d="M163.463 306.619L161.663 303.508L159.863 306.619L163.463 306.619Z" fill="#EEF3F5"/>
<path d="M184.966 294.03L186.602 291.197L183.333 291.197L184.966 294.03Z" fill="#EEF3F5"/>
<path d="M231.579 294.62L233.73 290.901L229.431 290.901L231.579 294.62Z" fill="#EEF3F5"/>
<path d="M258.778 307.824L254.885 301.093L250.993 307.824L258.778 307.824Z" fill="#EEF3F5"/>
<path d="M301.498 343.873L311.388 326.76L291.608 326.76L301.498 343.873Z" fill="#EEF3F5"/>
<path d="M337.73 353.36L324.805 330.997L311.88 353.36L337.73 353.36Z" fill="#EEF3F5"/>
<path d="M361.56 555.278L348.111 532.003L334.656 555.278L361.56 555.278Z" fill="#EEF3F5"/>
<path d="M301.498 588.728L313.914 567.239L289.08 567.239L301.498 588.728Z" fill="#EEF3F5"/>
<path d="M289.791 594.534L278.192 574.466L266.593 594.534L289.791 594.534Z" fill="#EEF3F5"/>
<path d="M231.579 626.958L242.183 608.609L220.975 608.609L231.579 626.958Z" fill="#EEF3F5"/>
<path d="M218.654 634.156L208.272 616.19L197.891 634.156L218.654 634.156Z" fill="#EEF3F5"/>
<path d="M184.966 625.809L194.578 609.185L175.357 609.185L184.966 625.809Z" fill="#EEF3F5"/>
<path d="M144.476 591.374L138.359 580.784L132.236 591.374L144.476 591.374Z" fill="#EEF3F5"/>
<path d="M115.053 579.308L119.302 571.949L110.803 571.949L115.053 579.308Z" fill="#EEF3F5"/>
<path d="M71.5305 549.302L68.4427 543.958L65.349 549.302L71.5305 549.302Z" fill="#EEF3F5"/>
<path d="M45.1362 537.666L48.2416 532.286L42.0279 532.286L45.1362 537.666Z" fill="#EEF3F5"/>
<path d="M48.0806 508.897L45.1362 503.804L42.1918 508.897L48.0806 508.897Z" fill="#EEF3F5"/>
<path d="M45.1362 456.642L47.9138 451.83L42.3528 451.83L45.1362 456.642Z" fill="#EEF3F5"/>
<path d="M47.7529 428.06L45.1363 423.534L42.5197 428.06L47.7529 428.06Z" fill="#EEF3F5"/>
<path d="M45.1362 375.618L47.5889 371.373L42.6806 371.373L45.1362 375.618Z" fill="#EEF3F5"/>
<path d="M47.4221 347.226L45.1362 343.262L42.8445 347.226L47.4221 347.226Z" fill="#EEF3F5"/>
<path d="M68.4426 334.918L70.5675 331.237L66.3148 331.237L68.4426 334.918Z" fill="#EEF3F5"/>
<path d="M117.017 306.716L115.053 303.318L113.089 306.716L117.017 306.716Z" fill="#EEF3F5"/>
<path d="M138.359 294.217L140.156 291.103L136.559 291.103L138.359 294.217Z" fill="#EEF3F5"/>
<path d="M186.602 266.202L184.966 263.372L183.333 266.202L186.602 266.202Z" fill="#EEF3F5"/>
<path d="M208.272 253.513L209.748 250.97L206.803 250.97L208.272 253.513Z" fill="#EEF3F5"/>
<path d="M233.391 266.302L231.579 263.17L229.767 266.302L233.391 266.302Z" fill="#EEF3F5"/>
<path d="M278.192 298.898L284.048 288.764L272.335 288.764L278.192 298.898Z" fill="#EEF3F5"/>
<path d="M310.999 311.063L301.498 294.62L291.995 311.063L310.999 311.063Z" fill="#EEF3F5"/>
<path d="M348.111 350.349L363.615 323.524L332.602 323.524L348.111 350.349Z" fill="#EEF3F5"/>
<path d="M348.111 588.912L360.691 567.148L335.529 567.148L348.111 588.912Z" fill="#EEF3F5"/>
<path d="M337.484 595.157L324.805 573.221L312.126 595.157L337.484 595.157Z" fill="#EEF3F5"/>
<path d="M278.192 628.458L290.098 607.858L266.285 607.858L278.192 628.458Z" fill="#EEF3F5"/>
<path d="M266.408 634.811L254.885 614.877L243.368 634.811L266.408 634.811Z" fill="#EEF3F5"/>
<path d="M208.272 667.527L219.09 648.809L197.458 648.809L208.272 667.527Z" fill="#EEF3F5"/>
<path d="M170.756 633.413L161.663 617.675L152.566 633.413L170.756 633.413Z" fill="#EEF3F5"/>
<path d="M138.359 623.259L145.758 610.457L130.957 610.457L138.359 623.259Z" fill="#EEF3F5"/>
<path d="M95.5774 590.055L91.7461 583.421L87.912 590.055L95.5774 590.055Z" fill="#EEF3F5"/>
<path d="M68.4427 578.153L71.6915 572.528L65.191 572.528L68.4427 578.153Z" fill="#EEF3F5"/>
<path d="M25.099 549.407L21.8298 543.747L18.5576 549.407L25.099 549.407Z" fill="#EEF3F5"/>
<path d="M21.8298 497.15L24.7742 492.056L18.8854 492.056L21.8298 497.15Z" fill="#EEF3F5"/>
<path d="M24.7742 468.571L21.8298 463.478L18.8854 468.571L24.7742 468.571Z" fill="#EEF3F5"/>
<path d="M21.8298 416.126L24.4464 411.603L19.2132 411.603L21.8298 416.126Z" fill="#EEF3F5"/>
<path d="M24.4464 387.737L21.8298 383.211L19.2132 387.737L24.4464 387.737Z" fill="#EEF3F5"/>
<path d="M21.8298 335.105L24.1157 331.143L19.5381 331.143L21.8298 335.105Z" fill="#EEF3F5"/>
<path d="M70.5675 306.809L68.4426 303.131L66.3148 306.809L70.5675 306.809Z" fill="#EEF3F5"/>
<path d="M91.7462 294.407L93.7101 291.007L89.7823 291.007L91.7462 294.407Z" fill="#EEF3F5"/>
<path d="M139.992 266.202L138.359 263.372L136.72 266.202L139.992 266.202Z" fill="#EEF3F5"/>
<path d="M161.663 253.706L163.296 250.876L160.026 250.876L161.663 253.706Z" fill="#EEF3F5"/>
<path d="M209.584 225.692L208.273 223.426L206.964 225.692L209.584 225.692Z" fill="#EEF3F5"/>
<path d="M254.885 255.224L257.841 250.116L251.932 250.116L254.885 255.224Z" fill="#EEF3F5"/>
<path d="M283.659 268.413L278.192 258.952L272.722 268.413L283.659 268.413Z" fill="#EEF3F5"/>
<path d="M324.805 307.306L337.952 284.557L311.657 284.557L324.805 307.306Z" fill="#EEF3F5"/>
<path d="M364.241 314.884L348.111 286.972L331.972 314.884L364.241 314.884Z" fill="#EEF3F5"/>
<path d="M324.805 628.624L336.854 607.776L312.755 607.776L324.805 628.624Z" fill="#EEF3F5"/>
<path d="M313.744 635.229L301.498 614.044L289.252 635.229L313.744 635.229Z" fill="#EEF3F5"/>
<path d="M254.885 669.027L267.005 648.058L242.768 648.058L254.885 669.027Z" fill="#EEF3F5"/>
<path d="M243.652 675.453L231.579 654.563L219.506 675.453L243.652 675.453Z" fill="#EEF3F5"/>
<path d="M195.418 674.515L184.966 656.437L174.517 674.515L195.418 674.515Z" fill="#EEF3F5"/>
<path d="M161.663 666.153L171.292 649.497L152.036 649.497L161.663 666.153Z" fill="#EEF3F5"/>
<path d="M121.503 631.884L115.053 620.728L108.602 631.884L121.503 631.884Z" fill="#EEF3F5"/>
<path d="M91.7462 619.985L96.3033 612.097L87.1862 612.097L91.7462 619.985Z" fill="#EEF3F5"/>
<path d="M48.4055 589.731L45.1362 584.07L41.864 589.731L48.4055 589.731Z" fill="#EEF3F5"/>
<path d="M21.8298 578.173L25.099 572.516L18.5576 572.516L21.8298 578.173Z" fill="#EEF3F5"/>
<path d="M-1.47664 537.853L1.79265 532.196L-4.74591 532.196L-1.47664 537.853Z" fill="#EEF3F5"/>
<path d="M1.63165 508.987L-1.47667 503.614L-4.58496 508.987L1.63165 508.987Z" fill="#EEF3F5"/>
<path d="M-1.47663 456.829L1.46779 451.736L-4.42102 451.736L-1.47663 456.829Z" fill="#EEF3F5"/>
<path d="M1.30386 428.157L-1.47665 423.344L-4.25714 428.157L1.30386 428.157Z" fill="#EEF3F5"/>
<path d="M-1.47661 375.805L1.14292 371.279L-4.0932 371.279L-1.47661 375.805Z" fill="#EEF3F5"/>
<path d="M0.97605 347.32L-1.47664 343.075L-3.92932 347.32L0.97605 347.32Z" fill="#EEF3F5"/>
<path d="M24.1157 306.903L21.8298 302.941L19.5381 306.903L24.1157 306.903Z" fill="#EEF3F5"/>
<path d="M45.1362 294.594L47.264 290.916L43.0114 290.916L45.1362 294.594Z" fill="#EEF3F5"/>
<path d="M93.5433 266.296L91.7462 263.185L89.9491 266.296L93.5433 266.296Z" fill="#EEF3F5"/>
<path d="M115.053 253.894L116.85 250.78L113.256 250.78L115.053 253.894Z" fill="#EEF3F5"/>
<path d="M163.135 225.785L161.663 223.239L160.193 225.785L163.135 225.785Z" fill="#EEF3F5"/>
<path d="M184.966 213.193L186.441 210.647L183.5 210.647L184.966 213.193Z" fill="#EEF3F5"/>
<path d="M231.579 213.398L233.227 210.544L229.934 210.544L231.579 213.398Z" fill="#EEF3F5"/>
<path d="M257.821 226.63L254.885 221.552L251.953 226.63L257.821 226.63Z" fill="#EEF3F5"/>
<path d="M301.498 262.589L310.832 246.432L292.162 246.432L301.498 262.589Z" fill="#EEF3F5"/>
<path d="M338.368 273.085L324.805 249.613L311.239 273.085L338.368 273.085Z" fill="#EEF3F5"/>
<path d="M358.853 634.364L348.111 615.775L337.364 634.364L358.853 634.364Z" fill="#EEF3F5"/>
<path d="M301.498 668.778L313.402 648.181L289.592 648.181L301.498 668.778Z" fill="#EEF3F5"/>
<path d="M290.552 675.617L278.192 654.233L265.832 675.617L290.552 675.617Z" fill="#EEF3F5"/>
<path d="M231.579 710.376L244.592 687.87L218.569 687.87L231.579 710.376Z" fill="#EEF3F5"/>
<path d="M221.206 716.273L208.272 693.896L195.342 716.273L221.206 716.273Z" fill="#EEF3F5"/>
<path d="M185.192 708.366L196.387 689L174 689L185.192 708.366Z" fill="#EEF3F5"/>
<path d="M147.28 673.634L138.359 658.2L129.438 673.634L147.28 673.634Z" fill="#EEF3F5"/>
<path d="M115.053 663.571L122.44 650.786L107.662 650.786L115.053 663.571Z" fill="#EEF3F5"/>
<path d="M72.508 630.513L68.4426 623.476L64.3743 630.513L72.508 630.513Z" fill="#EEF3F5"/>
<path d="M45.1362 618.854L48.7157 612.661L41.5538 612.661L45.1362 618.854Z" fill="#EEF3F5"/>
<path d="M2.07358 589.892L-1.47667 583.749L-5.02692 589.892L2.07358 589.892Z" fill="#EEF3F5"/>
<path d="M-1.47666 294.781L0.815067 290.82L-3.76837 290.82L-1.47666 294.781Z" fill="#EEF3F5"/>
<path d="M47.0973 266.392L45.1363 262.995L43.1694 266.392L47.0973 266.392Z" fill="#EEF3F5"/>
<path d="M68.4427 253.894L70.2369 250.78L66.6427 250.78L68.4427 253.894Z" fill="#EEF3F5"/>
<path d="M116.686 225.879L115.053 223.049L113.414 225.879L116.686 225.879Z" fill="#EEF3F5"/>
<path d="M138.359 213.193L139.831 210.647L136.887 210.647L138.359 213.193Z" fill="#EEF3F5"/>
<path d="M186.327 185.395L184.966 183.05L183.614 185.395L186.327 185.395Z" fill="#EEF3F5"/>
<path d="M208.272 173.218L210.049 170.151L206.502 170.151L208.272 173.218Z" fill="#EEF3F5"/>
<path d="M233.742 185.86L231.579 182.12L229.419 185.86L233.742 185.86Z" fill="#EEF3F5"/>
<path d="M278.192 218.45L284.224 208.018L272.16 208.018L278.192 218.45Z" fill="#EEF3F5"/>
<path d="M311.397 230.644L301.498 213.521L291.597 230.645L311.397 230.644Z" fill="#EEF3F5"/>
<path d="M348.111 271.944L365.558 241.754L330.658 241.754L348.111 271.944Z" fill="#EEF3F5"/>
<path d="M348.111 666.682L358.194 649.233L338.022 649.233L348.111 666.682Z" fill="#EEF3F5"/>
<path d="M335.57 674.696L324.805 656.078L314.04 674.696L335.57 674.696Z" fill="#EEF3F5"/>
<path d="M278.192 709.628L290.552 688.244L265.832 688.244L278.192 709.628Z" fill="#EEF3F5"/>
<path d="M267.992 716.37L254.885 693.697L241.782 716.37L267.992 716.37Z" fill="#EEF3F5"/>
<path d="M208.273 751.893L222.318 727.597L194.232 727.597L208.273 751.893Z" fill="#EEF3F5"/>
<path d="M172.293 714.943L161.663 696.547L151.032 714.943L172.293 714.943Z" fill="#EEF3F5"/>
<path d="M138.359 706.131L147.684 689.992L129.031 689.992L138.359 706.131Z" fill="#EEF3F5"/>
<path d="M98.0886 672.149L91.7462 661.174L85.4037 672.149L98.0886 672.149Z" fill="#EEF3F5"/>
<path d="M68.4427 660.519L73.1812 652.315L63.6982 652.315L68.4427 660.519Z" fill="#EEF3F5"/>
<path d="M25.4269 630.241L21.8298 624.017L18.2298 630.241L25.4269 630.241Z" fill="#EEF3F5"/>
<path d="M-1.47665 618.877L2.12045 612.649L-5.07373 612.649L-1.47665 618.877Z" fill="#EEF3F5"/>
<path d="M0.651185 266.486L-1.47662 262.808L-3.6015 266.486L0.651185 266.486Z" fill="#EEF3F5"/>
<path d="M21.8298 254.084L23.7908 250.686L19.8659 250.686L21.8298 254.084Z" fill="#EEF3F5"/>
<path d="M70.2369 225.972L68.4427 222.862L66.6427 225.972L70.2369 225.972Z" fill="#EEF3F5"/>
<path d="M91.7461 213.383L93.3823 210.553L90.11 210.553L91.7461 213.383Z" fill="#EEF3F5"/>
<path d="M139.831 185.462L138.359 182.915L136.887 185.462L139.831 185.462Z" fill="#EEF3F5"/>
<path d="M161.663 172.683L162.971 170.417L160.354 170.417L161.663 172.683Z" fill="#EEF3F5"/>
<path d="M211.114 145.925L208.272 141.016L205.439 145.925L211.114 145.925Z" fill="#EEF3F5"/>
<path d="M254.885 176.901L259.852 168.309L249.919 168.309L254.885 176.901Z" fill="#EEF3F5"/>
<path d="M285.576 188.874L278.192 176.094L270.807 188.874L285.576 188.874Z" fill="#EEF3F5"/>
<path d="M324.805 229.013L339.992 202.735L309.614 202.735L324.805 229.013Z" fill="#EEF3F5"/>
<path d="M366.17 235.352L348.111 204.106L330.05 235.352L366.17 235.352Z" fill="#EEF3F5"/>
<path d="M324.805 707.081L334.958 689.516L314.651 689.516L324.805 707.081Z" fill="#EEF3F5"/>
<path d="M312.424 715.116L301.498 696.205L290.569 715.116L312.424 715.116Z" fill="#EEF3F5"/>
<path d="M254.885 750.811L267.992 728.135L241.782 728.135L254.885 750.811Z" fill="#EEF3F5"/>
<path d="M245.721 757.29L231.579 732.827L217.439 757.29L245.721 757.29Z" fill="#EEF3F5"/>
<path d="M198.79 757.105L184.966 733.193L171.148 757.105L198.79 757.105Z" fill="#EEF3F5"/>
<path d="M161.663 749.182L173.358 728.947L149.97 728.947L161.663 749.182Z" fill="#EEF3F5"/>
<path d="M123.669 713.782L115.053 698.872L106.433 713.782L123.669 713.782Z" fill="#EEF3F5"/>
<path d="M91.7462 703.582L98.8643 691.267L84.6281 691.267L91.7462 703.582Z" fill="#EEF3F5"/>
<path d="M49.4592 670.983L45.1362 663.504L40.8104 670.983L49.4592 670.983Z" fill="#EEF3F5"/>
<path d="M21.8298 659.443L25.6405 652.85L18.0161 652.85L21.8298 659.443Z" fill="#EEF3F5"/>
<path d="M23.7908 226.069L21.8298 222.672L19.8659 226.069L23.7908 226.069Z" fill="#EEF3F5"/>
<path d="M45.1362 213.57L46.9333 210.459L43.3362 210.459L45.1362 213.57Z" fill="#EEF3F5"/>
<path d="M93.3823 185.556L91.7461 182.725L90.11 185.556L93.3823 185.556Z" fill="#EEF3F5"/>
<path d="M115.053 172.87L116.525 170.323L113.58 170.323L115.053 172.87Z" fill="#EEF3F5"/>
<path d="M163.164 145.156L161.663 142.557L160.161 145.156L163.164 145.156Z" fill="#EEF3F5"/>
<path d="M184.966 133.733L187.468 129.406L182.469 129.406L184.966 133.733Z" fill="#EEF3F5"/>
<path d="M231.579 137.172L237.061 127.687L226.097 127.687L231.579 137.172Z" fill="#EEF3F5"/>
<path d="M261.916 148.346L254.885 136.18L247.855 148.346L261.916 148.346Z" fill="#EEF3F5"/>
<path d="M301.498 185.863L314.233 163.827L288.761 163.827L301.498 185.863Z" fill="#EEF3F5"/>
<path d="M341.134 194.031L324.805 165.774L308.473 194.031L341.134 194.031Z" fill="#EEF3F5"/>
<path d="M357.246 714.084L348.111 698.272L338.973 714.084L357.246 714.084Z" fill="#EEF3F5"/>
<path d="M301.498 747.764L311.959 729.661L291.035 729.661L301.498 747.764Z" fill="#EEF3F5"/>
<path d="M289.671 755.755L278.192 735.894L266.713 755.755L289.671 755.755Z" fill="#EEF3F5"/>
<path d="M231.579 792.239L245.642 767.908L217.518 767.908L231.579 792.239Z" fill="#EEF3F5"/>
<path d="M223.548 798.265L208.272 771.841L193.003 798.265L223.548 798.265Z" fill="#EEF3F5"/>
<path d="M184.966 793.488L200.115 767.283L169.826 767.283L184.966 793.488Z" fill="#EEF3F5"/>
<path d="M149.153 755.363L138.359 736.684L127.562 755.363L149.153 755.363Z" fill="#EEF3F5"/>
<path d="M115.053 746.27L124.222 730.406L105.883 730.406L115.053 746.27Z" fill="#EEF3F5"/>
<path d="M74.7705 712.464L68.4427 701.512L62.109 712.464L74.7705 712.464Z" fill="#EEF3F5"/>
<path d="M45.1362 701.05L50.0591 692.53L40.2074 692.53L45.1362 701.05Z" fill="#EEF3F5"/>
<path d="M2.44829 670.752L-1.47661 663.963L-5.40442 670.752L2.44829 670.752Z" fill="#EEF3F5"/>
<path d="M-1.47665 213.76L0.484329 210.363L-3.44055 210.363L-1.47665 213.76Z" fill="#EEF3F5"/>
<path d="M46.9333 185.649L45.1362 182.538L43.3362 185.649L46.9333 185.649Z" fill="#EEF3F5"/>
<path d="M68.4427 173.06L70.0788 170.23L66.8036 170.23L68.4427 173.06Z" fill="#EEF3F5"/>
<path d="M116.525 145.139L115.053 142.592L113.58 145.139L116.525 145.139Z" fill="#EEF3F5"/>
<path d="M138.359 132.581L139.858 129.982L136.858 129.982L138.359 132.581Z" fill="#EEF3F5"/>
<path d="M189.356 106.496L184.966 98.9036L180.582 106.496L189.356 106.496Z" fill="#EEF3F5"/>
<path d="M208.273 99.1989L215.792 86.1914L200.756 86.1914L208.273 99.1989Z" fill="#EEF3F5"/>
<path d="M239.97 108.803L231.579 94.2929L223.194 108.803L239.97 108.803Z" fill="#EEF3F5"/>
<path d="M278.192 144.539L290.06 124.003L266.323 124.003L278.192 144.539Z" fill="#EEF3F5"/>
<path d="M316.121 152.723L301.498 127.424L286.876 152.723L316.121 152.723Z" fill="#EEF3F5"/>
<path d="M348.111 193.023L367.048 160.248L329.166 160.248L348.111 193.023Z" fill="#EEF3F5"/>
<path d="M348.111 746.031L357.07 730.526L339.146 730.526L348.111 746.031Z" fill="#EEF3F5"/>
<path d="M334.346 754.641L324.805 738.128L315.26 754.641L334.346 754.641Z" fill="#EEF3F5"/>
<path d="M278.192 788.889L289.352 769.581L267.035 769.581L278.192 788.889Z" fill="#EEF3F5"/>
<path d="M267.257 796.593L254.885 775.191L242.517 796.593L267.257 796.593Z" fill="#EEF3F5"/>
<path d="M208.272 834.2L223.758 807.407L192.787 807.407L208.272 834.2Z" fill="#EEF3F5"/>
<path d="M176.376 797.943L161.663 772.49L146.952 797.943L176.376 797.943Z" fill="#EEF3F5"/>
<path d="M138.359 789.941L150.429 769.055L126.289 769.055L138.359 789.941Z" fill="#EEF3F5"/>
<path d="M100.064 753.93L91.7462 739.543L83.431 753.93L100.064 753.93Z" fill="#EEF3F5"/>
<path d="M68.4427 743.779L75.4496 731.652L61.43 731.652L68.4427 743.779Z" fill="#EEF3F5"/>
<path d="M26.3869 711.441L21.8298 703.558L17.2756 711.441L26.3869 711.441Z" fill="#EEF3F5"/>
<path d="M-1.47662 700.143L2.66194 692.986L-5.61517 692.986L-1.47662 700.143Z" fill="#EEF3F5"/>
<path d="M0.48433 185.746L-1.47665 182.348L-3.44055 185.746L0.48433 185.746Z" fill="#EEF3F5"/>
<path d="M21.8298 173.247L23.6269 170.136L20.0298 170.136L21.8298 173.247Z" fill="#EEF3F5"/>
<path d="M69.9119 145.139L68.4427 142.592L66.9675 145.139L69.9119 145.139Z" fill="#EEF3F5"/>
<path d="M91.7462 132.546L93.2184 130L90.274 130L91.7462 132.546Z" fill="#EEF3F5"/>
<path d="M140.709 105.327L138.359 101.251L136.003 105.327L140.709 105.327Z" fill="#EEF3F5"/>
<path d="M161.663 95.4214L165.909 88.0771L157.419 88.0771L161.663 95.4214Z" fill="#EEF3F5"/>
<path d="M219.037 69.8509L208.272 51.2271L197.51 69.8509L219.037 69.8509Z" fill="#EEF3F5"/>
<path d="M254.885 104.947L267.389 83.3145L242.385 83.3145L254.885 104.947Z" fill="#EEF3F5"/>
<path d="M292.431 112.177L278.192 87.5421L263.953 112.177L292.431 112.177Z" fill="#EEF3F5"/>
<path d="M324.805 151.784L342.954 120.381L306.652 120.381L324.805 151.784Z" fill="#EEF3F5"/>
<path d="M366.986 155.176L348.111 122.518L329.233 155.176L366.986 155.176Z" fill="#EEF3F5"/>
<path d="M324.805 786.991L334.317 770.531L315.292 770.531L324.805 786.991Z" fill="#EEF3F5"/>
<path d="M311.64 795.309L301.498 777.758L291.357 795.309L311.64 795.309Z" fill="#EEF3F5"/>
<path d="M254.885 830.461L267.131 809.281L242.642 809.281L254.885 830.461Z" fill="#EEF3F5"/>
<path d="M245.42 837.764L231.579 813.819L217.741 837.764L245.42 837.764Z" fill="#EEF3F5"/>
<path d="M201.825 839.504L184.966 810.334L168.11 839.504L201.825 839.504Z" fill="#EEF3F5"/>
<path d="M161.663 834.896L177.749 807.062L145.58 807.062L161.663 834.896Z" fill="#EEF3F5"/>
<path d="M125.788 795.651L115.053 777.074L104.317 795.651L125.788 795.651Z" fill="#EEF3F5"/>
<path d="M91.7462 786.024L100.421 771.016L83.071 771.016L91.7462 786.024Z" fill="#EEF3F5"/>
<path d="M51.2914 752.688L45.1362 742.037L38.9811 752.688L51.2914 752.688Z" fill="#EEF3F5"/>
<path d="M21.8298 741.528L26.8874 732.778L16.7723 732.778L21.8298 741.528Z" fill="#EEF3F5"/>
<path d="M23.4659 145.232L21.8298 142.402L20.1966 145.232L23.4659 145.232Z" fill="#EEF3F5"/>
<path d="M45.1362 132.736L46.7723 129.906L43.4972 129.906L45.1362 132.736Z" fill="#EEF3F5"/>
<path d="M93.394 104.918L91.7462 102.067L90.0984 104.918L93.394 104.918Z" fill="#EEF3F5"/>
<path d="M115.053 93.3778L117.523 89.1005L112.579 89.1005L115.053 93.3778Z" fill="#EEF3F5"/>
<path d="M168.892 67.8161L161.663 55.3027L154.433 67.8161L168.892 67.8161Z" fill="#EEF3F5"/>
<path d="M184.966 62.1763L195.348 44.2161L174.59 44.2161L184.966 62.1763Z" fill="#EEF3F5"/>
<path d="M231.579 66.17L245.426 42.2192L217.735 42.2192L231.579 66.17Z" fill="#EEF3F5"/>
<path d="M269.499 72.073L254.885 46.7861L240.272 72.073L269.499 72.073Z" fill="#EEF3F5"/>
<path d="M301.498 110.163L318.521 80.7095L284.476 80.7095L301.498 110.163Z" fill="#EEF3F5"/>
<path d="M342.89 114.396L324.805 83.104L306.717 114.396L342.89 114.396Z" fill="#EEF3F5"/>
<path d="M356.605 794.362L348.111 779.656L339.609 794.362L356.605 794.362Z" fill="#EEF3F5"/>
<path d="M301.498 827.838L311.464 810.591L291.529 810.591L301.498 827.838Z" fill="#EEF3F5"/>
<path d="M289.03 836.03L278.192 817.278L267.354 836.03L289.03 836.03Z" fill="#EEF3F5"/>
<path d="M231.579 872.705L245.487 848.643L217.671 848.643L231.579 872.705Z" fill="#EEF3F5"/>
<path d="M224.233 879.306L208.272 851.698L192.315 879.306L224.233 879.306Z" fill="#EEF3F5"/>
<path d="M184.966 876.78L202.407 846.605L167.531 846.605L184.966 876.78Z" fill="#EEF3F5"/>
<path d="M153.254 838.369L138.359 812.603L123.464 838.369L153.254 838.369Z" fill="#EEF3F5"/>
<path d="M115.053 829.969L126.871 809.524L103.234 809.524L115.053 829.969Z" fill="#EEF3F5"/>
<path d="M76.0203 793.83L68.4427 780.717L60.8622 793.83L76.0203 793.83Z" fill="#EEF3F5"/>
<path d="M45.1363 783.527L51.6485 772.262L38.6212 772.262L45.1363 783.527Z" fill="#EEF3F5"/>
<path d="M3.21218 751.84L-1.47661 743.727L-6.1654 751.84L3.21218 751.84Z" fill="#EEF3F5"/>
<path d="M-1.47661 132.923L0.323391 129.813L-3.27661 129.813L-1.47661 132.923Z" fill="#EEF3F5"/>
<path d="M46.6055 104.818L45.1363 102.269L43.6611 104.818L46.6055 104.818Z" fill="#EEF3F5"/>
<path d="M68.4427 92.4832L70.1344 89.5478L66.7451 89.5478L68.4427 92.4832Z" fill="#EEF3F5"/>
<path d="M119.733 66.3455L115.053 58.244L110.37 66.3455L119.733 66.3455Z" fill="#EEF3F5"/>
<path d="M138.359 58.6591L145.688 45.9762L131.027 45.9762L138.359 58.6591Z" fill="#EEF3F5"/>
<path d="M198.286 31.004L184.966 7.95666L171.649 31.004L198.286 31.004Z" fill="#EEF3F5"/>
<path d="M208.272 27.8698L223.867 0.887206L192.678 0.887207L208.272 27.8698Z" fill="#EEF3F5"/>
<path d="M247.317 32.3957L231.579 5.17041L215.844 32.3957L247.317 32.3957Z" fill="#EEF3F5"/>
<path d="M278.192 68.9534L294.45 40.8276L261.933 40.8276L278.192 68.9534Z" fill="#EEF3F5"/>
<path d="M318.184 73.2687L301.498 44.3945L284.809 73.2687L318.184 73.2687Z" fill="#EEF3F5"/>
<path d="M348.111 109.376L364.455 81.1013L331.768 81.1013L348.111 109.376Z" fill="#EEF3F5"/>
<path d="M348.111 825.359L355.932 811.831L340.291 811.831L348.111 825.359Z" fill="#EEF3F5"/>
<path d="M333.509 834.805L324.805 819.736L316.091 834.805L333.509 834.805Z" fill="#EEF3F5"/>
<path d="M278.192 868.629L288.568 850.681L267.816 850.681L278.192 868.629Z" fill="#EEF3F5"/>
<path d="M266.809 876.979L254.885 856.353L242.964 876.979L266.809 876.979Z" fill="#EEF3F5"/>
<path d="M179.654 880.482L161.663 849.353L143.671 880.482L179.654 880.482Z" fill="#EEF3F5"/>
<path d="M138.359 875.093L154.334 847.45L122.381 847.45L138.359 875.093Z" fill="#EEF3F5"/>
<path d="M101.209 835.241L91.7462 818.862L82.2808 835.241L101.209 835.241Z" fill="#EEF3F5"/>
<path d="M68.4427 825.101L76.0378 811.96L60.8446 811.96L68.4427 825.101Z" fill="#EEF3F5"/>
<path d="M27.4874 792.722L21.8298 782.933L16.1722 792.722L27.4874 792.722Z" fill="#EEF3F5"/>
<path d="M-1.4766 781.781L3.51952 773.136L-6.47272 773.136L-1.4766 781.781Z" fill="#EEF3F5"/>
<path d="M0.15947 104.909L-1.47663 102.082L-3.1098 104.909L0.15947 104.909Z" fill="#EEF3F5"/>
<path d="M21.8298 92.3925L23.4484 89.5945L20.2113 89.5945L21.8298 92.3925Z" fill="#EEF3F5"/>
<path d="M71.4456 65.3777L68.4426 60.1765L65.4368 65.3777L71.4456 65.3777Z" fill="#EEF3F5"/>
<path d="M91.7461 55.9986L96.7686 47.3065L86.7237 47.3065L91.7461 55.9986Z" fill="#EEF3F5"/>
<path d="M149.18 29.5626L138.359 10.8365L127.533 29.5626L149.18 29.5626Z" fill="#EEF3F5"/>
<path d="M161.663 25.1362L174.889 2.25256L148.439 2.25256L161.663 25.1362Z" fill="#EEF3F5"/>
<path d="M254.885 28.8435L271.325 0.398985L238.445 0.398987L254.885 28.8435Z" fill="#EEF3F5"/>
<path d="M294.096 32.4922L278.192 4.97742L262.287 32.4922L294.096 32.4922Z" fill="#EEF3F5"/>
<path d="M324.805 67.3629L339.682 41.6228L309.925 41.6228L324.805 67.3629Z" fill="#EEF3F5"/>
<path d="M361.967 71.6373L348.111 47.6573L334.247 71.6373L361.967 71.6373Z" fill="#EEF3F5"/>
<path d="M324.805 865.314L332.303 852.341L317.303 852.341L324.805 865.314Z" fill="#EEF3F5"/>
<path d="M309.887 874.944L301.498 860.428L293.11 874.944L309.887 874.944Z" fill="#EEF3F5"/>
<path d="M128.724 877.988L115.053 854.335L101.381 877.988L128.724 877.988Z" fill="#EEF3F5"/>
<path d="M91.7462 868.159L101.712 850.915L81.7803 850.915L91.7462 868.159Z" fill="#EEF3F5"/>
<path d="M51.3938 833.39L45.1362 822.564L38.8757 833.39L51.3938 833.39Z" fill="#EEF3F5"/>
<path d="M21.8298 822.856L27.4757 813.085L16.181 813.085L21.8298 822.856Z" fill="#EEF3F5"/>
<path d="M23.981 64.8866L21.8298 61.1618L19.6786 64.8866L23.981 64.8866Z" fill="#EEF3F5"/>
<path d="M45.1362 54.1157L48.5255 48.245L41.7411 48.245L45.1362 54.1157Z" fill="#EEF3F5"/>
<path d="M100.196 28.1944L91.7462 13.576L83.2964 28.1944L100.196 28.1944Z" fill="#EEF3F5"/>
<path d="M115.053 23.037L126.459 3.29925L103.644 3.29926L115.053 23.037Z" fill="#EEF3F5"/>
<path d="M301.498 25.4841L315.026 2.07715L287.967 2.07715L301.498 25.4841Z" fill="#EEF3F5"/>
<path d="M337.214 30.4807L324.805 9.00336L312.389 30.4807L337.214 30.4807Z" fill="#EEF3F5"/>
<path d="M353.558 873.246L348.111 863.82L342.661 873.246L353.558 873.246Z" fill="#EEF3F5"/>
<path d="M75.953 874.438L68.4427 861.437L60.9266 874.438L75.953 874.438Z" fill="#EEF3F5"/>
<path d="M45.1363 863.51L51.069 853.239L39.1977 853.239L45.1363 863.51Z" fill="#EEF3F5"/>
<path d="M3.70392 832.767L-1.4766 823.809L-6.65417 832.767L3.70392 832.767Z" fill="#EEF3F5"/>
<path d="M-1.47663 52.9638L0.917528 48.8239L-3.87079 48.8239L-1.47663 52.9638Z" fill="#EEF3F5"/>
<path d="M51.2299 26.8349L45.1362 16.295L39.0425 26.8349L51.2299 26.8349Z" fill="#EEF3F5"/>
<path d="M68.4427 20.4671L77.6183 4.58569L59.2612 4.58569L68.4427 20.4671Z" fill="#EEF3F5"/>
<path d="M348.111 20.5138L357.328 4.56226L338.889 4.56226L348.111 20.5138Z" fill="#EEF3F5"/>
<path d="M27.104 873.149L21.8298 864.021L16.5527 873.149L27.104 873.149Z" fill="#EEF3F5"/>
<path d="M-1.47662 862.525L3.6073 853.733L-6.55762 853.733L-1.47662 862.525Z" fill="#EEF3F5"/>
<path d="M2.74388 25.7531L-1.47663 18.4556L-5.69421 25.7531L2.74388 25.7531Z" fill="#EEF3F5"/>
<path d="M21.8298 17.6925L28.6025 5.97443L15.0571 5.97443L21.8298 17.6925Z" fill="#EEF3F5"/>
</g>
<defs>
<clipPath id="clip0_75_11359">
<rect width="881" height="349" fill="white" transform="matrix(4.37114e-08 1 1 -4.37114e-08 0 0)"/>
</clipPath>
</defs>
</svg>
