<svg xmlns="http://www.w3.org/2000/svg" width="16" height="16" viewBox="0 0 16 16" fill="none">
  <path fill-rule="evenodd" clip-rule="evenodd" d="M7.99999 11.5999C9.98821 11.5999 11.6 9.98812 11.6 7.9999C11.6 6.01168 9.98821 4.3999 7.99999 4.3999C6.01177 4.3999 4.39999 6.01168 4.39999 7.9999C4.39999 9.98812 6.01177 11.5999 7.99999 11.5999ZM7.99999 10.3999C9.32545 10.3999 10.4 9.32536 10.4 7.9999C10.4 6.67442 9.32545 5.5999 7.99999 5.5999C6.67451 5.5999 5.59999 6.67442 5.59999 7.9999C5.59999 9.32536 6.67451 10.3999 7.99999 10.3999Z" fill="white"/>
  <path d="M11.6 3.7998C11.2686 3.7998 11 4.06844 11 4.3998C11 4.73117 11.2686 4.9998 11.6 4.9998C11.9314 4.9998 12.2 4.73117 12.2 4.3998C12.2 4.06844 11.9314 3.7998 11.6 3.7998Z" fill="white"/>
  <path fill-rule="evenodd" clip-rule="evenodd" d="M1.79237 3.36554C1.39999 4.13562 1.39999 5.14372 1.39999 7.1599V8.8399C1.39999 10.8561 1.39999 11.8642 1.79237 12.6342C2.13751 13.3116 2.68824 13.8624 3.36563 14.2075C4.13571 14.5999 5.14381 14.5999 7.15999 14.5999H8.83999C10.8562 14.5999 11.8643 14.5999 12.6343 14.2075C13.3117 13.8624 13.8625 13.3116 14.2076 12.6342C14.6 11.8642 14.6 10.8561 14.6 8.8399V7.1599C14.6 5.14372 14.6 4.13562 14.2076 3.36554C13.8625 2.68815 13.3117 2.13742 12.6343 1.79228C11.8643 1.3999 10.8562 1.3999 8.83999 1.3999H7.15999C5.14381 1.3999 4.13571 1.3999 3.36563 1.79228C2.68824 2.13742 2.13751 2.68815 1.79237 3.36554ZM8.83999 2.5999H7.15999C6.1321 2.5999 5.43334 2.60084 4.89324 2.64496C4.36714 2.68795 4.0981 2.76586 3.91042 2.86148C3.45883 3.09158 3.09168 3.45874 2.86158 3.91033C2.76595 4.09801 2.68804 4.36705 2.64505 4.89315C2.60093 5.43325 2.59999 6.13201 2.59999 7.1599V8.8399C2.59999 9.86782 2.60093 10.5665 2.64505 11.1066C2.68804 11.6328 2.76595 11.9018 2.86158 12.0895C3.09168 12.5411 3.45883 12.9082 3.91042 13.1383C4.0981 13.2339 4.36714 13.3119 4.89324 13.3548C5.43334 13.3989 6.1321 13.3999 7.15999 13.3999H8.83999C9.86791 13.3999 10.5666 13.3989 11.1067 13.3548C11.6329 13.3119 11.9019 13.2339 12.0896 13.1383C12.5412 12.9082 12.9083 12.5411 13.1384 12.0895C13.234 11.9018 13.312 11.6328 13.3549 11.1066C13.399 10.5665 13.4 9.86782 13.4 8.8399V7.1599C13.4 6.13201 13.399 5.43325 13.3549 4.89315C13.312 4.36705 13.234 4.09801 13.1384 3.91033C12.9083 3.45874 12.5412 3.09158 12.0896 2.86148C11.9019 2.76586 11.6329 2.68795 11.1067 2.64496C10.5666 2.60084 9.86791 2.5999 8.83999 2.5999Z" fill="white"/>
</svg>