<svg width="17" height="17" viewBox="0 0 17 17" fill="none" xmlns="http://www.w3.org/2000/svg">
<path fill-rule="evenodd" clip-rule="evenodd" d="M2.30206 7.18467C2.30206 3.71453 5.06811 0.885254 8.49998 0.885254C11.9319 0.885254 14.6979 3.71453 14.6979 7.18467C14.6979 8.85995 14.2205 10.6588 13.3764 12.2128C12.5335 13.7649 11.3019 15.1137 9.76117 15.8338C8.96082 16.2079 8.03914 16.2079 7.23879 15.8338C5.69808 15.1137 4.46646 13.7649 3.6235 12.2128C2.7795 10.6588 2.30206 8.85995 2.30206 7.18467ZM8.49998 1.94775C5.67262 1.94775 3.36456 4.28347 3.36456 7.18467C3.36456 8.67012 3.79143 10.2957 4.55718 11.7058C5.32398 13.1176 6.40758 14.2725 7.68865 14.8713C8.20397 15.1121 8.79599 15.1121 9.31131 14.8713C10.5924 14.2725 11.676 13.1176 12.4428 11.7058C13.2086 10.2957 13.6354 8.67012 13.6354 7.18467C13.6354 4.28347 11.3274 1.94775 8.49998 1.94775ZM8.49998 5.48942C7.6198 5.48942 6.90623 6.20297 6.90623 7.08317C6.90623 7.96335 7.6198 8.67692 8.49998 8.67692C9.38016 8.67692 10.0937 7.96335 10.0937 7.08317C10.0937 6.20297 9.38016 5.48942 8.49998 5.48942ZM5.84373 7.08317C5.84373 5.61616 7.03297 4.42692 8.49998 4.42692C9.96701 4.42692 11.1562 5.61616 11.1562 7.08317C11.1562 8.5502 9.96701 9.73942 8.49998 9.73942C7.03297 9.73942 5.84373 8.5502 5.84373 7.08317Z" fill="#D99E63"/>
</svg>
