<svg width="20" height="20" viewBox="0 0 20 20" fill="none" xmlns="http://www.w3.org/2000/svg">
<g clip-path="url(#clip0_34_1231)">
<path d="M12.4678 3.18005C12.402 3.11309 12.3236 3.0599 12.2371 3.02359C12.1505 2.98728 12.0576 2.96858 11.9638 2.96858C11.87 2.96858 11.7771 2.98728 11.6905 3.02359C11.604 3.0599 11.5256 3.11309 11.4598 3.18005C11.3289 3.31311 11.2555 3.49229 11.2555 3.67894C11.2555 3.8656 11.3289 4.04478 11.4598 4.17783L16.5707 9.28866H-0.294384C-0.387219 9.28824 -0.479216 9.30622 -0.565058 9.34157C-0.650899 9.37693 -0.728882 9.42894 -0.794497 9.49462C-0.860112 9.56029 -0.912059 9.63832 -0.947333 9.72419C-0.982607 9.81007 -1.00051 9.90208 -1 9.99492C-1 10.3881 -0.687525 10.7107 -0.294384 10.7107H16.5707L11.4598 15.812C11.1874 16.094 11.1874 16.5481 11.4598 16.8199C11.5256 16.8869 11.604 16.9401 11.6905 16.9764C11.7771 17.0127 11.87 17.0314 11.9638 17.0314C12.0576 17.0314 12.1505 17.0127 12.2371 16.9764C12.3236 16.9401 12.402 16.8869 12.4678 16.8199L18.7885 10.4992C18.8554 10.4345 18.9086 10.357 18.9449 10.2712C18.9813 10.1855 19 10.0934 19 10.0003C19 9.90723 18.9813 9.81509 18.9449 9.72938C18.9086 9.64368 18.8554 9.56615 18.7885 9.50143L12.4678 3.18005Z" fill="white"/>
</g>
<defs>
<clipPath id="clip0_34_1231">
<rect width="20" height="20" fill="white"/>
</clipPath>
</defs>
</svg>
