<svg xmlns="http://www.w3.org/2000/svg" width="17" height="17" viewBox="0 0 17 17" fill="none">
  <path d="M11.7273 9.14173L11.4046 9.46246C11.4046 9.46246 10.6378 10.225 8.54467 8.14368C6.45156 6.06247 7.21839 5.29999 7.21839 5.29999L7.42154 5.09798C7.92205 4.60035 7.96922 3.8014 7.53254 3.21813L6.63937 2.02502C6.09893 1.30311 5.05462 1.20775 4.43517 1.82367L3.32337 2.92916C3.01622 3.23457 2.8104 3.63046 2.83536 4.06964C2.89922 5.19321 3.40756 7.61066 6.24419 10.4312C9.2523 13.4222 12.0748 13.541 13.229 13.4334C13.5941 13.3994 13.9116 13.2135 14.1674 12.9591L15.1737 11.9586C15.8529 11.2832 15.6614 10.1254 14.7923 9.653L13.439 8.91733C12.8684 8.60715 12.1733 8.69824 11.7273 9.14173Z" fill="#D99E63"/>
</svg>