<svg width="17" height="17" viewBox="0 0 17 17" fill="none" xmlns="http://www.w3.org/2000/svg">
<path d="M14.2671 5.43582V2.61345L11.6531 0H11.4899H5.54288V4.93641C5.11894 4.58406 4.57773 4.36744 3.98363 4.36744H3.43292C2.75571 4.36694 2.14544 4.64382 1.70792 5.08908C1.26987 5.5341 1.00169 6.14922 1.00195 6.8249V14.17C1.00222 15.731 2.27094 16.9995 3.83202 17H13.1685C14.7295 16.9995 15.998 15.731 15.9985 14.17V8.04386C15.998 6.87212 15.2835 5.86537 14.2671 5.43582ZM6.33125 0.788342H11.3267L11.367 0.828617V2.91523H13.4541L13.4787 2.93987V5.23178C13.3769 5.22049 13.2734 5.21382 13.1685 5.21382H6.33125V0.788342ZM1.86882 6.8249C1.86882 5.96109 2.56914 5.26077 3.43292 5.26077H3.98363C4.84744 5.26077 5.54776 5.96109 5.54776 6.8249V10.8059C5.54776 11.6697 4.84744 12.37 3.98363 12.37H3.43292C2.56911 12.37 1.86882 11.6697 1.86882 10.8059V6.8249ZM15.1052 14.17C15.1052 15.2396 14.238 16.1067 13.1684 16.1067H3.83199C2.76238 16.1067 1.89525 15.2396 1.89525 14.17V12.5823C2.30816 12.9403 2.84499 13.1584 3.43292 13.1584H3.98363C5.28087 13.1584 6.3361 12.1031 6.3361 10.8059V10.1625V7.60043V6.10712H13.1684C14.238 6.10712 15.1052 6.97425 15.1052 8.04389V14.17Z" fill="#D99E63"/>
<path d="M7.8691 12.8466C7.58707 12.8466 7.3584 13.0755 7.3584 13.3575C7.3584 13.6395 7.58707 13.8682 7.8691 13.8682C8.15112 13.8682 8.38003 13.6395 8.38003 13.3575C8.37999 13.0755 8.15109 12.8466 7.8691 12.8466Z" fill="#D99E63"/>
<path d="M10.497 12.8466C10.215 12.8466 9.98633 13.0755 9.98633 13.3575C9.98633 13.6395 10.215 13.8682 10.497 13.8682C10.7791 13.8682 11.008 13.6395 11.008 13.3575C11.008 13.0755 10.7791 12.8466 10.497 12.8466Z" fill="#D99E63"/>
<path d="M13.125 12.8466C12.8429 12.8466 12.6143 13.0755 12.6143 13.3575C12.6143 13.6395 12.8429 13.8682 13.125 13.8682C13.4072 13.8682 13.6359 13.6395 13.6359 13.3575C13.6359 13.0755 13.4072 12.8466 13.125 12.8466Z" fill="#D99E63"/>
<path d="M7.8691 11.1818C7.58707 11.1818 7.3584 11.4107 7.3584 11.6928C7.3584 11.9748 7.58707 12.2035 7.8691 12.2035C8.15112 12.2035 8.38003 11.9748 8.38003 11.6928C8.37999 11.4107 8.15109 11.1818 7.8691 11.1818Z" fill="#D99E63"/>
<path d="M10.497 11.1818C10.215 11.1818 9.98633 11.4107 9.98633 11.6928C9.98633 11.9748 10.215 12.2035 10.497 12.2035C10.7791 12.2035 11.008 11.9748 11.008 11.6928C11.008 11.4107 10.7791 11.1818 10.497 11.1818Z" fill="#D99E63"/>
<path d="M13.125 11.1818C12.8429 11.1818 12.6143 11.4107 12.6143 11.6928C12.6143 11.9748 12.8429 12.2035 13.125 12.2035C13.4072 12.2035 13.6359 11.9748 13.6359 11.6928C13.6359 11.4107 13.4072 11.1818 13.125 11.1818Z" fill="#D99E63"/>
<path d="M7.8691 9.51764C7.58707 9.51764 7.3584 9.74654 7.3584 10.0286C7.3584 10.3106 7.58707 10.5393 7.8691 10.5393C8.15112 10.5393 8.38003 10.3106 8.38003 10.0286C8.38003 9.74654 8.15109 9.51764 7.8691 9.51764Z" fill="#D99E63"/>
<path d="M10.497 9.51764C10.215 9.51764 9.98633 9.74654 9.98633 10.0286C9.98633 10.3106 10.215 10.5393 10.497 10.5393C10.7791 10.5393 11.008 10.3106 11.008 10.0286C11.008 9.74654 10.7791 9.51764 10.497 9.51764Z" fill="#D99E63"/>
<path d="M13.125 9.51764C12.8429 9.51764 12.6143 9.74654 12.6143 10.0286C12.6143 10.3106 12.8429 10.5393 13.125 10.5393C13.4072 10.5393 13.6359 10.3106 13.6359 10.0286C13.6359 9.74654 13.4072 9.51764 13.125 9.51764Z" fill="#D99E63"/>
<path d="M13.1503 7.69305H7.89468C7.60445 7.69305 7.36914 7.9284 7.36914 8.21863C7.36914 8.50889 7.60445 8.7442 7.89468 8.7442H13.1503C13.4406 8.7442 13.6759 8.50889 13.6759 8.21863C13.6759 7.9284 13.4406 7.69305 13.1503 7.69305Z" fill="#D99E63"/>
</svg>
