<svg width="725" height="1175" viewBox="0 0 725 1175" fill="none" xmlns="http://www.w3.org/2000/svg">
<path d="M819.997 0H609.699H451.244V6.75085C506.104 20.2323 526.79 62.0331 526.79 62.0331H609.699H819.997H902.896C902.896 62.0331 923.582 20.2323 978.443 6.75085V0H819.997ZM833.94 71.9316H595.756H541.189V96.6476H595.756H833.94H888.507V71.9316H833.94ZM822.245 104.289H607.441H542.08C528.471 104.289 517.343 115.413 517.343 129.016C517.343 142.619 528.471 153.742 542.08 153.742H604.849C598.125 156.221 591.361 158.863 584.597 161.839H541.189C548.358 168.741 547.487 180.462 539.377 186.251C537.068 187.901 535.255 189.186 534.628 189.631C523.925 197.192 512.716 203.983 500.535 208.811C474.998 218.912 433.22 228.811 395.198 207.698C395.198 207.698 280.415 152.638 215.034 220.177C215.034 220.177 215.216 220.177 215.337 220.167L215.327 220.177L7.12498 487.722C7.12498 487.722 24.1258 531.739 71.1794 553.753C71.1794 553.753 39.1522 534.745 25.1384 492.722L217.636 220.107C220.866 220.026 226.982 219.965 234.981 220.218L429.382 517.62C413.708 559.047 374.714 582.71 374.714 582.71C422.598 562.579 447.588 513.339 447.588 513.339L237.675 220.299C255.141 220.977 280.212 223.234 303.805 229.944C324.917 235.946 343.7 248.062 359.546 263.243C382.795 285.52 454.504 340.225 576.7 313.09C576.7 313.09 522.811 304.609 486.369 247.474C486.369 247.474 546.697 297.848 633.778 291.745C633.778 291.745 611.754 301.755 587.737 296.745C587.737 296.745 724.867 366.45 770.24 759.984C770.24 759.984 715.248 469.747 603.421 362.442C603.421 362.442 638.992 458.674 654.181 590.868C679.829 658.994 706.692 746.016 721.182 840.235C721.182 840.235 697.376 766.056 660.6 681.605C662.474 755.581 655.831 835.498 633.302 913.391H843.154C756.672 669.611 819.623 315.762 819.623 315.762C791.595 351.784 738.213 394.465 738.213 394.465C766.24 362.442 786.259 291.745 786.259 291.745C885.024 297.079 943.327 247.474 943.327 247.474C906.885 304.609 852.987 313.09 852.987 313.09C980.933 341.511 1053.54 280.176 1073.12 260.328C1081.77 251.533 1091.5 243.699 1102.67 238.466C1131.66 224.884 1168.94 221.19 1192.33 220.289L982.412 513.339C982.412 513.339 1007.39 562.579 1055.28 582.71C1055.28 582.71 1016.28 559.047 1000.61 517.62L1195.02 220.208C1203.17 219.965 1209.29 220.036 1212.36 220.107L1404.85 492.722C1390.84 534.745 1358.81 553.753 1358.81 553.753C1405.85 531.739 1422.88 487.722 1422.88 487.722L1214.66 220.177C1212.53 217.961 1210.32 215.896 1208.07 213.943L1207.88 213.761L1207.92 213.821C1141.69 156.282 1034.49 207.698 1034.49 207.698C996.466 228.811 954.688 218.912 929.161 208.811C916.98 203.983 905.771 197.192 895.068 189.631C894.441 189.186 892.486 187.901 889.975 186.261C881.419 180.664 880.67 168.407 888.507 161.839H846.344C839.904 158.863 833.515 156.221 827.176 153.742H887.606C901.215 153.742 912.343 142.619 912.343 129.016C912.343 115.413 901.215 104.289 887.606 104.289H822.245ZM1328.54 568.146C1328.54 568.146 1352.3 555.302 1374.21 530.879C1181.04 621.606 1018.82 523.066 1018.82 523.066C1043.1 569.239 1081.54 592.831 1081.54 592.831C1024.03 591.05 968.773 533.744 968.773 533.744C976.741 548.237 988.345 567.984 996.922 579.957C1081.77 698.274 1248.59 721.351 1360.25 628.873C1430.45 570.737 1430.07 504.655 1429.99 500.677C1415.55 521.568 1388.4 554.047 1328.54 568.146ZM69.7416 628.873C181.407 721.351 348.226 698.274 433.078 579.957C441.655 567.984 453.248 548.237 461.217 533.744C461.217 533.744 405.962 591.05 348.459 592.831C348.459 592.831 386.895 569.239 411.166 523.066C411.166 523.066 248.954 621.606 55.7785 530.879C77.7004 555.302 101.445 568.146 101.445 568.146C41.6026 554.047 14.4458 521.568 0.00666152 500.677C-0.0743432 504.655 -0.459105 570.737 69.7416 628.873ZM1100.74 795.347C1105.84 761.056 1126.62 741.026 1126.62 741.026C1051.86 781.4 1027.33 883.766 1027.33 883.766C1021.49 854.607 1030.32 832.452 1030.32 832.452C998.714 862.269 981.106 958.34 981.106 958.34C981.166 944.554 974.301 931.67 974.301 931.67C970.139 955.88 942.871 1016.82 942.871 1016.82C1040.03 950.445 1114.2 826.116 1114.2 826.116C1095.85 881.327 1060.26 929.14 1022.75 967.428C982.938 1008.1 935.459 1040.2 884.862 1066.29C871.658 1073.09 863.598 1078.76 863.598 1078.76C875.161 1058.67 891.717 1050.22 891.717 1050.22C857.877 1051.48 798.207 1098.73 798.207 1098.73C805.325 1090.69 807.917 1079.61 807.917 1079.61C793.043 1091.67 742.435 1113.39 742.435 1113.39C833.464 1124.35 944.127 1089.55 944.127 1089.55C889.084 1121.85 821.536 1126.07 769.592 1126.51C739.843 1126.42 739.843 1126.42 709.092 1127.02C653.897 1125.69 587.747 1123.02 531.681 1090.14C531.681 1090.14 642.242 1124.94 733.261 1113.96C733.261 1113.96 682.755 1092.25 667.891 1080.2C667.891 1080.2 670.483 1091.27 677.601 1099.32C677.601 1099.32 617.921 1052.06 584.091 1050.8C584.091 1050.8 600.647 1059.26 612.2 1079.34C612.2 1079.34 604.15 1073.68 590.946 1066.87C540.359 1040.79 492.88 1008.67 453.056 968.005C415.551 929.727 379.959 881.914 361.612 826.703C361.612 826.703 435.782 951.032 532.927 1017.4C532.927 1017.4 505.658 956.457 501.507 932.257C501.507 932.257 494.621 945.141 494.692 958.916C494.692 958.916 477.084 862.856 445.492 833.029C445.492 833.029 454.322 855.194 448.479 884.353C448.479 884.353 423.945 781.977 349.178 741.603C349.178 741.603 369.955 761.633 375.059 795.934C375.059 795.934 319.591 694.003 212.219 741.826C212.219 741.826 220.421 741.563 231.893 744.832C250.17 750.044 265.945 761.684 276.921 777.2C292.748 799.588 338.455 862.593 369.56 888.554C369.56 888.554 331.802 882.906 320.654 857.977C320.654 857.977 321.545 939.18 418.943 975.768C418.943 975.768 378.39 980.039 363.303 963.552C363.303 963.552 395.563 1030.96 503.552 1043.91C495.978 1044.1 488.313 1044.91 480.679 1046.65C480.679 1046.65 503.147 1047.72 523.753 1065.2C523.753 1065.2 438.88 1033.94 400.524 1117.08C400.524 1117.08 412.27 1106.08 432.106 1103.11C440.257 1101.9 448.601 1102.67 456.62 1104.59C477.388 1109.59 536.542 1123.05 568.113 1122.31C568.113 1122.31 543.093 1138.38 523.743 1129.49C523.743 1129.49 565.977 1176.61 641.858 1148.08C641.858 1148.08 620.29 1171.39 602.975 1169.48C602.975 1169.48 662.625 1195.11 738.304 1135.94C813.588 1194.29 872.823 1168.89 872.823 1168.89C855.518 1170.8 833.95 1147.5 833.95 1147.5C909.821 1176.05 952.055 1128.9 952.055 1128.9C932.715 1137.8 907.695 1121.73 907.695 1121.73C939.257 1122.48 998.41 1109.01 1019.19 1104.01C1033.59 1100.55 1048.81 1101.83 1062.2 1108.16C1070.62 1112.13 1075.27 1116.49 1075.27 1116.49C1036.93 1033.35 952.045 1064.62 952.045 1064.62C972.661 1047.14 995.119 1046.07 995.119 1046.07C987.485 1044.33 979.83 1043.52 972.246 1043.34C1080.25 1030.36 1112.5 962.975 1112.5 962.975C1097.41 979.452 1056.87 975.191 1056.87 975.191C1154.26 938.593 1155.14 857.39 1155.14 857.39C1144 882.319 1106.24 887.967 1106.24 887.967C1137.35 862.006 1183.06 799.011 1198.88 776.623C1209.85 761.097 1225.64 749.468 1243.91 744.255C1255.39 740.976 1263.59 741.249 1263.59 741.249C1243.19 732.16 1224.66 728.476 1208.02 728.476C1137.13 728.466 1100.74 795.347 1100.74 795.347ZM608.14 970.354H739.205V970.161H870.271C862.606 957.621 853.867 943.674 847.772 928.381L629.312 928.371C623.237 943.664 615.784 957.813 608.14 970.354ZM771.891 990.12C784.781 999.857 793.235 1015.06 793.569 1032.37H919.319C919.319 1032.37 902.197 1016.56 883.262 990.12H771.891ZM594.652 990.313C575.717 1016.75 558.595 1032.57 558.595 1032.57H684.81C685.084 1015.29 693.468 1000.09 706.267 990.313H594.652ZM714.701 1009.73C707.836 1027.38 700.961 1045.04 694.096 1062.69C692.86 1065.84 691.716 1069.04 690.086 1072.02C689.083 1073.86 687.929 1075.65 686.42 1077.12C685.641 1077.85 684.77 1078.52 683.717 1078.75C687.352 1078.78 690.997 1078.78 694.632 1078.77C696.941 1078.77 699.26 1078.77 701.578 1078.77C702.135 1078.78 702.692 1078.74 703.249 1078.7C701.761 1078.63 700.373 1077.67 699.756 1076.31C699.219 1075.16 699.169 1073.85 699.361 1072.62C699.644 1070.89 700.293 1069.26 700.88 1067.62C701.791 1065.15 702.692 1062.68 703.614 1060.21C712.696 1060.21 721.789 1060.22 730.882 1060.21C732.158 1063.55 733.413 1066.88 734.679 1070.21C735.307 1072.01 736.006 1073.97 735.449 1075.89C735.368 1076.22 735.206 1076.52 735.033 1076.81C734.416 1077.64 733.616 1078.31 732.613 1078.59C732.431 1078.63 732.249 1078.7 732.067 1078.72C733.899 1078.8 735.742 1078.79 737.575 1078.78C738.608 1078.77 739.661 1078.77 740.694 1078.77C742.516 1078.77 744.339 1078.77 746.172 1078.78C749.26 1078.79 752.358 1078.8 755.457 1078.73C754.475 1078.6 753.624 1078.02 752.865 1077.43C751.275 1076.12 750.06 1074.42 748.997 1072.68C747.66 1070.42 746.647 1068.02 745.696 1065.58C738.344 1046.97 730.983 1028.35 723.632 1009.73C720.655 1009.73 717.688 1009.73 714.701 1009.73ZM717.091 1024.55C720.797 1034.13 724.493 1043.7 728.188 1053.28H706.196C709.831 1043.7 713.456 1034.13 717.091 1024.55ZM736.178 1014.07C737.038 1016.2 737.221 1018.54 737.221 1020.83V1022.72V1022.84V1024.62L748.723 1055.66V1047.36H760.641C762.636 1047.38 764.722 1047.54 766.544 1048.41C767.557 1048.87 768.428 1049.69 768.812 1050.75C768.792 1046.04 768.792 1041.32 768.812 1036.61C768.438 1037.55 767.689 1038.31 766.808 1038.78C764.914 1039.8 762.737 1039.99 760.651 1040.02C756.672 1040.02 752.703 1040.02 748.723 1040.02C748.713 1032.36 748.723 1024.69 748.713 1017.04C753.28 1017.03 757.857 1017.04 762.423 1017.04C763.932 1017.04 765.461 1017.1 766.939 1017.42C768.924 1017.8 770.888 1018.69 772.245 1020.24C773.511 1021.65 774.209 1023.45 774.817 1025.22C774.807 1020.08 774.817 1014.94 774.807 1009.8C760.428 1009.8 746.05 1009.82 731.652 1009.79C733.808 1010.28 735.408 1012.06 736.178 1014.07ZM775.911 1067.44C774.533 1068.98 772.67 1070.07 770.686 1070.6C767.931 1071.38 765.076 1071.37 762.261 1071.37C761.927 1071.37 761.613 1071.37 761.289 1071.37H757.3L761.319 1078.71H776.467C777.389 1073.21 778.341 1067.69 779.242 1062.17C778.331 1064.04 777.318 1065.9 775.911 1067.44Z" fill="#EFF4F8"/>
</svg>
