<svg width="270" height="69" viewBox="0 0 270 69" fill="none" xmlns="http://www.w3.org/2000/svg">
<path d="M261.489 49.2036H254.625C255.757 46.2138 256.891 43.2259 258.023 40.2367C259.182 43.2241 260.334 46.2144 261.489 49.2036ZM250.756 52.3789C250.233 53.7225 249.724 55.1067 248.819 56.2483C248.494 56.6359 248.115 57.0376 247.605 57.1598C249.634 57.1744 251.663 57.1744 253.692 57.1598C253.3 57.1075 252.92 56.9002 252.704 56.5637C252.467 56.1949 252.423 55.7351 252.482 55.3093C252.55 54.8242 252.718 54.3609 252.885 53.9022C253.192 53.0595 253.507 52.2191 253.813 51.3747C256.65 51.3682 259.488 51.3782 262.325 51.37C262.726 52.3965 263.11 53.4307 263.505 54.4589C263.704 55.0339 263.93 55.6564 263.754 56.2665C263.632 56.741 263.197 57.0999 262.714 57.158C263.649 57.1815 264.584 57.1633 265.518 57.1686C267.012 57.1615 268.507 57.1821 270 57.158C269.592 57.0834 269.252 56.8191 268.959 56.5408C268.396 55.9882 267.982 55.3052 267.627 54.6058C267.1 53.5334 266.713 52.4 266.26 51.2954C264.196 46.0647 262.129 40.8357 260.065 35.605C259.137 35.6044 258.208 35.6044 257.279 35.605C255.105 41.1963 252.93 46.7882 250.756 52.3789ZM172.406 49.2036C170.117 49.2036 167.83 49.2042 165.541 49.2036C166.674 46.2138 167.808 43.2247 168.94 40.2355C170.097 43.2241 171.251 46.2138 172.406 49.2036ZM161.85 51.9191C161.281 53.3584 160.781 54.8583 159.843 56.1109C159.495 56.5514 159.09 57.02 158.522 57.1586C158.997 57.1768 159.473 57.1656 159.948 57.1686C161.501 57.158 163.055 57.1915 164.608 57.1504C164.184 57.1116 163.78 56.862 163.574 56.4868C163.366 56.1121 163.342 55.6634 163.407 55.2482C163.501 54.6751 163.72 54.1342 163.915 53.5898C164.187 52.851 164.461 52.1146 164.729 51.3752C167.57 51.3729 170.413 51.3688 173.253 51.3776C173.651 52.4576 174.074 53.5281 174.474 54.6087C174.65 55.1272 174.827 55.6887 174.679 56.2372C174.563 56.7222 174.124 57.1104 173.625 57.1498C174.411 57.1891 175.199 57.1592 175.985 57.1686C177.629 57.1598 179.274 57.1868 180.918 57.1545C180.344 57.0435 179.909 56.6054 179.543 56.1808C179.012 55.5401 178.617 54.8007 178.279 54.0449C177.847 53.0331 177.463 52.003 177.053 50.9818C175.03 45.8568 173.004 40.7324 170.983 35.6062C170.053 35.6038 169.124 35.6044 168.195 35.605C166.081 41.043 163.965 46.4804 161.85 51.9191ZM105.05 49.2036C102.761 49.2036 100.474 49.2042 98.185 49.2036C99.3184 46.2138 100.452 43.2247 101.585 40.2355C102.741 43.2241 103.895 46.2138 105.05 49.2036ZM94.406 52.1446C94.0202 53.1282 93.6631 54.1283 93.1552 55.0574C92.8416 55.6317 92.4827 56.1925 92.0112 56.6524C91.7704 56.8767 91.4956 57.0881 91.1673 57.1615C93.0254 57.1774 94.8841 57.1633 96.7427 57.1691C96.9177 57.1715 97.0921 57.158 97.2666 57.1445C96.8015 57.1216 96.3645 56.8221 96.1725 56.3981C96.0063 56.0398 95.991 55.6299 96.0515 55.2459C96.1396 54.7062 96.3399 54.1947 96.5249 53.6832C96.8091 52.9127 97.0916 52.1428 97.377 51.3723C100.214 51.3723 103.052 51.3741 105.889 51.3717C106.288 52.4112 106.681 53.4524 107.077 54.4924C107.272 55.0568 107.488 55.6693 107.314 56.2683C107.19 56.7428 106.75 57.1157 106.259 57.1498C107.155 57.1897 108.054 57.1592 108.952 57.1686C110.488 57.1592 112.024 57.1879 113.559 57.1533C113.252 57.1104 112.99 56.9313 112.75 56.7469C112.254 56.337 111.873 55.8085 111.545 55.2606C111.126 54.5611 110.809 53.8089 110.515 53.0507C108.219 47.2357 105.92 41.4212 103.627 35.6062C102.698 35.6038 101.768 35.605 100.84 35.605C98.6959 41.1182 96.5513 46.6314 94.406 52.1446ZM229.742 37.4132C230.377 38.4344 230.765 39.5772 231.207 40.6883C233.36 46.1815 235.511 51.6753 237.663 57.1686C238.44 57.168 239.218 57.1697 239.996 57.1674C242.263 51.3506 244.534 45.5355 246.802 39.7193C247.127 38.8725 247.482 38.0321 247.969 37.2622C248.418 36.5716 248.969 35.8528 249.789 35.5991C247.693 35.6103 245.596 35.6044 243.499 35.6026C243.869 35.6884 244.245 35.8546 244.475 36.1717C244.77 36.564 244.801 37.0937 244.691 37.5576C244.513 38.2976 244.212 38.9999 243.952 39.7123C242.46 43.6745 240.968 47.6373 239.476 51.599C237.969 47.7765 236.464 43.9535 234.958 40.1304C234.677 39.401 234.371 38.6816 234.114 37.944C233.937 37.4355 233.805 36.8647 234.017 36.3449C234.171 35.9327 234.582 35.6761 235.003 35.6026C232.599 35.6044 230.195 35.6103 227.791 35.6003C228.668 35.891 229.266 36.6603 229.742 37.4132ZM182.986 36.3121C183.772 36.9116 184.347 37.8237 184.414 38.8238C184.452 39.5678 184.423 40.3142 184.432 41.0589V52.5668C184.408 53.8042 184.561 55.1302 183.962 56.2659C183.731 56.6964 183.341 57.0775 182.841 57.1562C183.411 57.1809 183.981 57.1639 184.551 57.1686C186.017 57.1562 187.484 57.1932 188.95 57.1492C188.443 57.0969 188.019 56.7498 187.74 56.3411C187.36 55.7768 187.216 55.0897 187.169 54.4214C187.137 53.8259 187.155 53.2286 187.151 52.6326C187.151 48.8882 187.151 45.1444 187.151 41.4001C189.8 44.6964 192.449 47.9921 195.097 51.2889C195.701 52.0465 196.327 52.7888 196.874 53.5916C197.657 54.7121 198.371 55.893 198.872 57.1686C199.649 57.168 200.427 57.1691 201.204 57.168C201.203 51.0987 201.204 45.0282 201.204 38.9582C201.207 38.1279 201.274 37.2605 201.675 36.5158C201.908 36.0742 202.31 35.7101 202.806 35.5985C200.818 35.6091 198.831 35.6079 196.843 35.6003C197.572 35.7776 198.072 36.4289 198.279 37.1207C198.506 37.8149 198.521 38.5536 198.516 39.2777C198.516 42.8882 198.517 46.4992 198.516 50.1097C194.749 45.2754 190.983 40.4381 187.214 35.6038C185.403 35.605 183.591 35.605 181.78 35.6038C182.207 35.7929 182.614 36.0272 182.986 36.3121ZM133.35 36.4007C133.845 37.1013 133.944 37.9899 133.947 38.8244C133.947 43.6176 133.947 48.4108 133.947 53.204C133.954 54.2563 133.913 55.3851 133.332 56.3012C133.057 56.7258 132.63 57.0881 132.114 57.1545C133.829 57.1868 135.545 57.1598 137.261 57.1686C137.618 57.1592 137.978 57.1915 138.334 57.1439C138.312 57.1368 138.268 57.1216 138.245 57.1151L138.186 57.111C137.745 57.0235 137.4 56.6782 137.15 56.3211C136.621 55.5213 136.513 54.5288 136.506 53.5922C136.504 49.1184 136.505 44.6447 136.505 40.1715C139.054 45.9877 141.6 51.8045 144.146 57.6213C146.673 51.784 149.195 45.9449 151.724 40.1081C151.724 44.4315 151.724 48.7549 151.724 53.0789C151.724 54.0966 151.753 55.1543 151.361 56.1144C151.165 56.5913 150.808 57.0658 150.273 57.1691C152.438 57.1562 154.604 57.1921 156.768 57.1509C156.223 57.0799 155.828 56.6253 155.594 56.1608C155.165 55.2864 155.148 54.2875 155.156 53.3343V39.9818C155.165 38.9342 155.08 37.8436 155.471 36.8476C155.687 36.2715 156.131 35.7371 156.754 35.5991C154.862 35.6109 152.969 35.6021 151.077 35.6044C148.956 40.5632 146.858 45.5326 144.726 50.4867C142.599 45.5273 140.476 40.5662 138.351 35.6062C136.271 35.5985 134.19 35.6138 132.11 35.5979C132.605 35.7019 133.062 35.982 133.35 36.4007ZM116.46 36.6773C116.801 37.4496 116.849 38.3117 116.85 39.145C116.848 43.9793 116.853 48.8148 116.846 53.6497C116.83 54.5423 116.764 55.4637 116.388 56.2865C116.201 56.6747 115.908 57.084 115.452 57.158C116.438 57.1815 117.424 57.1621 118.41 57.1686H129.283C129.531 55.5178 129.779 53.8676 130.026 52.2174C129.717 52.753 129.425 53.3073 128.996 53.7595C128.637 54.1542 128.168 54.4431 127.656 54.5958C126.836 54.8436 125.969 54.8512 125.119 54.8659C123.529 54.8753 121.937 54.8677 120.346 54.8694C120.346 49.5859 120.345 44.3023 120.346 39.0193C120.352 38.1819 120.416 37.3127 120.796 36.5522C121.019 36.1001 121.41 35.7089 121.915 35.5974C119.72 35.6103 117.525 35.6085 115.329 35.5979C115.858 35.7465 116.248 36.1858 116.46 36.6773ZM218.889 38.4867C220.468 39.3963 221.579 40.9649 222.185 42.6592C222.682 44.0292 222.888 45.4939 222.886 46.9473C222.88 48.2833 222.671 49.6305 222.168 50.8726C221.751 51.9061 221.12 52.864 220.279 53.6021C219.39 54.3873 218.265 54.9 217.087 55.0444C215.694 55.2147 214.24 54.9558 213.015 54.2634C211.409 53.3678 210.276 51.791 209.659 50.0839C209.135 48.6533 208.926 47.1211 208.933 45.6031C208.94 44.2724 209.154 42.9281 209.671 41.6972C210.115 40.6349 210.797 39.6606 211.7 38.9389C212.553 38.2506 213.601 37.809 214.688 37.6686C216.127 37.4866 217.631 37.7555 218.889 38.4867ZM208.599 38.2083C206.866 39.9507 205.79 42.2886 205.446 44.7099C205.043 47.5475 205.503 50.5672 207.034 53.0213C208.153 54.8395 209.885 56.2777 211.895 57.0106C213.562 57.6278 215.383 57.7799 217.141 57.5509C219.455 57.2602 221.664 56.1726 223.275 54.4824C225.039 52.6619 226.09 50.2183 226.383 47.7137C226.707 44.9383 226.226 42.0067 224.722 39.6218C223.571 37.772 221.774 36.3308 219.705 35.6414C218.18 35.1217 216.536 34.9854 214.938 35.1622C212.561 35.4182 210.275 36.4976 208.599 38.2083ZM166.187 11.2872C167.335 14.2605 168.485 17.2338 169.632 20.2082C167.356 20.2076 165.08 20.2082 162.805 20.2076C163.932 17.2338 165.058 14.2593 166.187 11.2872ZM158.111 25.4196C157.762 26.1413 157.368 26.8519 156.826 27.4486C156.548 27.7439 156.225 28.0352 155.818 28.1274C157.271 28.1345 158.725 28.1286 160.178 28.1304C160.749 28.1233 161.321 28.1474 161.89 28.1151C161.361 28.0769 160.874 27.6917 160.73 27.1778C160.533 26.5518 160.725 25.8964 160.925 25.2962C161.275 24.3167 161.641 23.3424 162 22.3652C164.823 22.3658 167.646 22.3652 170.47 22.3658C170.778 23.178 171.086 23.9896 171.395 24.8018C171.579 25.2886 171.782 25.7719 171.892 26.2817C171.988 26.6845 171.974 27.132 171.775 27.5032C171.591 27.8502 171.223 28.0746 170.84 28.1257C172.083 28.1368 173.325 28.1274 174.569 28.1304C175.747 28.1257 176.925 28.1409 178.102 28.1227C177.573 28.0229 177.165 27.6306 176.816 27.2465C176.076 26.3891 175.59 25.3491 175.175 24.305C172.854 18.4306 170.535 12.5557 168.215 6.68073C167.293 6.68014 166.369 6.68073 165.446 6.68073C163.368 12.0195 161.292 17.3577 159.215 22.697C158.854 23.6067 158.526 24.5316 158.111 25.4196ZM133.338 6.69482C134.132 7.02662 134.863 7.54987 135.36 8.25986C135.759 8.82716 135.963 9.52188 135.96 10.2137C135.961 15.0785 135.96 19.9428 135.96 24.8077C135.955 25.6134 135.894 26.4526 135.521 27.1825C135.289 27.6377 134.882 28.0511 134.354 28.1221C135.616 28.1415 136.877 28.1257 138.137 28.1304C138.914 28.1233 139.691 28.1468 140.467 28.1174C140.193 28.0893 139.937 27.9718 139.72 27.8056C139.26 27.4574 138.984 26.9188 138.839 26.3698C138.6 25.483 138.681 24.5575 138.667 23.6507V12.4453C141.523 15.9999 144.379 19.5546 147.235 23.1087C147.823 23.8398 148.385 24.5915 148.886 25.3849C149.438 26.2594 149.951 27.1643 150.325 28.1304H152.644C152.645 22.0405 152.642 15.95 152.646 9.85956C152.656 9.0926 152.737 8.29745 153.101 7.60859C153.335 7.1611 153.737 6.77997 154.245 6.6772C152.262 6.68366 150.28 6.68249 148.296 6.67779C148.942 6.82225 149.421 7.35901 149.652 7.95743C149.914 8.60752 149.97 9.31752 149.971 10.0117V21.1091C146.225 16.3 142.478 11.4904 138.732 6.68132C136.904 6.67897 135.074 6.68249 133.246 6.67955L133.338 6.69482ZM126.076 7.82118C126.46 8.6821 126.444 9.64521 126.439 10.5684V24.4565C126.445 25.3397 126.448 26.2623 126.075 27.0827C125.853 27.5854 125.425 28.0393 124.862 28.131C127.082 28.1239 129.302 28.1427 131.522 28.1221C130.971 28.0423 130.569 27.5807 130.35 27.0985C129.952 26.2271 129.979 25.2457 129.982 24.3091C129.982 19.51 129.982 14.7121 129.982 9.91359C129.989 9.08027 130.075 8.20525 130.514 7.47588C130.751 7.09298 131.117 6.74709 131.578 6.67779C129.337 6.68249 127.096 6.68307 124.854 6.6772C125.424 6.82519 125.848 7.29617 126.076 7.82118ZM92.5767 7.94216C92.8457 8.61046 92.9026 9.34042 92.905 10.0545C92.9044 14.7332 92.905 19.4125 92.905 24.0912C92.9091 25.0819 92.9079 26.1114 92.515 27.0386C92.3036 27.5361 91.9184 28.0252 91.3587 28.1292C95.9564 28.1327 100.555 28.1298 105.152 28.1298C105.44 26.4085 105.737 24.6879 106.021 22.9654C105.735 23.548 105.418 24.1264 104.978 24.6086C104.547 25.0913 103.969 25.4301 103.347 25.5993C102.394 25.8641 101.396 25.8354 100.416 25.8365C99.1076 25.8365 97.8004 25.8371 96.492 25.8365C96.4914 23.3377 96.492 20.8384 96.492 18.339C97.7323 18.3384 98.9731 18.3384 100.214 18.339C100.838 18.3437 101.484 18.3913 102.055 18.6649C102.37 18.8123 102.644 19.066 102.764 19.3984C102.758 17.9267 102.758 16.4545 102.764 14.9828C102.645 15.2758 102.412 15.5107 102.135 15.6599C101.55 15.9759 100.869 16.0369 100.215 16.0446C98.9743 16.0457 97.7328 16.0452 96.492 16.0452C96.4914 13.6538 96.4926 11.2631 96.4914 8.87179C97.9172 8.87061 99.3425 8.87179 100.768 8.8712C101.241 8.87238 101.716 8.89117 102.18 8.98806C102.801 9.11021 103.412 9.38741 103.835 9.87072C104.232 10.31 104.448 10.8726 104.635 11.4252C104.634 9.81963 104.637 8.21406 104.634 6.60967C100.145 6.60849 95.6563 6.61378 91.1673 6.60673C91.8374 6.76176 92.3377 7.3179 92.5767 7.94216ZM108.107 6.67896C110.293 6.68073 112.478 6.68249 114.664 6.67838C114.156 6.77292 113.766 7.17461 113.543 7.62328C113.167 8.37497 113.101 9.23354 113.095 10.061C113.095 15.3222 113.095 20.5829 113.095 25.8442C114.563 25.8447 116.03 25.8442 117.498 25.8447C118.188 25.8418 118.882 25.8348 119.568 25.7432C120.092 25.6697 120.62 25.537 121.073 25.2563C121.843 24.7847 122.3 23.9726 122.725 23.2044C122.478 24.8464 122.231 26.4884 121.984 28.1304H109.099C108.803 28.1292 108.507 28.138 108.211 28.1169C108.487 28.101 108.709 27.9096 108.877 27.7069C109.157 27.3587 109.311 26.9271 109.418 26.499C109.587 25.7807 109.617 25.0402 109.617 24.3061C109.616 19.5593 109.617 14.8113 109.616 10.0639C109.61 9.30636 109.553 8.53059 109.261 7.82294C109.054 7.30851 108.662 6.82636 108.107 6.67896Z" fill="white"/>
<path d="M44.4577 60.8301C44.5164 60.8577 44.5669 60.9046 44.5892 60.9663C44.588 60.6932 44.588 60.4196 44.5892 60.1459C44.5675 60.2005 44.524 60.244 44.4723 60.2722C44.3637 60.3303 44.2374 60.3421 44.1159 60.3432C43.8851 60.3438 43.6543 60.3438 43.4241 60.3438C43.4235 59.8993 43.4241 59.4547 43.4235 59.0101H44.2186C44.3061 59.0107 44.3948 59.0143 44.4806 59.0319C44.5963 59.0554 44.7096 59.1065 44.7883 59.1963C44.8617 59.2779 44.9022 59.3825 44.9369 59.4852C44.9369 59.1863 44.9375 58.888 44.9369 58.5903C44.103 58.5903 43.2685 58.5908 42.4346 58.5903C42.5591 58.6184 42.6518 58.7218 42.6965 58.8375C42.7464 58.962 42.757 59.0976 42.757 59.2304V59.3396V59.3472V59.45L43.4241 61.2511V60.7696H44.1153C44.2316 60.7702 44.3514 60.7796 44.4577 60.8301ZM45.0332 62.5889C45.0866 62.2688 45.1418 61.9494 45.1941 61.6293C45.1412 61.738 45.0825 61.8454 45.0009 61.9347C44.921 62.0245 44.813 62.0874 44.6978 62.1185C44.5205 62.1678 44.3349 62.1631 44.1529 62.1631H43.9215L44.1546 62.5889H45.0332ZM42.2331 61.1125C42.0188 60.557 41.8038 60.002 41.5895 59.4465C41.3787 60.002 41.1684 60.557 40.9576 61.1125H42.2331ZM42.6542 62.4256C42.6865 62.3141 42.6466 62.2001 42.6101 62.095C42.5367 61.9018 42.4633 61.7086 42.3893 61.5154C41.862 61.516 41.3346 61.516 40.8078 61.516C40.7544 61.6587 40.7021 61.802 40.6493 61.9447C40.6152 62.0404 40.5776 62.1355 40.5612 62.2354C40.55 62.307 40.553 62.3834 40.5835 62.4497C40.6193 62.5284 40.701 62.5836 40.7873 62.5883C40.7544 62.5907 40.7221 62.593 40.6898 62.593C40.3445 62.5918 39.9992 62.5942 39.6539 62.5913C39.715 62.5777 39.766 62.5384 39.8107 62.4967C39.8982 62.411 39.9651 62.307 40.0233 62.2001C40.1172 62.0275 40.1842 61.8419 40.2558 61.6593C40.654 60.6345 41.0527 59.6103 41.4509 58.5861C41.6236 58.5861 41.7962 58.5856 41.9689 58.5861C42.3952 59.6667 42.8221 60.7467 43.2485 61.8272C43.3037 61.9682 43.3624 62.1085 43.4399 62.2377C43.501 62.3399 43.5721 62.438 43.6637 62.5143C43.7089 62.549 43.7576 62.5819 43.8146 62.5895C43.5292 62.5965 43.2438 62.5907 42.9584 62.5924C42.7916 62.5907 42.6242 62.5965 42.458 62.5889C42.4686 62.5883 42.4792 62.5836 42.4898 62.5813C42.5479 62.5648 42.5943 62.5267 42.6307 62.4785C42.6401 62.4615 42.6489 62.4444 42.6542 62.4256ZM53.3182 59.8998C53.3182 59.8998 52.3252 58.982 51.227 57.448H44.7677C45.5153 58.013 46.0057 58.8956 46.0251 59.8998H53.3182ZM32.3971 59.9116H39.7173C39.7332 58.9086 40.2194 58.0277 40.9617 57.4598H34.4883C33.3902 58.9931 32.3971 59.9116 32.3971 59.9116ZM42.8715 56.2906H50.473C50.0296 55.5623 49.5222 54.7531 49.1687 53.8658L36.4991 53.8652C36.1462 54.7525 35.714 55.5741 35.27 56.3017H42.8715V56.2906ZM63.8401 46.1474C64.1361 44.1572 65.3412 42.9956 65.3412 42.9956C61.0054 45.3376 59.5825 51.2777 59.5825 51.2777C59.2437 49.5864 59.7558 48.3003 59.7558 48.3003C57.9229 50.0304 56.9017 55.6046 56.9017 55.6046C56.9058 54.8048 56.507 54.0572 56.507 54.0572C56.2657 55.4613 54.6842 58.9978 54.6842 58.9978C60.3184 55.1466 64.62 47.9327 64.62 47.9327C63.5565 51.1356 61.4917 53.9104 59.3171 56.132C57.008 58.4916 54.2543 60.3538 51.3198 61.8677C50.554 62.2624 50.0865 62.5918 50.0865 62.5918C50.7572 61.4261 51.7174 60.9358 51.7174 60.9358C49.7547 61.0086 46.294 63.7511 46.294 63.7511C46.7069 63.2842 46.8572 62.6412 46.8572 62.6412C45.9945 63.34 43.0594 64.6009 43.0594 64.6009C48.3389 65.2369 54.757 63.2179 54.757 63.2179C51.5647 65.0912 47.6471 65.3367 44.6344 65.3625C42.9091 65.3567 42.9091 65.3567 41.1256 65.3919C37.9244 65.315 34.0872 65.1599 30.8362 63.2513C30.8362 63.2513 37.2479 65.2709 42.5273 64.6349C42.5273 64.6349 39.5981 63.3741 38.736 62.6752C38.736 62.6752 38.8863 63.3177 39.2986 63.7846C39.2986 63.7846 35.8379 61.0421 33.8753 60.9692C33.8753 60.9692 34.836 61.4596 35.5061 62.6259C35.5061 62.6259 35.0392 62.2964 34.2734 61.9018C31.3395 60.3884 28.5852 58.5251 26.2761 56.1661C24.1009 53.9439 22.0361 51.1697 20.9726 47.9667C20.9726 47.9667 25.2743 55.1806 30.9084 59.0313C30.9084 59.0313 29.3269 55.4954 29.0862 54.0907C29.0862 54.0907 28.6874 54.8388 28.6909 55.6381C28.6909 55.6381 27.6697 50.0644 25.8368 48.3344C25.8368 48.3344 26.3495 49.6193 26.0101 51.3118C26.0101 51.3118 24.5877 45.3716 20.2514 43.0291C20.2514 43.0291 21.4565 44.1913 21.7525 46.1815C21.7525 46.1815 18.5355 40.2666 12.3076 43.042C12.3076 43.042 12.7833 43.0267 13.4492 43.2164C14.5092 43.5188 15.4242 44.1936 16.0607 45.0945C16.9786 46.3935 19.6295 50.0492 21.4336 51.5555C21.4336 51.5555 19.2437 51.2272 18.5971 49.7814C18.5971 49.7814 18.6488 54.493 24.2976 56.6159C24.2976 56.6159 21.9457 56.8631 21.0707 55.9071C21.0707 55.9071 22.9411 59.817 29.2054 60.5699C28.7655 60.5805 28.321 60.6275 27.8782 60.7285C27.8782 60.7285 29.1813 60.7907 30.3764 61.8049C30.3764 61.8049 25.454 59.9909 23.2294 64.8152C23.2294 64.8152 23.9106 64.1769 25.0617 64.0048C25.5338 63.9343 26.0177 63.9789 26.4822 64.0911C27.6873 64.3806 31.1181 65.1617 32.9491 65.1188C32.9491 65.1188 31.498 66.0508 30.3758 65.5352C30.3758 65.5352 32.8252 68.27 37.2262 66.6134C37.2262 66.6134 35.9747 67.9658 34.9711 67.8549C34.9711 67.8549 38.4306 69.3424 42.8192 65.9087C47.1861 69.2954 50.6221 67.8208 50.6221 67.8208C49.6179 67.9324 48.367 66.5799 48.367 66.5799C52.7674 68.236 55.2168 65.5011 55.2168 65.5011C54.0952 66.0167 52.6435 65.0848 52.6435 65.0848C54.4745 65.1282 57.9053 64.3472 59.1104 64.0571C59.9454 63.8556 60.8281 63.9302 61.605 64.2972C62.093 64.528 62.3632 64.7817 62.3632 64.7817C60.1386 59.9574 55.2162 61.7714 55.2162 61.7714C56.4119 60.7567 57.7144 60.695 57.7144 60.695C57.2716 60.594 56.8277 60.547 56.3878 60.5358C62.6515 59.7836 64.5225 55.8736 64.5225 55.8736C63.6469 56.8297 61.2956 56.5824 61.2956 56.5824C66.9444 54.4589 66.9955 49.7473 66.9955 49.7473C66.3489 51.1943 64.159 51.5214 64.159 51.5214C65.9637 50.0151 68.6146 46.3594 69.5324 45.0604C70.1684 44.1601 71.0834 43.4854 72.144 43.1823C72.8094 42.9927 73.285 43.0079 73.285 43.0079C67.0572 40.2331 63.8401 46.1474 63.8401 46.1474ZM30.5525 3.59931H35.3604H47.5578H52.3657C52.3657 3.59931 53.5655 1.17335 56.7478 0.391113V0H47.5578H35.3604H26.1704V0.391113C29.3528 1.17335 30.5525 3.59931 30.5525 3.59931ZM31.387 4.17248V5.60715H34.5524H48.3665H51.5312V4.17248H48.3665H34.5524H31.387ZM25.1169 33.6494C25.6149 32.9552 26.2879 31.8089 26.7495 30.9679C26.7495 30.9679 23.5448 34.293 20.2091 34.3969C20.2091 34.3969 22.439 33.028 23.8466 30.349C23.8466 30.349 14.4387 36.0665 3.23501 30.8017C4.50643 32.2188 5.88355 32.9646 5.88355 32.9646C2.41226 32.1466 0.837231 30.2615 0.000386351 29.0499C-0.00431172 29.2802 -0.0266269 33.115 4.04484 36.4882C10.5205 41.854 20.1962 40.5144 25.1169 33.6494ZM0.413231 28.2983C0.413231 28.2983 1.39982 30.8522 4.12823 32.1295C4.12823 32.1295 2.27073 31.0261 1.45796 28.5884L12.6223 12.77C12.8091 12.7653 13.1644 12.7617 13.6283 12.777L24.9031 30.033C23.994 32.4367 21.7325 33.8091 21.7325 33.8091C24.5096 32.6416 25.959 29.7846 25.959 29.7846L13.7845 12.7817C14.7976 12.821 16.2516 12.952 17.6193 13.3414C18.8444 13.6896 19.9337 14.3925 20.8528 15.2734C22.2011 16.5654 26.3601 19.7401 33.4471 18.1657C33.4471 18.1657 30.3217 17.6736 28.2082 14.3585C28.2082 14.3585 31.7071 17.2813 36.7575 16.9272C36.7575 16.9272 35.4802 17.5074 34.0872 17.2173C34.0872 17.2173 42.0405 21.2617 44.672 44.0955C44.672 44.0955 41.482 27.2553 34.9969 21.0297C34.9969 21.0297 37.06 26.6122 37.9403 34.283C39.4284 38.2353 40.9864 43.2851 41.8262 48.7519C41.8262 48.7519 40.4455 44.4479 38.3132 39.5478C38.4212 43.8395 38.036 48.4771 36.7299 52.9966H48.9009C43.8851 38.8519 47.5361 18.3201 47.5361 18.3201C45.9105 20.4102 42.8145 22.8872 42.8145 22.8872C44.44 21.0298 45.6011 16.9272 45.6011 16.9272C51.3286 17.2366 54.7106 14.3585 54.7106 14.3585C52.5965 17.6736 49.4711 18.1657 49.4711 18.1657C56.8917 19.8147 61.1029 16.2565 62.2375 15.1043C62.7402 14.594 63.304 14.1394 63.9523 13.8358C65.6336 13.0477 67.7953 12.8334 69.1519 12.7817L56.9774 29.7846C56.9774 29.7846 58.4262 32.6416 61.2034 33.8091C61.2034 33.8091 58.9418 32.4367 58.0327 30.033L69.3081 12.7764C69.7809 12.7617 70.1361 12.7658 70.3141 12.7705L81.4785 28.5884C80.6651 31.0261 78.8076 32.1295 78.8076 32.1295C81.536 30.8522 82.5232 28.2983 82.5232 28.2983L70.4474 12.7752C70.3229 12.646 70.1955 12.5262 70.0645 12.4129L70.0533 12.4017L70.0563 12.4053C66.215 9.06728 59.9977 12.0506 59.9977 12.0506C57.7925 13.2756 55.3695 12.7012 53.889 12.1146C53.1826 11.8344 52.5325 11.4404 51.9117 11.0023C51.8753 10.9765 51.762 10.9019 51.6163 10.8067C51.1201 10.4826 51.0767 9.77082 51.5312 9.3891H49.0858C48.7124 9.21703 48.3412 9.06435 47.9742 8.91929H51.4795C52.2682 8.91929 52.9136 8.27448 52.9136 7.48521C52.9136 6.69593 52.2682 6.05112 51.4795 6.05112H47.6882H35.2301H31.4393C30.65 6.05112 30.0046 6.69593 30.0046 7.48521C30.0046 8.27448 30.65 8.91929 31.4393 8.91929H35.0797C34.6898 9.06435 34.2975 9.21703 33.9052 9.3891H31.387C31.8034 9.78961 31.7529 10.4702 31.2825 10.8056C31.1486 10.9013 31.0435 10.9765 31.0071 11.0023C30.3863 11.4404 29.7362 11.8344 29.0298 12.1146C27.5487 12.7012 25.1263 13.2756 22.9205 12.0506C22.9205 12.0506 16.2634 8.85528 12.4708 12.7752C12.4708 12.7752 12.482 12.7746 12.489 12.7741L12.4885 12.7752L0.413231 28.2983ZM78.891 36.4882C72.4153 41.854 62.7396 40.5144 57.8184 33.6494C57.321 32.9552 56.6486 31.8089 56.1864 30.9679C56.1864 30.9679 59.3911 34.293 62.7267 34.3969C62.7267 34.3969 60.4969 33.028 59.0892 30.349C59.0892 30.349 68.4971 36.0665 79.7008 30.8017C78.43 32.2188 77.0523 32.9646 77.0523 32.9646C80.5236 32.1466 82.0986 30.2615 82.9355 29.0499C82.9408 29.2802 82.9625 33.115 78.891 36.4882Z" fill="white"/>
</svg>
